<svg version="1.1" xmlns="http://www.w3.org/2000/svg" xmlns:xlink="http://www.w3.org/1999/xlink"
     width="660" height="312" viewBox="0,0,220,104">
  <defs>
    <linearGradient x1="60" y1="0"
                    x2="60" y2="104"
                    gradientUnits="userSpaceOnUse"
                    id="left">
      <stop         offset="0" stop-color="#faff7f"/>
      <stop         offset="1" stop-color="#91a6ff"/>
    </linearGradient>
    <linearGradient x1="140" y1="0"
                    x2="140" y2="104"
                    gradientUnits="userSpaceOnUse"
                    id="right">
      <stop         offset="0" stop-color="#ff88dc"/>
      <stop         offset="1" stop-color="#faff7f"/>
    </linearGradient>
  </defs>
  <!-- 17.3 34.6 52.0 69.3 86.6 103.9 -->
  <path d="M    0,  86.6,
               50,   0.0,
               70,   0.0,
              120,  86.6,
              110, 103.9,
               60,  17.3,
               20,  86.6,
               60,  86.6,
               50,  69.3,
               60,  52.0,
               90, 103.9,
               10, 103.9,
                0,  86.6
          z"
        fill="url(#left)"/>
  <path d="M  100,  17.3,
              110,   0.0,
              210,   0.0,
              220,  17.3,
              120,  17.3,
              160,  86.6,
              180,  52.0,
              160,  52.0,
              150,  34.6,
              210,  34.6,
              170, 103.9,
              150, 103.9,
              100,  17.3
          z"
        fill="url(#right)"/>
</svg>
