<?xml version="1.0" encoding="UTF-8" standalone="no"?>
<svg
   version="1.1"
   width="1797.0709"
   height="311.70001"
   viewBox="0 0 599.02364 103.9"
   id="svg18"
   sodipodi:docname="ag_logo_with_white_text_wide.svg"
   inkscape:version="1.1.2 (0a00cf5339, 2022-02-04)"
   xmlns:inkscape="http://www.inkscape.org/namespaces/inkscape"
   xmlns:sodipodi="http://sodipodi.sourceforge.net/DTD/sodipodi-0.dtd"
   xmlns="http://www.w3.org/2000/svg"
   xmlns:svg="http://www.w3.org/2000/svg">
  <sodipodi:namedview
     id="namedview20"
     pagecolor="#ffffff"
     bordercolor="#666666"
     borderopacity="1.0"
     inkscape:pageshadow="2"
     inkscape:pageopacity="0.0"
     inkscape:pagecheckerboard="0"
     showgrid="false"
     inkscape:zoom="0.74166667"
     inkscape:cx="929.66292"
     inkscape:cy="317.52809"
     inkscape:window-width="1862"
     inkscape:window-height="1016"
     inkscape:window-x="58"
     inkscape:window-y="27"
     inkscape:window-maximized="1"
     inkscape:current-layer="svg18" />
  <defs
     id="defs12">
    <linearGradient
       x1="60"
       y1="0"
       x2="60"
       y2="104"
       gradientUnits="userSpaceOnUse"
       id="left">
      <stop
         offset="0"
         stop-color="#faff7f"
         id="stop2" />
      <stop
         offset="1"
         stop-color="#91a6ff"
         id="stop4" />
    </linearGradient>
    <linearGradient
       x1="140"
       y1="0"
       x2="140"
       y2="104"
       gradientUnits="userSpaceOnUse"
       id="right">
      <stop
         offset="0"
         stop-color="#ff88dc"
         id="stop7" />
      <stop
         offset="1"
         stop-color="#faff7f"
         id="stop9" />
    </linearGradient>
  </defs>
  <!-- 17.3 34.6 52.0 69.3 86.6 103.9 -->
  <path
     d="M 0,86.6 50,0 H 70 L 120,86.6 110,103.9 60,17.3 20,86.6 H 60 L 50,69.3 60,52 90,103.9 H 10 Z"
     fill="url(#left)"
     id="path14"
     style="fill:url(#left)" />
  <path
     d="M 100,17.3 110,0 h 100 l 10,17.3 H 120 L 160,86.6 180,52 H 160 L 150,34.6 h 60 l -40,69.3 h -20 z"
     fill="url(#right)"
     id="path16"
     style="fill:url(#right)" />
  <g
     aria-label="AFTERSCHOOL"
     id="text3303"
     style="font-size:140px;line-height:1.25;font-family:Montserrat;-inkscape-font-specification:Montserrat;fill:#ffffff;fill-opacity:1;stroke-width:0.333333"
     transform="matrix(0.34216669,0,0,0.34216669,96.837292,104.04255)">
    <path
       d="m 386.30692,-205.22977 44.8,-98 h 10.22 l 44.8,98 h -10.92 l -41.16,-91.98 h 4.2 l -41.16,91.98 z m 17.64,-26.18 3.08,-8.4 h 56.98 l 3.08,8.4 z"
       id="path23943"
       style="fill:#ffffff;fill-opacity:1" />
    <path
       d="m 511.60678,-255.76977 h 51.8 v 8.96 h -51.8 z m 1.12,50.54 h -10.36 v -98 h 67.2 v 8.96 h -56.84 z"
       id="path23945"
       style="fill:#ffffff;fill-opacity:1" />
    <path
       d="m 610.72659,-205.22977 v -89.04 h -34.44 v -8.96 h 79.24 v 8.96 h -34.44 v 89.04 z"
       id="path23947"
       style="fill:#ffffff;fill-opacity:1" />
    <path
       d="m 681.28649,-259.40977 h 51.8 v 8.82 h -51.8 z m 1.12,45.22 h 58.94 v 8.96 h -69.3 v -98 h 67.2 v 8.96 h -56.84 z"
       id="path23949"
       style="fill:#ffffff;fill-opacity:1" />
    <path
       d="m 765.70634,-205.22977 v -98 h 36.68 q 12.46,0 21.42,4.06 8.96,3.92 13.72,11.48 4.9,7.42 4.9,18.06 0,10.36 -4.9,17.92 -4.76,7.42 -13.72,11.48 -8.96,3.92 -21.42,3.92 h -30.94 l 4.62,-4.76 v 35.84 z m 66.92,0 -25.2,-35.56 h 11.2 l 25.34,35.56 z m -56.56,-35 -4.62,-4.9 h 30.66 q 14.7,0 22.26,-6.44 7.7,-6.44 7.7,-18.06 0,-11.76 -7.7,-18.2 -7.56,-6.44 -22.26,-6.44 h -30.66 l 4.62,-4.9 z"
       id="path23951"
       style="fill:#ffffff;fill-opacity:1" />
    <path
       d="m 893.94625,-204.38977 q -10.92,0 -21,-3.5 -9.94,-3.64 -15.4,-9.24 l 4.06,-7.98 q 5.18,5.04 13.86,8.54 8.82,3.36 18.48,3.36 9.24,0 14.98,-2.24 5.88,-2.38 8.54,-6.3 2.8,-3.92 2.8,-8.68 0,-5.74 -3.36,-9.24 -3.22,-3.5 -8.54,-5.46 -5.32,-2.1 -11.76,-3.64 -6.44,-1.54 -12.88,-3.22 -6.44,-1.82 -11.9,-4.76 -5.32,-2.94 -8.68,-7.7 -3.22,-4.9 -3.22,-12.74 0,-7.28 3.78,-13.3 3.92,-6.16 11.9,-9.8 7.98,-3.78 20.44,-3.78 8.26,0 16.38,2.38 8.12,2.24 14,6.3 l -3.5,8.26 q -6.3,-4.2 -13.44,-6.16 -7,-1.96 -13.58,-1.96 -8.82,0 -14.56,2.38 -5.74,2.38 -8.54,6.44 -2.66,3.92 -2.66,8.96 0,5.74 3.22,9.24 3.36,3.5 8.68,5.46 5.46,1.96 11.9,3.5 6.44,1.54 12.74,3.36 6.44,1.82 11.76,4.76 5.46,2.8 8.68,7.56 3.36,4.76 3.36,12.46 0,7.14 -3.92,13.3 -3.92,6.02 -12.04,9.8 -7.98,3.64 -20.58,3.64 z"
       id="path23953"
       style="fill:#ffffff;fill-opacity:1" />
    <path
       d="m 995.58622,-204.38977 q -11.06,0 -20.44,-3.64 -9.38,-3.78 -16.24,-10.5 -6.86,-6.72 -10.78,-15.82 -3.78,-9.1 -3.78,-19.88 0,-10.78 3.78,-19.88 3.92,-9.1 10.78,-15.82 7,-6.72 16.38,-10.36 9.38,-3.78 20.44,-3.78 10.63998,0 20.01998,3.64 9.38,3.5 15.82,10.64 l -6.58,6.58 q -6.02,-6.16 -13.3,-8.82 -7.28,-2.8 -15.67998,-2.8 -8.82,0 -16.38,3.08 -7.56,2.94 -13.16,8.54 -5.6,5.46 -8.82,12.88 -3.08,7.28 -3.08,16.1 0,8.82 3.08,16.24 3.22,7.28 8.82,12.88 5.6,5.46 13.16,8.54 7.56,2.94 16.38,2.94 8.39998,0 15.67998,-2.8 7.28,-2.8 13.3,-8.96 l 6.58,6.58 q -6.44,7.14 -15.82,10.78 -9.38,3.64 -20.15998,3.64 z"
       id="path23955"
       style="fill:#ffffff;fill-opacity:1" />
    <path
       d="m 1125.3662,-303.22977 h 10.22 v 98 h -10.22 z m -61.32,98 h -10.36 v -98 h 10.36 z m 62.3,-45.22 h -63.42 v -9.1 h 63.42 z"
       id="path23957"
       style="fill:#ffffff;fill-opacity:1" />
    <path
       d="m 1210.3462,-204.38977 q -11.06,0 -20.58,-3.64 -9.38,-3.78 -16.38,-10.5 -6.86,-6.86 -10.78,-15.82 -3.78,-9.1 -3.78,-19.88 0,-10.78 3.78,-19.74 3.92,-9.1 10.78,-15.82 7,-6.86 16.38,-10.5 9.38,-3.78 20.58,-3.78 11.06,0 20.44,3.78 9.38,3.64 16.24,10.36 7,6.72 10.78,15.82 3.92,9.1 3.92,19.88 0,10.78 -3.92,19.88 -3.78,9.1 -10.78,15.82 -6.86,6.72 -16.24,10.5 -9.38,3.64 -20.44,3.64 z m 0,-9.24 q 8.82,0 16.24,-2.94 7.56,-3.08 13.02,-8.54 5.6,-5.6 8.68,-12.88 3.08,-7.42 3.08,-16.24 0,-8.82 -3.08,-16.1 -3.08,-7.42 -8.68,-12.88 -5.46,-5.6 -13.02,-8.54 -7.42,-3.08 -16.24,-3.08 -8.82,0 -16.38,3.08 -7.56,2.94 -13.16,8.54 -5.46,5.46 -8.68,12.88 -3.08,7.28 -3.08,16.1 0,8.68 3.08,16.1 3.22,7.42 8.68,13.02 5.6,5.46 13.16,8.54 7.56,2.94 16.38,2.94 z"
       id="path23959"
       style="fill:#ffffff;fill-opacity:1" />
    <path
       d="m 1327.806,-204.38977 q -11.06,0 -20.58,-3.64 -9.38,-3.78 -16.38,-10.5 -6.86,-6.86 -10.78,-15.82 -3.78,-9.1 -3.78,-19.88 0,-10.78 3.78,-19.74 3.92,-9.1 10.78,-15.82 7,-6.86 16.38,-10.5 9.38,-3.78 20.58,-3.78 11.06,0 20.44,3.78 9.38,3.64 16.24,10.36 7,6.72 10.78,15.82 3.92,9.1 3.92,19.88 0,10.78 -3.92,19.88 -3.78,9.1 -10.78,15.82 -6.86,6.72 -16.24,10.5 -9.38,3.64 -20.44,3.64 z m 0,-9.24 q 8.82,0 16.24,-2.94 7.56,-3.08 13.02,-8.54 5.6,-5.6 8.68,-12.88 3.08,-7.42 3.08,-16.24 0,-8.82 -3.08,-16.1 -3.08,-7.42 -8.68,-12.88 -5.46,-5.6 -13.02,-8.54 -7.42,-3.08 -16.24,-3.08 -8.82,0 -16.38,3.08 -7.56,2.94 -13.16,8.54 -5.46,5.46 -8.68,12.88 -3.08,7.28 -3.08,16.1 0,8.68 3.08,16.1 3.22,7.42 8.68,13.02 5.6,5.46 13.16,8.54 7.56,2.94 16.38,2.94 z"
       id="path23961"
       style="fill:#ffffff;fill-opacity:1" />
    <path
       d="m 1402.4258,-205.22977 v -98 h 10.36 v 89.04 h 54.88 v 8.96 z"
       id="path23963"
       style="fill:#ffffff;fill-opacity:1" />
  </g>
  <g
     aria-label="GEEKERY"
     id="text19355"
     style="font-size:140px;line-height:1.25;font-family:Montserrat;-inkscape-font-specification:Montserrat;fill:#ffffff;fill-opacity:1;stroke-width:0.333333"
     transform="matrix(0.55221413,0,0,0.55221413,-0.56184491,150.30252)">
    <path
       d="m 467.40542,-84.029942 q -11.2,0 -20.72,-3.64 -9.38,-3.78 -16.38,-10.5 -6.86,-6.719998 -10.78,-15.819998 -3.78,-9.1 -3.78,-19.88 0,-10.78 3.78,-19.88 3.92,-9.1 10.92,-15.82 7,-6.72 16.38,-10.36 9.52,-3.78 20.72,-3.78 11.2,0 20.44,3.5 9.38,3.5 15.96,10.64 l -6.44,6.58 q -6.16,-6.16 -13.58,-8.82 -7.42,-2.66 -15.96,-2.66 -9.1,0 -16.8,3.08 -7.56,2.94 -13.3,8.54 -5.6,5.46 -8.82,12.88 -3.08,7.28 -3.08,16.1 0,8.68 3.08,16.1 3.22,7.42 8.82,13.02 5.74,5.459998 13.3,8.539998 7.7,2.94 16.66,2.94 8.4,0 15.82,-2.52 7.56,-2.52 13.86,-8.539998 l 5.88,7.839998 q -7,6.16 -16.38,9.38 -9.38,3.08 -19.6,3.08 z m 26.04,-13.72 v -36.119998 h 9.94 v 37.379998 z"
       id="path23966"
       style="fill:#ffffff;fill-opacity:1" />
    <path
       d="m 541.88526,-139.04994 h 51.8 v 8.82 h -51.8 z m 1.12,45.219998 h 58.94 v 8.96 h -69.3 v -97.999998 h 67.2 v 8.96 h -56.84 z"
       id="path23968"
       style="fill:#ffffff;fill-opacity:1" />
    <path
       d="m 635.54508,-139.04994 h 51.8 v 8.82 h -51.8 z m 1.12,45.219998 h 58.94 v 8.96 h -69.3 v -97.999998 h 67.2 v 8.96 h -56.84 z"
       id="path23970"
       style="fill:#ffffff;fill-opacity:1" />
    <path
       d="m 728.92491,-109.22994 -0.42,-12.6 59.36,-61.04 h 11.9 l -43.26,45.36 -5.88,6.3 z m -8.96,24.359998 v -97.999998 h 10.36 v 97.999998 z m 70.42,0 -42.28,-48.719998 7,-7.56 47.6,56.279998 z"
       id="path23972"
       style="fill:#ffffff;fill-opacity:1" />
    <path
       d="m 828.74471,-139.04994 h 51.8 v 8.82 h -51.8 z m 1.12,45.219998 h 58.94 v 8.96 h -69.3 v -97.999998 h 67.2 v 8.96 h -56.84 z"
       id="path23974"
       style="fill:#ffffff;fill-opacity:1" />
    <path
       d="m 913.1645,-84.869942 v -97.999998 h 36.68 q 12.46,0 21.42,4.06 8.96,3.92 13.72,11.48 4.9,7.42 4.9,18.06 0,10.36 -4.9,17.92 -4.76,7.42 -13.72,11.48 -8.96,3.92 -21.42,3.92 h -30.94 l 4.62,-4.76 v 35.839998 z m 66.92,0 -25.2,-35.559998 h 11.2 l 25.34,35.559998 z m -56.56,-34.999998 -4.62,-4.9 h 30.66 q 14.7,0 22.26,-6.44 7.7,-6.44 7.7,-18.06 0,-11.76 -7.7,-18.2 -7.56,-6.44 -22.26,-6.44 h -30.66 l 4.62,-4.9 z"
       id="path23976"
       style="fill:#ffffff;fill-opacity:1" />
    <path
       d="m 1036.3644,-84.869942 v -36.399998 l 2.38,6.44 -41.57996,-68.04 h 11.05996 l 36.54,59.78 h -5.88 l 36.54,-59.78 h 10.36 l -41.58,68.04 2.38,-6.44 v 36.399998 z"
       id="path23978"
       style="fill:#ffffff;fill-opacity:1" />
  </g>
</svg>
