<svg version="1.1" xmlns="http://www.w3.org/2000/svg" xmlns:xlink="http://www.w3.org/1999/xlink" width="156.19464" height="163.10349" viewBox="0,0,156.19464,163.10349"><g transform="translate(-150.68499,-115.9897)"><g data-paper-data="{&quot;isPaintingLayer&quot;:true}" fill-rule="nonzero" stroke-linejoin="miter" stroke-miterlimit="10" stroke-dasharray="" stroke-dashoffset="0" style="mix-blend-mode: normal"><g stroke="#131416" stroke-width="1.5"><path d="M295.96429,236.02382c-0.91776,0.96016 -4.84921,7.77318 -22.70147,-1.66316c-4.33791,-2.29293 -19.91499,-10.91871 -19.91499,-10.91871c0,0 2.22982,19.32556 6.79965,31.1503c1.47576,3.81863 8.05542,17.5018 5.19566,20.02003c-3.36808,2.96583 -15.72236,4.91741 -22.01486,2.88797c-1.82393,-0.58825 -4.0909,-0.99212 -4.443,-2.49503c-0.43652,-1.86324 4.68658,-3.74441 3.96949,-4.94344c-0.45204,-0.75586 -1.97747,-2.89503 -1.97747,-2.89503c0,0 -6.59305,0.38089 -6.72252,0.38089c-1.02357,0 -5.31359,-1.30743 -5.85773,3.19713c-0.05446,0.45085 0.11974,3.82422 -0.68851,5.00345c-1.66943,2.43569 -6.66908,2.51952 -11.65572,2.59497c-4.98664,0.07545 -11.20962,-1.67707 -11.68849,-4.1054c-0.59775,-3.03119 8.87186,-14.66581 8.82739,-18.11424c-0.05609,-4.34947 -3.33387,-12.13315 -3.93985,-19.07728c-0.75263,-8.62478 -0.09234,-11.59385 -0.09234,-11.59385c0,0 -9.91583,12.51017 -23.3878,15.35365c-5.08345,1.07295 -13.05071,-3.0742 -14.61765,-6.34369c-0.93318,-1.94712 0.63604,-6.77693 5.31046,-9.52372c8.35653,-4.91048 23.60281,-13.99611 36.92809,-18.23319c8.16752,-2.59705 17.00417,-5.83527 29.57641,-6.91972c12.89152,-1.112 22.39958,8.04876 31.1759,15.23845c7.07737,5.79788 14.29651,2.91929 20.98307,7.04005c2.37093,1.46115 4.63561,10.08933 0.93627,13.9596z" fill="#8a8c9b" stroke-linecap="butt"/><path d="M240.44048,267.11906c0,0 -5.93481,0.32207 -12.60077,-0.43396c-5.0446,-0.57214 -9.82781,-3.99461 -9.82781,-3.99461" fill="none" stroke-linecap="round"/></g><path d="M264.06155,143.24932c0,0 1.56225,-1.09889 2.77451,-1.40196c1.23186,-0.30796 4.55882,-0.43137 4.55882,-0.43137" fill="none" stroke="#131416" stroke-width="1.5" stroke-linecap="round"/><path d="M242.58333,270.16668c0,0 -1.31229,-2.31795 -1.65889,-3.8034c-0.31751,-1.36075 -0.34111,-4.76803 -0.34111,-4.76803" fill="none" stroke="#131416" stroke-width="1.5" stroke-linecap="round"/><g stroke="#000000" stroke-linecap="butt"><g><path d="M226.16648,237.17319c0,15.01084 1.15882,26.33675 1.15882,26.33675c0,0 -10.76562,-0.0821 -18.17472,-0.65367c-3.00293,-0.23166 -5.69163,-3.44539 -5.69163,-3.44539c0,0 5.07698,-6.88559 5.55512,-11.98404c0.54955,-5.85983 -0.1245,-19.52419 -0.1245,-19.52419c0,0 -6.50256,6.82097 -10.15072,9.01592c-3.75921,2.26177 -11.23859,5.83512 -11.23859,5.83512c0,0 -1.46821,-8.23792 -3.07877,-11.79929c-1.65678,-3.66355 -6.72718,-9.88413 -6.72718,-9.88413c0,0 47.22252,-12.13008 48.78821,-12.13008c5.17816,0 -0.31604,13.22216 -0.31604,28.233z" fill="#ca0000" stroke-width="1.5"/><path d="M178.27884,222.3671l2.71723,-1.23299c0,0 4.39838,5.98302 5.62646,8.81221c1.55171,3.57474 3.31433,13.16088 3.31433,13.16088l-2.9964,1.13993c0,0 -1.19679,-9.19501 -2.8533,-12.51363c-1.27796,-2.56024 -5.80832,-9.36639 -5.80832,-9.36639z" fill="#ffd900" stroke-width="1"/></g><g stroke-width="1.5"><path d="M262.08571,231.59319c0,0 0.73928,10.98263 1.27787,15.10131c0.48816,3.73297 3.92423,8.77829 3.92423,8.77829c0,0 -2.48731,3.63108 -18.1503,4.72367c-8.1238,0.56669 -14.01625,5.12402 -14.01625,5.12402c0,0 1.94945,-27.37801 -1.23213,-42.73598c-0.84894,-4.19937 3.06062,-13.63104 4.10567,-15.89938c3.05437,-8.78335 16.04046,-8.56374 19.17506,-6.04358c9.06723,7.28987 25.27391,17.60132 25.27391,17.60132c0,0 -0.97779,7.96781 -1.1419,11.92697c-0.16532,3.98842 0.15361,11.91642 0.15361,11.91642c0,0 -8.50309,-5.74218 -12.14675,-7.20853c-2.57466,-1.03615 -7.22302,-3.28453 -7.22302,-3.28453z" fill="#ca0000"/><path d="M278.43074,241.06566c0,0 -0.38414,-8.99154 -0.24704,-13.31787c0.1419,-4.47776 1.08454,-12.55169 1.08454,-12.55169l3.07085,1.86112c0,0 -0.60344,7.76473 -0.67724,11.91231c-0.08068,4.53417 0.11891,13.49197 0.11891,13.49197z" fill="#ffd900"/></g><g fill="#ffd900" stroke-width="1.5"><path d="M222.18785,224.34108l-0.13565,-2.10257c0,0 5.54689,0.49766 8.31678,0.31895c2.96398,-0.19123 8.92429,-1.43128 8.92429,-1.43128l0.13565,2.10257c0,0 -5.84061,1.55052 -8.61388,1.72944c-2.9614,0.19106 -8.62718,-0.61711 -8.62718,-0.61711z"/><path d="M218.19197,223.68877c0,-1.39635 1.13198,-2.52832 2.52833,-2.52832c1.39635,0 2.52832,1.13197 2.52832,2.52832c0,1.39635 -1.13197,2.52833 -2.52832,2.52833c-1.39635,0 -2.52833,-1.13197 -2.52833,-2.52833z"/><path d="M237.82724,222.25464c0,-1.39635 1.13198,-2.52832 2.52833,-2.52832c1.39635,0 2.52832,1.13197 2.52832,2.52832c0,1.39635 -1.13197,2.52833 -2.52832,2.52833c-1.39635,0 -2.52833,-1.13197 -2.52833,-2.52833z"/></g><g fill="#ffd900" stroke-width="1.5"><path d="M221.72932,240.83388l-0.01024,-2.10692c0,0 5.60048,0.82698 8.37609,0.81349c2.9701,-0.01444 8.99366,-0.80442 8.99366,-0.80442l0.01024,2.01386c0,0 -5.92255,1.01396 -8.70156,1.02747c-2.96751,0.01442 -8.6682,-0.94348 -8.6682,-0.94348z"/><path d="M217.71393,239.64486c0,-1.39635 1.13198,-2.52832 2.52833,-2.52832c1.39635,0 2.52832,1.13197 2.52832,2.52832c0,1.39635 -1.13197,2.52833 -2.52832,2.52833c-1.39635,0 -2.52833,-1.13198 -2.52833,-2.52833z"/><path d="M238.82405,239.47489c0,-1.39635 1.13198,-2.52832 2.52833,-2.52832c1.39635,0 2.52832,1.13197 2.52832,2.52832c0,1.39635 -1.13197,2.52833 -2.52832,2.52833c-1.39635,0 -2.52833,-1.13198 -2.52833,-2.52833z"/></g><g fill="#ffd900" stroke-width="1.5"><path d="M222.5418,255.69781l-0.01024,-2.10692c0,0 5.60048,0.82698 8.37609,0.81349c2.9701,-0.01444 8.99367,-0.80442 8.99367,-0.80442l0.01024,2.01386c0,0 -5.92255,1.01396 -8.70156,1.02747c-2.96751,0.01443 -8.6682,-0.94349 -8.6682,-0.94349z"/><path d="M218.50005,254.75818c0,-1.39635 1.13198,-2.52832 2.52833,-2.52832c1.39635,0 2.52832,1.13197 2.52832,2.52832c0,1.39636 -1.13197,2.52833 -2.52832,2.52833c-1.39635,0 -2.52833,-1.13197 -2.52833,-2.52833z"/><path d="M239.18879,254.37751c0,-1.39635 1.13198,-2.52832 2.52833,-2.52832c1.39635,0 2.52832,1.13197 2.52832,2.52832c0,1.39635 -1.13197,2.52833 -2.52832,2.52833c-1.39635,0 -2.52833,-1.13198 -2.52833,-2.52833z"/></g></g><g stroke-width="1.5"><path d="M305.875,188.50001c-0.48219,5.53753 -8.28467,20.80309 -29.40575,21.22733c-10.76281,0.21618 -17.63646,-7.48655 -17.63646,-7.48655c0,0 -9.06834,5.52578 -22.70778,8.50922c-14.73084,3.22217 -24.98589,1.31511 -24.98589,1.31511c0,0 -11.50796,6.78665 -17.81345,8.99263c-14.31662,5.00868 -34.32659,0.27301 -38.98403,-4.67696c-6.75816,-7.18263 -0.24788,-15.87288 4.53337,-19.13078c0.19995,-0.13625 -0.35237,-5.86561 2.07844,-6.56319c3.96623,-1.1382 2.38982,4.13044 4.80434,5.1382c1.74941,0.73016 5.95334,-0.9025 7.20436,1.16263c0.94214,1.55524 2.09721,4.63195 -1.52158,7.8804c-1.28714,1.15542 -5.43617,-2.90696 -6.06705,-1.69316c-1.68794,3.24752 5.36282,7.65917 9.51086,5.10288c10.00619,-6.16645 6.15255,-28.76983 16.12238,-46.94851c14.44642,-27.22386 27.57083,-31.48114 48.28492,-32.24592c12.95619,-0.47835 32.512,12.71561 32.512,12.71561c0,0 37.76746,4.25414 34.07134,46.70105z" fill="#9d9fb0" stroke="#131416" stroke-linecap="butt"/><path d="M187.06155,186.08266c0,0 1.40062,-3.66666 6.16667,-3.66666c3.98763,0 6.16666,3.66666 6.16666,3.66666" fill="none" stroke="#131416" stroke-linecap="round"/><path d="M183.56155,190.58266c0,0 2.21098,-0.99126 3.35195,-1.07276c1.19028,-0.08502 3.64805,0.57276 3.64805,0.57276" fill="none" stroke="#131416" stroke-linecap="round"/><path d="M258.63298,201.58265c0,0 -2.84655,-2.68779 -2.82091,-6.51669c0.08229,-12.28978 4.32091,-22.31663 4.32091,-22.31663" fill="none" stroke="#131416" stroke-linecap="round"/><path d="M219.06155,204.416c0,0 -2.68712,2.7698 -4.11743,4.04189c-2.2714,2.02014 -4.38257,3.95811 -4.38257,3.95811" fill="none" stroke="#131416" stroke-linecap="round"/><path d="M274.72822,197.916c0,0 -1.82971,-7.35437 -3.71172,-10.64087c-1.83923,-3.21178 -7.45495,-8.85913 -7.45495,-8.85913l3,-7.5c0,0 15.71977,3.39531 21.95691,5.62077c5.50437,1.964 13.54309,7.04589 13.54309,7.04589" fill="none" stroke="#131416" stroke-linecap="round"/><g stroke-linecap="butt"><path d="M240.39488,180.24933c0,5.52284 -2.27589,10 -5.08334,10c-2.80745,0 -5.08333,-4.47716 -5.08333,-10c0,-5.52284 2.27588,-10 5.08333,-10c2.80745,0 5.08334,4.47716 5.08334,10z" fill="#131416" stroke="#131416"/><path d="M236.32345,175.916c0,1.38071 -1.1566,2.5 -2.58334,2.5c-1.42674,0 -2.58333,-1.11929 -2.58333,-2.5c0,-1.38071 1.15659,-2.5 2.58333,-2.5c1.42674,0 2.58334,1.11929 2.58334,2.5z" fill="#dbe7ff" stroke="#dbe7ff"/></g></g><path d="M257.35192,131.42689c0,0 -6.59678,5.64412 -20.57374,5.64412c-13.97696,0 -21.30202,-3.82344 -21.30202,-3.82344l-6.36392,-13.45495l15.47378,10.15462l11.09974,-10.35482l9.64729,9.77767l15.06551,-10.98606z" fill="#ffd900" stroke="#000000" stroke-width="2" stroke-linecap="butt"/></g></g></svg>