<?xml version="1.0" encoding="UTF-8" standalone="no"?>
<svg
  version="1.1"
  width="90"
  height="171.54414"
  id="svg212"
  sodipodi:docname="bear.svg"
  inkscape:version="1.2.2 (b0a8486541, 2022-12-01)"
  xmlns:inkscape="http://www.inkscape.org/namespaces/inkscape"
  xmlns:sodipodi="http://sodipodi.sourceforge.net/DTD/sodipodi-0.dtd"
  xmlns="http://www.w3.org/2000/svg"
  xmlns:svg="http://www.w3.org/2000/svg">
  <defs
     id="defs216" />
  <sodipodi:namedview
     id="namedview214"
     pagecolor="#ffffff"
     bordercolor="#000000"
     borderopacity="0.25"
     inkscape:showpageshadow="2"
     inkscape:pageopacity="0.0"
     inkscape:pagecheckerboard="0"
     inkscape:deskcolor="#d1d1d1"
     showgrid="false"
     showguides="false"
     inkscape:zoom="2.9003337"
     inkscape:cx="62.751399"
     inkscape:cy="123.95125"
     inkscape:window-width="1870"
     inkscape:window-height="1011"
     inkscape:window-x="0"
     inkscape:window-y="0"
     inkscape:window-maximized="1"
     inkscape:current-layer="svg212" />
  <g
     transform="matrix(0.63380282,0,0,0.63380282,-92.535212,6.7605655)"
     id="g210">
    <g
       data-paper-data="{&quot;isPaintingLayer&quot;:true}"
       fill="none"
       fill-rule="nonzero"
       stroke="none"
       stroke-width="1"
       stroke-linecap="butt"
       stroke-linejoin="miter"
       stroke-miterlimit="10"
       stroke-dasharray="none"
       stroke-dashoffset="0"
       font-family="none"
       font-weight="none"
       font-size="none"
       text-anchor="none"
       style="mix-blend-mode:normal"
       id="g208">
      <g
         id="Group">
        <path
           d="m 247.9,179.2 c 0,0 3.3,24 -11.1,48.5 -7.2,12.3 -7.8,19.4 -6.1,21.7 1.7,2.4 7.1,5.6 5.8,7.1 -1.3,1.5 -19.7,2.3 -23.9,0.5 -1.7,-0.8 -7.2,-27.4 -6.2,-39.3 1.1,-11.8 2.8,-15.8 1.7,-24.4 -1.1,-8.6 -6.8,-23 -3.9,-29.8 2.9,-6.8 11.7,-18 27.1,-12.5 15.4,5.5 16.8,22.3 16.6,28.2 z"
           id="Shape"
           class="mascot-fill" />
        <path
           d="m 228.9,256.6 c -0.2,-0.4 -0.6,-0.8 -0.9,-1.3 -0.3,-0.5 -0.7,-1 -1,-1.3 -0.1,-0.1 -0.2,-0.3 -0.3,-0.4 -0.1,-0.1 -0.1,-0.2 -0.1,-0.2 0,0 0.3,0.1 0.7,0.3 0.4,0.3 0.9,0.7 1.3,1.2 0.3,0.5 0.6,1 0.7,1.5 0.1,0.5 0.1,0.8 0.1,0.8 0,0 -0.1,-0.2 -0.5,-0.6 z"
           id="path3"
           fill="#59402f" />
        <path
           d="m 234.3,256.2 c -0.3,-0.4 -0.7,-0.9 -1.2,-1.4 -0.4,-0.5 -0.9,-1 -1.3,-1.3 -0.2,-0.2 -0.4,-0.3 -0.5,-0.4 -0.1,-0.1 -0.2,-0.2 -0.2,-0.2 0,0 0,0.1 0.2,0.1 0.1,0 0.4,0.1 0.6,0.2 0.2,0.1 0.5,0.3 0.8,0.5 0.3,0.2 0.6,0.4 0.8,0.7 0.4,0.6 0.8,1.2 1,1.7 0.2,0.5 0.2,0.9 0.2,0.9 0,0 -0.3,-0.3 -0.4,-0.8 z"
           id="path5"
           fill="#59402f" />
        <path
           d="m 226.8,257.2 c -0.5,-0.6 -1.3,-1.7 -0.2,-1.7 1.1,-0.1 2,2.4 2,3 0,0.4 -1.3,-0.6 -1.8,-1.3 z"
           id="path7"
           fill="#665a52" />
        <path
           d="m 231.9,256.6 c -0.5,-0.6 -1.3,-1.7 -0.2,-1.7 1.1,-0.1 2,2.4 2,3 0,0.3 -1.2,-0.7 -1.8,-1.3 z"
           id="path9"
           fill="#665a52" />
        <path
           d="m 235.1,256.3 c -0.5,-0.6 -1.3,-1.7 -0.2,-1.7 1.1,-0.1 2,2.4 2,3 0,0.3 -1.2,-0.7 -1.8,-1.3 z"
           id="path11"
           fill="#665a52" />
        <g
           id="g18">
          <path
             d="m 207.9,228 c -4.7,-2.4 -3,-8.9 -3,-8.9 l -1.9,3.4 c -1.3,-3.9 1,-10.5 1,-10.5 l -2.5,1.5 c 0,-4.2 3.6,-6.8 3.6,-6.8 -1.3,1.8 -3.7,0.6 -3.7,0.6 2.2,-0.3 7.2,-11.2 7.2,-11.2"
             id="ID0.7656900864094496"
             class="mascot-fill" />
          <path
             d="m 202.1,206.9 c 0.2,-0.2 0.5,-0.6 0.8,-1 0.7,-0.8 1.4,-2 2.1,-3.2 0.8,-1.2 1.4,-2.4 2,-3.3 0.5,-0.9 0.9,-1.5 0.9,-1.5 0,0 -0.2,0.7 -0.6,1.7 -0.3,0.5 -0.5,1.1 -0.8,1.7 -0.3,0.6 -0.6,1.2 -1,1.8 -0.8,1.2 -1.6,2.4 -2.4,3.1 -0.4,0.4 -0.7,0.6 -1,0.8 -0.3,0.2 -0.5,0.2 -0.5,0.2 0,0 0.1,-0.1 0.5,-0.3 z"
             id="ID0.43892181292176247"
             fill="#59402f" />
          <path
             d="m 201.5,212.2 c 0,-0.3 0,-0.7 0.1,-1.1 0.1,-0.4 0.2,-0.8 0.4,-1.2 0.2,-0.4 0.4,-0.8 0.6,-1.1 0.3,-0.3 0.6,-0.6 0.8,-0.8 0.2,-0.2 0.4,-0.3 0.6,-0.4 0.2,-0.1 0.3,-0.1 0.3,-0.1 0,0 -0.1,0.1 -0.2,0.2 -0.2,0.1 -0.3,0.4 -0.5,0.6 -0.1,0.3 -0.3,0.6 -0.5,0.9 -0.2,0.4 -0.3,0.7 -0.5,1.1 -0.3,0.7 -0.5,1.5 -0.7,2.1 -0.2,0.6 -0.3,1 -0.3,1 0,0 -0.1,-0.4 -0.1,-1.2 z"
             id="ID0.19974732538685203"
             fill="#59402f" />
          <path
             d="m 202.7,221.8 c -0.1,-0.2 -0.3,-0.6 -0.4,-1.1 -0.1,-0.5 -0.2,-1.1 -0.2,-1.7 0,-0.6 0,-1.3 0.1,-1.9 0.1,-0.7 0.2,-1.3 0.4,-1.9 0.1,-0.6 0.3,-1.1 0.5,-1.6 0.2,-0.5 0.4,-0.8 0.5,-1.1 0.1,-0.3 0.2,-0.4 0.2,-0.4 0,0 0,0.1 -0.1,0.4 0,0.2 -0.1,0.6 -0.2,1.1 -0.1,0.5 -0.2,1 -0.3,1.6 -0.1,0.6 -0.2,1.2 -0.3,1.8 -0.1,0.6 -0.2,1.2 -0.2,1.8 0,0.6 0,1.1 0,1.6 0.1,1 0.3,1.6 0.3,1.6 0,0 -0.1,-0.1 -0.3,-0.2 z"
             id="ID0.34988808864727616"
             fill="#59402f" />
          <path
             d="m 206.2,226.8 c -0.2,-0.1 -0.5,-0.4 -0.7,-0.7 -0.2,-0.3 -0.5,-0.7 -0.6,-1.2 -0.1,-0.4 -0.2,-1 -0.3,-1.5 -0.1,-0.3 -0.1,-0.5 -0.1,-0.8 0,-0.3 0,-0.6 0,-0.8 0,-0.5 0.1,-0.9 0.1,-1.3 0.2,-0.8 0.3,-1.3 0.3,-1.3 0,0 0.1,0.5 0.1,1.3 0,0.8 0.1,1.8 0.2,2.8 0.1,1 0.3,2 0.6,2.7 0.2,0.4 0.4,0.6 0.5,0.8 0.1,0.2 0.2,0.3 0.2,0.3 0,0 -0.1,0 -0.3,-0.3 z"
             id="ID0.7932556448504329"
             fill="#59402f" />
        </g>
        <path
           d="m 206.9,227.9 c 0.3,1.8 0.6,3.9 0.9,6.1 0.4,2.2 0.7,4.6 1.1,7 0.4,2.4 0.8,4.8 1.2,7 0.4,2.2 0.9,4.3 1.4,6 0.3,0.9 0.6,1.7 0.9,2.3 0.1,0.1 0.2,0.3 0.3,0.4 l 0.1,0.2 c 0.1,0 0.1,0.1 0.2,0.1 0.3,0.2 0.5,0.2 0.8,0.3 1,0.2 1.6,0.3 1.6,0.3 0,0 -0.7,0 -1.7,-0.2 -0.3,0 -0.6,-0.1 -0.9,-0.2 -0.1,0 -0.1,0 -0.2,-0.1 l -0.2,-0.2 c -0.1,-0.2 -0.2,-0.3 -0.3,-0.5 -0.4,-0.7 -0.7,-1.4 -1,-2.3 -0.6,-1.7 -1.1,-3.8 -1.6,-6 -0.5,-2.2 -0.9,-4.6 -1.3,-7 -0.4,-2.4 -0.7,-4.8 -1,-7 -0.3,-2.2 -0.5,-4.3 -0.7,-6.1 -0.4,-3.6 -0.5,-6 -0.5,-6 0,0 0.3,2.4 0.9,5.9 z"
           id="path20"
           fill="#59402f" />
        <path
           d="m 245.5,165.7 c 0.9,2.5 1.9,6.1 2.6,10.6 0.7,4.5 0.9,9.8 0.4,15.4 -0.3,2.8 -0.7,5.7 -1.3,8.6 -0.6,2.9 -1.4,5.8 -2.3,8.7 -0.9,2.8 -1.9,5.7 -3.1,8.4 -1.2,2.7 -2.4,5.3 -3.6,7.9 -2.4,5.1 -4.6,9.8 -6.3,14 -0.9,2.1 -1.6,4 -1.8,5.8 -0.1,0.9 -0.2,1.7 -0.1,2.5 0,0.8 0.3,1.5 0.6,2 0.8,1.1 1.6,1.7 2.2,2.1 0.6,0.4 0.9,0.6 0.9,0.6 0,0 -0.3,-0.2 -0.9,-0.6 -0.6,-0.4 -1.5,-1 -2.3,-2.1 -0.3,-0.6 -0.6,-1.3 -0.7,-2.1 -0.1,-0.8 -0.1,-1.7 0,-2.6 0.2,-1.9 0.9,-3.9 1.7,-6 1.6,-4.2 3.9,-9 6.2,-14.1 1.2,-2.6 2.4,-5.2 3.6,-7.9 1.1,-2.7 2.2,-5.5 3.1,-8.4 0.9,-2.8 1.7,-5.7 2.3,-8.6 0.6,-2.9 1,-5.8 1.3,-8.6 0.6,-5.6 0.4,-10.8 -0.2,-15.3 -0.5,-4.5 -1.5,-8.1 -2.4,-10.6 -0.9,-2.5 -1.6,-3.8 -1.6,-3.8 0,0 0.7,1.3 1.7,4.1 z"
           id="path22"
           fill="#59402f" />
      </g>
      <g
         data-paper-data="{&quot;origPos&quot;:null}"
         id="g51">
        <g
           id="g27"
           class="mascot-fill">
          <path
             d="m 248.9,81.3 c 6.7,18.8 5.4,24.4 7.7,30 2.3,5.6 15,14.1 21.4,20.4 4,3.9 7.1,6.7 9.1,9 2,2.3 0.4,10.4 -17.2,8.7 -5.6,-0.5 -43.9,-18.9 -53.5,-38.1 -13.4,-42.5 23.2,-56.4 32.5,-30 z"
             id="ID0.5950554176233709" />
          <path
             d="m 223.1,121.2 c -5.2,-0.7 -5.9,-7.4 -5.9,-7.4 l -0.6,3.9 c -2.5,-3.2 -2.6,-10.2 -2.6,-10.2 l -1.8,2.3 c -1.4,-4 1.1,-7.7 1.1,-7.7 -0.6,2.1 -3.3,1.8 -3.3,1.8 2,-1.1 3.8,-14.1 3.8,-14.1"
             id="ID0.30592748848721385" />
        </g>
        <path
           d="m 210.3,103.3 c 0.2,-0.3 0.4,-0.8 0.6,-1.3 0.3,-1.2 0.8,-2.7 1.1,-4.2 0.4,-1.5 0.7,-3 0.9,-4.2 0.2,-1.1 0.4,-1.9 0.4,-1.9 0,0 0,0.2 0,0.5 0,0.3 0,0.8 0,1.4 0,0.6 -0.1,1.3 -0.2,2 -0.1,0.3 -0.1,0.7 -0.2,1.1 0,0.4 -0.1,0.8 -0.2,1.2 -0.3,1.6 -0.8,3.1 -1.4,4.2 -0.3,0.5 -0.6,0.9 -0.8,1.2 -0.2,0.3 -0.4,0.4 -0.4,0.4 0,0 0.1,-0.1 0.2,-0.4 z"
           id="path29"
           fill="#59402f" />
        <path
           d="m 211.9,108.6 c -0.1,-0.3 -0.2,-0.7 -0.3,-1.1 -0.1,-0.4 -0.1,-0.9 -0.1,-1.3 0,-0.5 0.1,-0.9 0.2,-1.3 0.1,-0.4 0.2,-0.7 0.4,-1 0.2,-0.3 0.4,-0.5 0.5,-0.6 0.1,-0.1 0.2,-0.2 0.2,-0.2 0,0 0,0.1 -0.1,0.3 -0.1,0.2 -0.1,0.4 -0.2,0.7 -0.1,0.3 -0.1,0.6 -0.2,1 0,0.4 -0.1,0.8 -0.1,1.2 -0.1,0.8 0,1.6 0,2.2 0.1,0.6 0.1,1 0.1,1 0,0 -0.2,-0.3 -0.4,-0.9 z"
           id="path31"
           fill="#59402f" />
        <path
           d="m 216.2,116.8 c -0.2,-0.2 -0.5,-0.5 -0.8,-0.9 -0.3,-0.4 -0.6,-0.9 -0.8,-1.5 -0.2,-0.5 -0.4,-1.2 -0.5,-1.8 -0.2,-0.6 -0.3,-1.3 -0.3,-1.9 0,-0.6 0,-1.2 0,-1.7 0,-0.5 0.1,-0.9 0.1,-1.2 0.1,-0.2 0.1,-0.4 0.1,-0.4 0,0 0.1,0.1 0.1,0.4 0.1,0.3 0.1,0.7 0.2,1.2 0,0.5 0.1,1 0.2,1.6 0.1,0.6 0.2,1.2 0.3,1.8 0.1,0.6 0.2,1.2 0.4,1.8 0.1,0.6 0.3,1.1 0.5,1.5 0.4,0.9 0.8,1.4 0.8,1.4 0,0 -0.1,0 -0.3,-0.3 z"
           id="path33"
           fill="#59402f" />
        <path
           d="m 222.4,121.1 c -0.3,0 -0.7,-0.1 -1.1,-0.3 -0.3,-0.1 -0.5,-0.3 -0.7,-0.4 -0.2,-0.1 -0.4,-0.3 -0.6,-0.5 -0.4,-0.4 -0.8,-0.9 -1.1,-1.4 -0.1,-0.3 -0.3,-0.5 -0.4,-0.8 -0.1,-0.3 -0.2,-0.5 -0.3,-0.8 -0.3,-0.6 -0.4,-1.1 -0.5,-1.5 -0.1,-0.5 -0.2,-0.8 -0.2,-1.1 -0.1,-0.3 -0.1,-0.4 -0.1,-0.4 0,0 0.1,0.2 0.2,0.4 0.1,0.3 0.2,0.6 0.4,1 0.2,0.4 0.3,0.9 0.6,1.4 0.1,0.2 0.3,0.5 0.4,0.7 0.1,0.2 0.2,0.5 0.4,0.7 0.3,0.4 0.6,0.9 1,1.3 0.4,0.4 0.7,0.8 1.1,1 0.7,0.5 1.3,0.6 1.3,0.6 0,0 -0.2,0 -0.4,0.1 z"
           id="path35"
           fill="#59402f" />
        <path
           d="m 281,148.1 c -0.2,-0.4 -0.6,-0.8 -0.9,-1.3 -0.3,-0.5 -0.7,-1 -1,-1.3 -0.1,-0.1 -0.2,-0.3 -0.3,-0.4 -0.1,-0.1 -0.1,-0.2 -0.1,-0.2 0,0 0.3,0.1 0.7,0.3 0.4,0.2 0.9,0.6 1.3,1.1 0.3,0.5 0.6,1 0.7,1.5 0.1,0.5 0.1,0.8 0.1,0.8 0,0 -0.1,-0.2 -0.5,-0.5 z"
           id="path37"
           fill="#59402f" />
        <path
           d="m 284.9,145.8 c -0.3,-0.4 -0.7,-0.9 -1.2,-1.4 -0.4,-0.5 -0.9,-1 -1.3,-1.3 -0.2,-0.2 -0.4,-0.3 -0.5,-0.4 -0.1,-0.1 -0.2,-0.2 -0.2,-0.2 0,0 0,0.1 0.2,0.1 0.1,0 0.4,0.1 0.6,0.2 0.2,0.1 0.5,0.3 0.8,0.5 0.3,0.2 0.6,0.4 0.8,0.7 0.5,0.6 0.9,1.2 1.1,1.7 0.2,0.5 0.2,0.9 0.2,0.9 0,0 -0.2,-0.3 -0.5,-0.8 z"
           id="path39"
           fill="#59402f" />
        <g
           id="g43"
           fill="#59402f">
          <path
             d="m 279.5,149.3 c -2,0.4 -4.9,0.6 -8.3,0.2 -1.7,-0.2 -3.5,-0.6 -5.4,-1.2 -1.9,-0.6 -3.9,-1.5 -5.8,-2.4 -2,-0.9 -4,-1.9 -6,-2.9 -2.1,-1 -4.1,-2.1 -6.1,-3.2 -2,-1.2 -4,-2.4 -5.9,-3.6 -1.9,-1.2 -3.8,-2.5 -5.5,-3.8 -3.4,-2.6 -6.6,-5.1 -9.1,-7.5 -2.5,-2.4 -4.4,-4.6 -5.6,-6.2 -1.2,-1.6 -1.7,-2.7 -1.7,-2.7 0,0 0.1,0.3 0.4,0.7 0.3,0.4 0.8,1 1.4,1.8 0.6,0.8 1.4,1.7 2.4,2.7 1,1 2.1,2.1 3.4,3.2 1.3,1.1 2.7,2.3 4.3,3.5 1.5,1.2 3.2,2.4 4.9,3.7 3.5,2.4 7.4,5 11.3,7.3 2,1.1 4,2.2 6,3.3 2,1.1 4,2.1 5.9,3.1 1.8,1 3.7,1.8 5.6,2.5 1.9,0.6 3.7,1.1 5.4,1.3 1.7,0.2 3.3,0.3 4.7,0.3 1.4,0 2.6,-0.1 3.6,-0.3 2,-0.3 3.1,-0.7 3.1,-0.7 0,0 -1.1,0.4 -3,0.9 z"
             id="ID0.32890068320557475" />
          <path
             d="m 287.2,145.3 c 0.2,-0.4 0.6,-1.1 0.6,-2 0,-0.9 -0.3,-2 -1,-3 -0.7,-1 -1.7,-2 -2.9,-3 -0.6,-0.5 -1.3,-0.9 -1.9,-1.5 -0.7,-0.5 -1.3,-1.1 -2,-1.7 -1.3,-1.2 -2.7,-2.5 -4.1,-3.8 -1.4,-1.4 -2.8,-2.8 -4.4,-4.1 -1.6,-1.3 -3.2,-2.6 -4.9,-3.8 -1.7,-1.2 -3.4,-2.5 -4.9,-3.9 -1.5,-1.4 -2.9,-2.9 -3.9,-4.7 -0.5,-0.9 -0.9,-1.8 -1.2,-2.7 -0.4,-0.9 -0.6,-1.8 -0.8,-2.7 -0.5,-1.7 -0.8,-3.4 -1.1,-4.9 -0.6,-3.1 -1,-5.6 -1.4,-7.4 -0.5,-1.8 -0.7,-2.8 -0.7,-2.8 0,0 0.1,0.2 0.3,0.7 0.2,0.5 0.4,1.1 0.7,2 0.3,0.9 0.6,2 0.9,3.2 0.3,1.3 0.6,2.7 0.9,4.2 0.3,1.6 0.7,3.2 1.2,4.9 0.5,1.7 1,3.5 2,5.1 1,1.6 2.2,3.1 3.7,4.5 1.4,1.3 3.1,2.6 4.7,3.9 1.7,1.3 3.3,2.6 4.8,4 1.5,1.4 2.9,2.8 4.3,4.2 1.3,1.4 2.7,2.7 4,3.9 0.6,0.6 1.3,1.2 1.9,1.7 0.6,0.5 1.3,1 1.9,1.5 1.2,1.1 2.2,2.1 2.9,3.2 0.7,1.1 1,2.2 0.9,3.1 -0.1,1 -0.4,1.6 -0.7,2 -0.3,0.4 -0.5,0.6 -0.5,0.6 0,0 0.2,-0.2 0.7,-0.7 z"
             id="ID0.687647448386997" />
        </g>
        <path
           d="m 277.3,148.5 c -0.5,-0.6 -1.3,-1.6 -0.2,-1.7 1.1,-0.1 2,2.4 2,3 0,0.4 -1.3,-0.7 -1.8,-1.3 z"
           id="path45"
           fill="#6c5f57" />
        <path
           d="m 283,147.9 c -0.5,-0.6 -1.3,-1.7 -0.2,-1.7 1.1,-0.1 2,2.4 2,3 0,0.4 -1.3,-0.7 -1.8,-1.3 z"
           id="path47"
           fill="#6c5f57" />
        <path
           d="m 286.2,145.2 c -0.5,-0.6 -1.3,-1.6 -0.2,-1.7 1.1,-0.1 2,2.4 2,3 0,0.4 -1.2,-0.6 -1.8,-1.3 z"
           id="path49"
           fill="#6c5f57" />
      </g>
      <g
         data-paper-data="{&quot;origPos&quot;:null}"
         id="g63">
        <path
           d="m 233.9,55.2 c 13,11.1 12.5,45 12.5,45 21.9,58.4 -15.2,99.8 -37.1,105.3 -23.3,5.8 -53.7,0 -58,-32.1 -6.6,-49.7 21.6,-94.9 21.6,-94.9 1.2,-14.6 7.9,-31.6 7.9,-31.6"
           data-paper-data="{&quot;origPos&quot;:null}"
           id="path53"
           class="mascot-fill" />
        <path
           d="m 156.6,117.7 c -0.6,2 -1.4,4.8 -2.2,8.3 -0.4,1.7 -0.8,3.6 -1.2,5.6 -0.4,2 -0.8,4.1 -1.1,6.3 -0.4,2.2 -0.7,4.5 -0.9,6.8 -0.2,2.3 -0.4,4.6 -0.5,7 -0.1,2.4 -0.2,4.8 -0.1,7.1 0.1,1.2 0.1,2.4 0.2,3.5 0.1,1.2 0.2,2.3 0.3,3.4 0.1,1.1 0.2,2.1 0.4,3.2 0.1,1.1 0.3,2.1 0.5,3.1 0.2,1 0.4,2 0.6,2.9 0.2,0.9 0.4,1.8 0.7,2.7 0.4,1.7 0.9,3.2 1.4,4.6 0.4,1.4 0.9,2.5 1.3,3.5 0.9,1.9 1.4,3 1.4,3 0,0 -0.6,-1 -1.5,-2.9 -0.4,-1 -1,-2.1 -1.5,-3.5 -0.3,-0.7 -0.5,-1.4 -0.8,-2.2 -0.3,-0.7 -0.5,-1.5 -0.8,-2.4 -0.2,-0.9 -0.5,-1.8 -0.7,-2.7 -0.3,-0.9 -0.5,-1.9 -0.7,-2.9 -0.2,-1 -0.5,-2 -0.6,-3.1 -0.1,-1.1 -0.3,-2.2 -0.4,-3.3 -0.1,-1.1 -0.2,-2.3 -0.3,-3.4 -0.1,-1.2 -0.2,-2.3 -0.2,-3.5 -0.1,-2.3 -0.1,-4.7 0,-7.1 0.1,-2.4 0.2,-4.8 0.5,-7.1 0.2,-2.3 0.5,-4.6 0.9,-6.8 0.7,-4.4 1.6,-8.4 2.5,-11.9 1.8,-6.9 3.6,-11.3 3.6,-11.3 0,0 -0.4,1.1 -0.8,3.1 z"
           data-paper-data="{&quot;origPos&quot;:null}"
           id="path55"
           fill="#59402f" />
        <path
           d="m 251.6,119.3 c 0.7,3.6 1.3,7.9 1.6,12.5 0.3,4.6 0.3,9.6 -0.3,14.5 -0.3,2.5 -0.7,4.9 -1.3,7.3 -0.3,1.2 -0.6,2.4 -1,3.5 -0.3,1.1 -0.7,2.2 -1.1,3.3 -0.4,1.1 -0.8,2.2 -1.2,3.2 -0.4,1 -0.8,2 -1.2,3 -0.9,1.9 -1.8,3.7 -2.6,5.4 -0.9,1.6 -1.7,3.1 -2.5,4.4 -0.7,1.3 -1.5,2.4 -2.1,3.3 -1.3,1.8 -2.1,2.7 -2.1,2.7 0,0 0.7,-1 1.9,-2.8 0.6,-0.9 1.3,-2 2,-3.3 0.8,-1.3 1.6,-2.8 2.4,-4.4 0.8,-1.6 1.6,-3.4 2.4,-5.4 0.8,-1.9 1.6,-4 2.3,-6.2 0.4,-1 0.8,-2.2 1.1,-3.3 0.4,-1.1 0.7,-2.2 1,-3.4 0.6,-2.4 1,-4.8 1.3,-7.2 0.6,-4.9 0.7,-9.8 0.4,-14.4 -0.2,-4.6 -0.8,-8.9 -1.4,-12.5 -1.2,-7.3 -2.7,-12 -2.7,-12 0,0 1.6,4.7 3.1,11.8 z"
           data-paper-data="{&quot;origPos&quot;:null}"
           id="path57"
           fill="#59402f" />
        <path
           d="m 216.2,202.9 c -1.5,0.6 -3.7,1.5 -6.5,2.3 -1.4,0.4 -2.9,0.8 -4.5,1.1 -1.6,0.3 -3.3,0.6 -5.1,0.8 -1.8,0.2 -3.6,0.3 -5.5,0.3 -1.9,0.1 -3.8,0 -5.7,-0.2 -1,-0.1 -2,-0.3 -2.9,-0.4 -0.9,-0.2 -1.9,-0.4 -2.8,-0.6 -1.8,-0.4 -3.6,-0.9 -5.3,-1.5 -1.7,-0.6 -3.3,-1.3 -4.8,-2 -0.7,-0.4 -1.4,-0.7 -2.1,-1.1 -0.6,-0.3 -1.3,-0.7 -1.9,-1.1 -1.2,-0.7 -2.3,-1.5 -3.2,-2.2 -0.9,-0.7 -1.7,-1.3 -2.3,-1.9 -1.3,-1.2 -2,-1.8 -2,-1.8 0,0 0.7,0.6 2,1.7 0.6,0.5 1.5,1.1 2.4,1.8 0.4,0.3 1,0.6 1.5,1 0.5,0.3 1.1,0.8 1.7,1.1 0.6,0.4 1.2,0.7 1.9,1.1 0.6,0.4 1.4,0.7 2.1,1.1 1.4,0.7 3,1.3 4.7,1.9 1.7,0.6 3.5,1.1 5.3,1.5 0.9,0.2 1.9,0.3 2.8,0.5 0.9,0.1 1.9,0.2 2.8,0.3 1.8,0.2 3.7,0.3 5.6,0.3 1.9,0 3.7,-0.1 5.5,-0.3 3.6,-0.4 6.8,-1 9.6,-1.7 2.8,-0.8 5,-1.5 6.6,-2.1 1.5,-0.6 2.4,-1 2.4,-1 0,0 -0.8,0.5 -2.3,1.1 z"
           data-paper-data="{&quot;origPos&quot;:null}"
           id="path59"
           fill="#59402f" />
        <path
           d="m 238,58.9 c 0.5,0.7 1.2,1.8 1.9,3.2 0.4,0.7 0.8,1.5 1.1,2.3 0.3,0.8 0.7,1.7 1,2.6 0.3,0.9 0.6,1.8 0.9,2.8 0.3,1 0.6,2 0.8,3 0.2,1 0.4,2 0.6,3 0.2,1 0.4,1.9 0.5,2.9 0.1,1 0.2,1.9 0.3,2.8 0.1,0.9 0.1,1.7 0.2,2.5 0.1,1.5 0.1,2.8 0.1,3.7 0,0.9 0,1.4 0,1.4 0,0 0,-0.5 -0.1,-1.4 -0.1,-0.9 -0.2,-2.2 -0.4,-3.7 -0.1,-0.8 -0.2,-1.6 -0.3,-2.5 -0.1,-0.8 -0.2,-1.8 -0.4,-2.7 -0.1,-1 -0.3,-1.9 -0.5,-2.9 -0.2,-1 -0.5,-2 -0.7,-3 -0.2,-1 -0.6,-1.9 -0.8,-2.9 -0.3,-1 -0.6,-1.9 -0.9,-2.8 -0.4,-0.9 -0.7,-1.8 -1,-2.6 -0.3,-0.8 -0.7,-1.6 -1,-2.3 -0.7,-1.4 -1.2,-2.5 -1.7,-3.3 -0.5,-0.8 -0.8,-1.2 -0.8,-1.2 0,0 0.4,0.4 1.2,1.1 z"
           data-paper-data="{&quot;origPos&quot;:null}"
           id="path61"
           fill="#59402f" />
      </g>
      <g
         id="g77">
        <path
           d="m 222,74.7 c 0,0 7.2,5.3 8.1,8.7 l -2.9,-1.2 c 0,0 5.3,5 5.2,9.4 l -2,-1.7 c 0,0 5.3,6.3 2.8,12.4 l -1.2,-2.2 c 0,0 -1.6,7.9 0.6,10.1 l -2.1,-0.5 c 0,0 -0.5,8.3 -3.7,9"
           id="path65"
           class="mascot-fill" />
        <path
           d="m 224.1,76.1 c 0.9,0.6 2,1.5 3,2.5 0.5,0.5 1,1.1 1.4,1.6 0.2,0.3 0.3,0.5 0.5,0.8 0.2,0.3 0.3,0.6 0.4,0.8 0.2,0.3 0.2,0.5 0.3,0.7 0.1,0.2 0.2,0.3 0.2,0.5 0.1,0.3 0.1,0.5 0.1,0.5 0,0 -0.1,-0.1 -0.2,-0.4 -0.1,-0.2 -0.2,-0.3 -0.3,-0.5 -0.1,-0.2 -0.2,-0.4 -0.4,-0.6 -0.6,-0.9 -1.5,-1.9 -2.5,-2.9 -0.9,-1 -1.9,-2 -2.7,-2.7 -0.8,-0.7 -1.3,-1.2 -1.3,-1.2 0,0 0.6,0.4 1.5,0.9 z"
           id="path67"
           fill="#59402f" />
        <path
           d="m 228.3,83.4 c 0.7,0.8 1.6,1.8 2.3,2.9 0.4,0.5 0.7,1.1 1,1.7 0.3,0.5 0.5,1.1 0.6,1.6 0.1,0.3 0.1,0.5 0.1,0.7 0,0.2 0,0.4 0,0.5 -0.1,0.3 -0.1,0.5 -0.1,0.5 0,0 0,-0.2 0,-0.5 0,-0.1 -0.1,-0.3 -0.1,-0.5 0,-0.2 -0.1,-0.4 -0.2,-0.6 -0.1,-0.5 -0.4,-1 -0.7,-1.5 -0.3,-0.5 -0.6,-1.1 -1,-1.6 -0.7,-1.1 -1.4,-2.2 -2,-3 -0.5,-0.9 -0.9,-1.4 -0.9,-1.4 0,0 0.5,0.4 1,1.2 z"
           id="path69"
           fill="#59402f" />
        <path
           d="m 231.7,91.7 c 0.4,0.6 0.8,1.2 1.1,1.9 0.4,0.7 0.7,1.5 0.9,2.3 0.1,0.4 0.2,0.8 0.3,1.2 0,0.4 0.1,0.8 0.1,1.2 0,0.4 0.1,0.8 0,1.2 0,0.3 0,0.7 -0.1,1 -0.1,0.3 -0.1,0.5 -0.2,0.8 -0.1,0.2 -0.2,0.4 -0.3,0.6 -0.1,0.3 -0.2,0.5 -0.2,0.5 0,0 0,-0.2 0.1,-0.6 0,-0.1 0,-0.4 0.1,-0.6 0,-0.2 0.1,-0.5 0.1,-0.8 0,-0.3 0,-0.7 0,-1 0,-0.4 -0.1,-0.7 -0.1,-1.1 0,-0.4 -0.1,-0.8 -0.2,-1.2 -0.1,-0.4 -0.2,-0.8 -0.3,-1.2 -0.4,-1.6 -1.1,-3.1 -1.7,-4.2 -0.5,-1.1 -1,-1.8 -1,-1.8 0,0 0.6,0.5 1.4,1.8 z"
           id="path71"
           fill="#59402f" />
        <path
           d="m 231.9,101.8 c 0,0.4 -0.1,1 -0.1,1.6 -0.1,0.6 -0.1,1.3 -0.1,1.9 0,0.7 0,1.3 0.1,1.9 0,0.2 0.1,0.5 0.1,0.8 0.1,0.3 0.2,0.6 0.2,0.8 0.1,0.2 0.1,0.4 0.2,0.6 0.1,0.2 0.2,0.4 0.2,0.5 0.1,0.2 0.2,0.4 0.2,0.4 0,0 -0.1,-0.2 -0.3,-0.4 -0.1,-0.1 -0.2,-0.2 -0.3,-0.4 -0.1,-0.2 -0.2,-0.4 -0.3,-0.6 -0.2,-0.4 -0.4,-1 -0.5,-1.6 -0.1,-0.6 -0.2,-1.2 -0.2,-1.9 0,-0.6 0,-1.3 0.1,-1.9 0.1,-0.7 0.2,-1.2 0.3,-1.7 0.2,-1 0.5,-1.6 0.5,-1.6 0,0 -0.1,0.7 -0.1,1.6 z"
           id="path73"
           fill="#59402f" />
        <path
           d="m 230.6,111.7 c 0,0.5 -0.1,1.1 -0.2,1.7 -0.1,0.6 -0.3,1.3 -0.5,1.9 -0.2,0.6 -0.5,1.2 -0.8,1.8 -0.3,0.5 -0.7,1 -1,1.4 -0.2,0.2 -0.4,0.4 -0.5,0.5 -0.1,0.1 -0.3,0.2 -0.4,0.3 -0.3,0.2 -0.4,0.3 -0.4,0.3 0,0 0.1,-0.2 0.3,-0.4 0.1,-0.1 0.2,-0.2 0.3,-0.4 0.1,-0.2 0.3,-0.4 0.4,-0.6 0.1,-0.2 0.3,-0.5 0.4,-0.7 0.1,-0.3 0.3,-0.5 0.4,-0.8 0.3,-0.6 0.5,-1.2 0.7,-1.8 0.2,-0.6 0.4,-1.2 0.5,-1.8 0.2,-0.6 0.3,-1.1 0.4,-1.6 0.2,-0.9 0.3,-1.6 0.3,-1.6 0,0 0.1,0.6 0.1,1.8 z"
           id="path75"
           fill="#59402f" />
      </g>
      <g
         id="g102">
        <path
           d="m 195.1,183.1 c 0,0 1.9,22.1 -14.5,45.4 -8.2,11.6 -10,20.7 -8.5,23.2 1.5,2.5 6.6,4.6 5.2,6 -1.5,1.4 -19.8,2.3 -23.8,0.1 -1.7,-0.9 -5,-27.9 -2.9,-39.6 2,-11.7 4.1,-15.5 3.7,-24.1 -0.4,-8.6 -4.9,-23.5 -1.4,-30 3.4,-6.5 13.2,-17 28.1,-10.2 14.9,6.8 14.7,23.4 14.1,29.2 z"
           id="path79"
           class="mascot-fill" />
        <path
           d="m 169.3,258 c -0.3,-0.4 -0.6,-0.9 -1,-1.3 -0.3,-0.4 -0.7,-0.9 -1,-1.2 -0.2,-0.2 -0.3,-0.3 -0.4,-0.4 -0.1,-0.1 -0.1,-0.2 -0.1,-0.2 0,0 0.3,0.1 0.7,0.3 0.4,0.2 0.9,0.6 1.3,1.1 0.4,0.5 0.7,1 0.8,1.5 0.1,0.5 0.1,0.8 0.1,0.8 0,0 -0.1,-0.3 -0.4,-0.6 z"
           id="path81"
           fill="#59402f" />
        <path
           d="m 174.4,257.6 c -0.3,-0.4 -0.7,-0.9 -1.2,-1.4 -0.5,-0.5 -1,-1 -1.4,-1.3 -0.2,-0.2 -0.4,-0.3 -0.5,-0.4 -0.1,-0.1 -0.2,-0.2 -0.2,-0.2 0,0 0,0 0.2,0 0.1,0 0.3,0.1 0.6,0.2 0.2,0.1 0.5,0.2 0.8,0.4 0.3,0.2 0.5,0.4 0.8,0.7 0.5,0.6 0.9,1.2 1.1,1.7 0.3,0.5 0.3,0.9 0.3,0.9 0,0 -0.2,-0.3 -0.5,-0.6 z"
           id="path83"
           fill="#59402f" />
        <path
           d="m 167.1,258.7 c -0.6,-0.6 -1.3,-1.6 -0.3,-1.7 1.1,-0.1 2.1,2.3 2.1,2.9 0.1,0.4 -1.2,-0.6 -1.8,-1.2 z"
           id="path85"
           fill="#6c5f57" />
        <path
           d="m 172.2,257.9 c -0.6,-0.6 -1.3,-1.6 -0.3,-1.7 1.1,-0.1 2.1,2.3 2.1,2.9 0.1,0.4 -1.2,-0.6 -1.8,-1.2 z"
           id="path87"
           fill="#6c5f57" />
        <path
           d="m 175.4,257.5 c -0.6,-0.6 -1.3,-1.6 -0.3,-1.7 1.1,-0.1 2.1,2.3 2.1,2.9 0.1,0.3 -1.2,-0.6 -1.8,-1.2 z"
           id="path89"
           fill="#6c5f57" />
        <g
           id="g96">
          <path
             d="m 151.1,228.6 c -4.4,-2.8 -2.2,-9.2 -2.2,-9.2 l -2.2,3.3 c -1,-4 1.9,-10.4 1.9,-10.4 l -2.6,1.3 c 0.4,-4.2 4.2,-6.5 4.2,-6.5 -1.5,1.7 -3.8,0.3 -3.8,0.3 2.2,-0.2 8.1,-10.6 8.1,-10.6"
             id="ID0.6276099039241672"
             class="mascot-fill" />
          <path
             d="m 147,207.1 c 0.2,-0.2 0.6,-0.5 0.9,-0.9 0.7,-0.7 1.5,-1.9 2.3,-3 0.8,-1.1 1.6,-2.2 2.2,-3.1 0.7,-0.8 1.1,-1.4 1.1,-1.4 0,0 -0.2,0.6 -0.7,1.6 -0.3,0.5 -0.6,1 -0.9,1.6 -0.3,0.5 -0.7,1.1 -1.1,1.7 -0.8,1.1 -1.8,2.2 -2.6,2.9 -0.4,0.3 -0.8,0.6 -1.1,0.7 -0.3,0.1 -0.5,0.1 -0.5,0.1 0,0 0.2,-0.1 0.4,-0.2 z"
             id="ID0.05894712172448635"
             fill="#59402f" />
          <path
             d="m 146.2,212.6 c 0,-0.3 0.1,-0.7 0.2,-1.1 0.1,-0.4 0.3,-0.8 0.5,-1.2 0.2,-0.4 0.4,-0.8 0.7,-1.1 0.2,-0.4 0.5,-0.6 0.8,-0.8 0.3,-0.2 0.5,-0.3 0.7,-0.4 0.2,-0.1 0.3,-0.1 0.3,-0.1 0,0 -0.1,0.1 -0.2,0.2 -0.1,0.2 -0.3,0.4 -0.5,0.6 -0.2,0.2 -0.4,0.5 -0.6,0.8 -0.2,0.3 -0.4,0.6 -0.6,1 -0.4,0.7 -0.7,1.4 -0.9,2 -0.3,0.6 -0.4,1 -0.4,1 0,0 -0.1,-0.4 0,-0.9 z"
             id="ID0.33057771855965257"
             fill="#59402f" />
          <path
             d="m 146.5,221.7 c -0.1,-0.2 -0.2,-0.6 -0.3,-1.1 -0.1,-0.5 -0.1,-1.1 -0.1,-1.7 0,-0.6 0.2,-1.3 0.3,-1.9 0.2,-0.6 0.4,-1.2 0.6,-1.8 0.2,-0.6 0.5,-1.1 0.7,-1.5 0.2,-0.4 0.5,-0.8 0.6,-1 0.1,-0.3 0.2,-0.4 0.2,-0.4 0,0 0,0.1 -0.1,0.4 0,0.3 -0.2,0.6 -0.3,1.1 -0.2,0.5 -0.3,1 -0.5,1.6 -0.2,0.6 -0.4,1.2 -0.5,1.8 -0.1,0.6 -0.2,1.2 -0.3,1.8 -0.1,0.6 -0.1,1.1 -0.1,1.6 -0.1,1 0.1,1.6 0.1,1.6 0,0 -0.1,-0.2 -0.3,-0.5 z"
             id="ID0.009691714774817228"
             fill="#59402f" />
          <path
             d="m 149.5,227.5 c -0.1,-0.2 -0.4,-0.4 -0.6,-0.8 -0.2,-0.4 -0.4,-0.8 -0.5,-1.3 -0.1,-0.5 -0.2,-1.1 -0.2,-1.6 0,-0.3 0,-0.5 0,-0.8 0,-0.3 0.1,-0.6 0.1,-0.8 0,-0.5 0.1,-0.9 0.2,-1.3 0.2,-0.8 0.4,-1.3 0.4,-1.3 0,0 0,0.5 0,1.3 0,0.8 0,1.8 0,2.8 0,1 0.2,2 0.4,2.7 0.1,0.3 0.3,0.6 0.4,0.8 0.1,0.2 0.2,0.3 0.2,0.3 0,0 -0.1,-0.1 -0.4,0 z"
             id="ID0.06640257779508829"
             fill="#59402f" />
        </g>
        <path
           d="m 150,228.6 c 0.2,1.8 0.3,3.9 0.4,6.2 0.2,2.3 0.3,4.7 0.5,7.1 0.1,2.4 0.3,4.8 0.6,7 0.2,2.3 0.5,4.3 0.9,6.1 0.2,0.8 0.4,1.6 0.7,2.3 0,0.2 0.1,0.4 0.2,0.5 l 0.1,0.2 c 0.1,0 0.1,0.1 0.2,0.1 0.3,0.1 0.6,0.2 0.8,0.3 1,0.3 1.6,0.4 1.6,0.4 0,0 -0.6,0 -1.6,-0.3 -0.2,-0.1 -0.5,-0.2 -0.8,-0.3 -0.1,-0.1 -0.1,-0.1 -0.2,-0.2 l -0.1,-0.2 c -0.1,-0.2 -0.2,-0.3 -0.3,-0.5 -0.3,-0.7 -0.6,-1.5 -0.8,-2.4 -0.4,-1.8 -0.8,-3.9 -1.1,-6.1 -0.3,-2.3 -0.5,-4.7 -0.7,-7.1 -0.2,-2.4 -0.3,-4.8 -0.4,-7.1 -0.1,-2.3 -0.2,-4.4 -0.2,-6.2 -0.1,-3.6 0,-6 0,-6 0,0 0.1,2.4 0.2,6.2 z"
           id="path98"
           fill="#59402f" />
        <path
           d="m 194.5,196 c -0.4,1.8 -1,4.4 -1.9,7.4 -0.5,1.5 -1,3.2 -1.5,4.9 -0.6,1.7 -1.2,3.6 -1.9,5.4 -0.7,1.9 -1.5,3.8 -2.5,5.6 -0.5,1 -1.1,1.9 -1.7,2.7 -0.6,0.8 -1.2,1.7 -1.7,2.6 -2.2,3.6 -4.3,7.2 -6.1,10.7 -1.7,3.5 -3.4,6.8 -4.5,9.7 -0.3,0.7 -0.4,1.4 -0.6,2.1 -0.2,0.7 -0.3,1.4 -0.4,2 -0.1,0.6 -0.1,1.2 0.1,1.7 0.2,0.5 0.5,1 0.8,1.3 0.6,0.7 1.1,1.2 1.5,1.5 0.4,0.3 0.6,0.5 0.6,0.5 0,0 -0.2,-0.1 -0.6,-0.4 -0.3,-0.3 -1,-0.7 -1.6,-1.4 -0.3,-0.4 -0.7,-0.8 -0.9,-1.3 -0.3,-0.5 -0.3,-1.1 -0.3,-1.8 0,-0.6 0.2,-1.3 0.3,-2 0.2,-0.7 0.3,-1.5 0.6,-2.2 0.5,-1.5 1.2,-3.1 1.9,-4.8 0.7,-1.7 1.5,-3.4 2.4,-5.2 1.8,-3.5 3.8,-7.2 6,-10.8 0.6,-0.8 1.2,-1.7 1.8,-2.6 0.6,-0.9 1.2,-1.7 1.7,-2.6 1,-1.7 1.7,-3.6 2.5,-5.4 1.5,-3.6 2.7,-7.1 3.6,-10.1 0.9,-3 1.7,-5.5 2.2,-7.3 0.5,-1.8 0.8,-2.8 0.8,-2.8 0,0 -0.2,1 -0.6,2.6 z"
           id="path100"
           fill="#59402f" />
      </g>
      <path
         d="m 178.5,53.7 c -0.5,1.7 -1.2,4 -1.9,6.2 -0.3,1.1 -0.7,2.2 -1,3.3 -0.3,1.1 -0.6,2 -0.8,2.9 -0.1,0.5 -0.2,0.9 -0.3,1.2 -0.1,0.3 -0.2,0.6 -0.2,0.9 -0.1,0.5 -0.1,0.8 -0.1,0.8 0,0 0,-0.3 0,-0.8 0.1,-0.5 0.1,-1.2 0.3,-2.1 0.1,-0.9 0.3,-1.9 0.6,-3 0.3,-1 0.7,-2.2 1,-3.3 0.4,-1.1 0.7,-2.3 1.1,-3.3 0.4,-1 0.8,-2 1.1,-2.8 0.7,-1.6 1.2,-2.7 1.2,-2.7 0,0 -0.3,1.2 -1,2.7 z"
         id="path104"
         fill="#59402f" />
      <g
         id="g125">
        <g
           id="g121">
          <g
             id="ID0.014871589373797178"
             class="mascot-fill">
            <path
               d="m 198.8,82.1 c -0.2,20 -3.4,24.8 -3.1,30.8 0.3,6 9.2,18.5 13,26.5 2.4,5 4.3,8.7 5.5,11.6 1.2,2.9 -3.3,9.9 -19.2,2.2 -5.1,-2.5 -34.7,-32.9 -37,-54.3 2,-44.4 41.2,-44.8 40.8,-16.8 z"
               id="ID0.397368922829628" />
            <path
               d="m 160.9,110.6 c -4.7,-2.5 -3,-9 -3,-9 L 156,105 c -1.2,-3.9 1.1,-10.5 1.1,-10.5 l -2.5,1.5 c 0,-4.2 3.6,-6.8 3.6,-6.8 -1.3,1.8 -3.7,0.6 -3.7,0.6 2.2,-0.3 8.4,-11.9 8.4,-11.9"
               id="ID0.20622257702052593" />
          </g>
          <path
             d="m 155,89.5 c 0.3,-0.2 0.6,-0.6 1,-1 0.7,-0.9 1.7,-2.2 2.5,-3.5 0.9,-1.3 1.7,-2.7 2.3,-3.7 0.7,-1 1.1,-1.7 1.1,-1.7 0,0 -0.1,0.2 -0.2,0.5 -0.1,0.3 -0.3,0.8 -0.5,1.3 -0.3,0.5 -0.5,1.1 -0.9,1.8 -0.2,0.3 -0.4,0.7 -0.6,1 -0.2,0.3 -0.4,0.7 -0.6,1 -0.9,1.3 -1.9,2.6 -2.8,3.4 -0.5,0.4 -0.9,0.7 -1.2,0.9 -0.3,0.1 -0.5,0.2 -0.5,0.2 0,0 0.2,-0.1 0.4,-0.2 z"
             id="ID0.29099849378690124"
             fill="#59402f" />
          <path
             d="m 154.6,94.7 c 0,-0.3 0,-0.7 0.1,-1.1 0.1,-0.4 0.2,-0.8 0.4,-1.2 0.2,-0.4 0.4,-0.8 0.6,-1.1 0.3,-0.3 0.6,-0.6 0.8,-0.8 0.2,-0.2 0.4,-0.3 0.6,-0.4 0.2,-0.1 0.3,-0.1 0.3,-0.1 0,0 -0.1,0.1 -0.2,0.2 -0.2,0.1 -0.3,0.4 -0.5,0.6 -0.1,0.3 -0.3,0.6 -0.5,0.9 -0.2,0.4 -0.3,0.7 -0.5,1.1 -0.3,0.7 -0.5,1.5 -0.7,2.1 -0.2,0.6 -0.3,1 -0.3,1 0,0 -0.1,-0.4 -0.1,-1.2 z"
             id="ID0.7462669094093144"
             fill="#59402f" />
          <path
             d="m 155.7,104.3 c -0.1,-0.2 -0.3,-0.6 -0.4,-1.1 -0.1,-0.5 -0.2,-1.1 -0.2,-1.7 0,-0.6 0,-1.3 0.1,-1.9 0.1,-0.7 0.2,-1.3 0.4,-1.9 0.1,-0.6 0.3,-1.1 0.5,-1.6 0.2,-0.5 0.4,-0.8 0.5,-1.1 0.1,-0.3 0.2,-0.4 0.2,-0.4 0,0 0,0.1 -0.1,0.4 0,0.2 -0.1,0.6 -0.2,1.1 -0.1,0.5 -0.2,1 -0.3,1.6 -0.1,0.6 -0.2,1.2 -0.3,1.8 -0.1,0.6 -0.2,1.2 -0.2,1.8 0,0.6 0,1.1 0,1.6 0.1,1 0.3,1.6 0.3,1.6 0,0 -0.1,-0.1 -0.3,-0.2 z"
             id="ID0.5879189725965261"
             fill="#59402f" />
          <path
             d="m 160.1,110.2 c -0.2,-0.1 -0.6,-0.3 -0.9,-0.6 -0.2,-0.2 -0.3,-0.4 -0.5,-0.6 -0.1,-0.2 -0.3,-0.4 -0.4,-0.7 -0.3,-0.5 -0.5,-1.1 -0.6,-1.7 0,-0.3 -0.1,-0.6 -0.1,-0.9 0,-0.3 0,-0.6 0,-0.9 0,-0.5 0.1,-1.1 0.1,-1.5 0.1,-0.5 0.2,-0.8 0.2,-1.1 0.1,-0.3 0.1,-0.4 0.1,-0.4 0,0 0,0.1 0,0.4 0,0.3 0,0.7 0,1.1 0,0.4 0,1 0.1,1.5 0,0.2 0.1,0.5 0.1,0.8 0,0.2 0,0.5 0.1,0.8 0.1,0.6 0.3,1.1 0.5,1.6 0.2,0.5 0.4,1 0.7,1.3 0.5,0.7 1,1 1,1 0,0 -0.1,0 -0.4,-0.1 z"
             id="ID0.024006353225558996"
             fill="#59402f" />
          <path
             d="m 205.9,155.7 c -0.1,-0.4 -0.2,-1 -0.4,-1.5 -0.2,-0.5 -0.4,-1.1 -0.5,-1.5 -0.1,-0.2 -0.2,-0.4 -0.2,-0.5 -0.1,-0.1 -0.1,-0.2 -0.1,-0.2 0,0 0.3,0.2 0.6,0.6 0.3,0.3 0.6,0.9 0.8,1.5 0.2,0.6 0.3,1.2 0.2,1.7 -0.1,0.5 -0.2,0.8 -0.2,0.8 0,0 -0.1,-0.3 -0.2,-0.9 z"
             id="ID0.2638413533568382"
             fill="#59402f" />
          <path
             d="m 210.1,155.4 c -0.1,-0.5 -0.3,-1.2 -0.6,-1.8 -0.2,-0.6 -0.5,-1.2 -0.8,-1.7 -0.1,-0.3 -0.2,-0.5 -0.3,-0.6 -0.1,-0.1 -0.1,-0.2 -0.1,-0.2 0,0 0.1,0 0.2,0.1 0.1,0.1 0.3,0.2 0.5,0.4 0.2,0.2 0.4,0.4 0.6,0.7 0.2,0.2 0.4,0.6 0.5,0.9 0.3,0.6 0.4,1.4 0.4,1.9 0,0.5 -0.1,0.9 -0.1,0.9 0,0 -0.1,-0.3 -0.3,-0.6 z"
             id="ID0.1352508100681007"
             fill="#59402f" />
          <g
             id="ID0.9605620335787535"
             fill="#59402f">
            <path
               d="m 204.1,156.3 c -2,-0.3 -4.8,-1.1 -7.9,-2.7 -1.5,-0.8 -3.1,-1.8 -4.7,-3 -1.6,-1.2 -3.1,-2.7 -4.6,-4.2 -1.5,-1.6 -3.1,-3.1 -4.6,-4.8 -1.6,-1.6 -3.1,-3.3 -4.6,-5.1 -1.5,-1.8 -2.9,-3.6 -4.3,-5.4 -1.4,-1.9 -2.6,-3.7 -3.8,-5.5 -2.4,-3.6 -4.5,-7.1 -6,-10.2 -1.6,-3.1 -2.6,-5.9 -3.1,-7.8 -0.6,-1.9 -0.7,-3.1 -0.7,-3.1 0,0 0.1,0.3 0.2,0.8 0.1,0.5 0.4,1.3 0.7,2.2 0.4,0.9 0.8,2 1.4,3.3 0.6,1.3 1.3,2.7 2.1,4.2 0.8,1.5 1.7,3.1 2.8,4.8 1.1,1.7 2.2,3.4 3.4,5.2 2.4,3.6 5.1,7.3 8,10.8 1.4,1.8 2.9,3.5 4.4,5.2 1.5,1.7 3,3.3 4.4,4.9 1.4,1.6 2.9,3 4.4,4.3 1.6,1.2 3.1,2.3 4.6,3.1 1.5,0.8 3,1.5 4.3,1.9 1.3,0.5 2.5,0.8 3.5,1 1.9,0.4 3.1,0.4 3.1,0.4 0,0 -1.2,0.1 -3,-0.3 z"
               id="ID0.030585989821702242" />
            <path
               d="m 212.4,155.5 c 0.4,-0.3 1,-0.8 1.3,-1.6 0.3,-0.8 0.4,-2 0.1,-3.2 -0.3,-1.3 -0.9,-2.6 -1.7,-3.9 -0.4,-0.7 -0.9,-1.4 -1.3,-2.1 -0.5,-0.7 -0.9,-1.5 -1.3,-2.3 -0.8,-1.6 -1.6,-3.3 -2.5,-5 -0.9,-1.7 -1.7,-3.5 -2.7,-5.3 -1,-1.7 -2.2,-3.5 -3.3,-5.2 -1.1,-1.8 -2.3,-3.6 -3.2,-5.4 -0.9,-1.9 -1.7,-3.8 -2,-5.8 -0.1,-0.9 -0.2,-1.9 -0.2,-2.9 0,-1 0.1,-1.9 0.2,-2.8 0.2,-1.8 0.4,-3.5 0.7,-5 0.6,-3.1 1.1,-5.6 1.3,-7.4 0.2,-1.8 0.3,-2.8 0.3,-2.8 0,0 0,0.2 0,0.7 0,0.5 -0.1,1.2 -0.1,2.1 -0.1,0.9 -0.2,2 -0.3,3.3 -0.2,1.2 -0.4,2.7 -0.6,4.2 -0.2,1.6 -0.3,3.2 -0.5,5 -0.2,1.8 -0.3,3.6 0.1,5.5 0.3,1.8 1,3.7 1.9,5.5 0.9,1.8 2,3.5 3.1,5.3 1.1,1.8 2.2,3.6 3.1,5.4 0.9,1.8 1.8,3.6 2.6,5.4 0.9,1.7 1.7,3.4 2.5,5 0.4,0.8 0.8,1.6 1.2,2.3 0.4,0.7 0.8,1.4 1.2,2.1 0.8,1.4 1.3,2.7 1.6,4 0.3,1.3 0.2,2.5 -0.2,3.3 -0.3,0.8 -0.9,1.3 -1.3,1.6 -0.4,0.2 -0.7,0.3 -0.7,0.3 0,0 0.2,-0.1 0.7,-0.3 z"
               id="ID0.7345215296372771" />
          </g>
          <path
             d="m 202.2,155 c -0.3,-0.8 -0.6,-2 0.4,-1.7 1,0.3 1,3 0.8,3.5 -0.1,0.4 -1,-1 -1.2,-1.8 z"
             id="ID0.7181281433440745"
             fill="#6c5f57" />
          <path
             d="m 207.8,156.4 c -0.3,-0.8 -0.6,-2 0.4,-1.7 1,0.3 1,3 0.8,3.5 -0.1,0.4 -1,-1 -1.2,-1.8 z"
             id="ID0.618369004689157"
             fill="#6c5f57" />
          <path
             d="m 211.7,155 c -0.3,-0.8 -0.6,-2 0.4,-1.7 1,0.3 1,3 0.8,3.5 -0.1,0.4 -0.9,-1 -1.2,-1.8 z"
             id="ID0.9127552644349635"
             fill="#6c5f57" />
        </g>
        <path
           d="m 180.4,64 c -0.5,0.1 -1.2,0.2 -2,0.3 -0.4,0.1 -0.9,0.2 -1.3,0.3 -0.5,0.1 -0.9,0.3 -1.4,0.4 -0.5,0.2 -1,0.4 -1.5,0.6 -0.5,0.2 -0.9,0.4 -1.4,0.7 -0.5,0.2 -1,0.5 -1.4,0.8 -0.4,0.2 -0.8,0.6 -1.2,0.9 -0.4,0.3 -0.8,0.7 -1.1,1 -0.4,0.3 -0.6,0.7 -0.9,1 -0.3,0.4 -0.5,0.6 -0.7,0.9 -0.2,0.3 -0.4,0.5 -0.5,0.7 -0.2,0.4 -0.4,0.6 -0.4,0.6 0,0 0.1,-0.3 0.3,-0.7 0.1,-0.2 0.3,-0.5 0.4,-0.8 0.1,-0.4 0.4,-0.7 0.6,-1 0.2,-0.4 0.5,-0.8 0.8,-1.1 0.3,-0.4 0.6,-0.8 1,-1.1 0.4,-0.3 0.7,-0.7 1.2,-1 0.4,-0.3 0.9,-0.6 1.4,-0.9 0.5,-0.3 1,-0.5 1.5,-0.7 0.5,-0.2 1,-0.3 1.5,-0.5 0.5,-0.1 1,-0.2 1.5,-0.3 0.4,-0.1 0.9,-0.2 1.3,-0.2 0.8,-0.1 1.5,0 2,0 0.5,0 0.8,0.1 0.8,0.1 0,0 -0.3,0 -0.5,0 z"
           id="path123"
           fill="#59402f" />
      </g>
      <g
         data-paper-data="{&quot;origPos&quot;:null}"
         id="g206">
        <g
           id="ID0.6102252728305757">
          <path
             d="m 195.6,60.83333 c -10.9,-0.9 -11.8,-6.7 -11.8,-6.7 l -0.3,3.1 c -6.2,-4.4 -6.2,-10.9 -6.2,-10.9 l -1.2,2.4 c -2.4,-4.5 -1.2,-9.6 -1.2,-9.6 l -1.4,2.4 c -1.7,-7.1 0.7,-9.2 0.7,-9.2 -0.8,1.3 -3.2,1.5 -3.2,1.5 2.9,-3.1 5.3,-11.8 5.3,-11.8"
             id="path127"
             class="mascot-fill" />
          <path
             d="m 247.2,22.03333 c 0,0 2.4,8.7 5.3,11.8 0,0 -2.4,-0.2 -3.2,-1.5 0,0 2.4,2.1 0.7,9.2 l -1.4,-2.4 c 0,0 1.2,5.1 -1.2,9.6 l -1.2,-2.4 c 0,0 0,6.5 -6.2,10.9 l -0.3,-3.1 c 0,0 -0.9,5.8 -11.8,6.7"
             id="path129"
             class="mascot-fill" />
          <path
             d="m 194.2,60.83333 c -11.1,-3.6 -27.9,-18.2 -15.7,-45.7 12.2,-27.5 38.2,-24 50,-18.6 8.9,4 16.8,19.3 19.3,27.5 2.5,8.2 1.1,26 -8.9,32.8 -11.4,7.7 -33.6,7.6 -44.7,4 z"
             id="path131"
             class="mascot-fill" />
          <path
             d="m 201.131,21.86633 c 0.29,0.452 0.469,1.077 0.469,1.767 0,0.69 -0.179,1.315 -0.469,1.767 -0.29,0.453 -0.69,0.733 -1.131,0.733 -0.441,0 -0.841,-0.28 -1.131,-0.733 -0.29,-0.452 -0.469,-1.077 -0.469,-1.767 0,-0.69 0.179,-1.315 0.469,-1.767 0.29,-0.453 0.69,-0.733 1.131,-0.733 0.441,0 0.841,0.28 1.131,0.733 z"
             id="Oval"
             fill="#332010" />
          <path
             d="m 225.431,21.86633 c 0.29,0.452 0.469,1.077 0.469,1.767 0,0.69 -0.179,1.315 -0.469,1.767 -0.29,0.453 -0.69,0.733 -1.131,0.733 -0.441,0 -0.841,-0.28 -1.131,-0.733 -0.29,-0.452 -0.469,-1.077 -0.469,-1.767 0,-0.69 0.179,-1.315 0.469,-1.767 0.29,-0.453 0.69,-0.733 1.131,-0.733 0.441,0 0.841,0.28 1.131,0.733 z"
             id="path134"
             fill="#332010" />
          <path
             d="m 222.1,53.23333 c 0,0 -6.1,7.6 -12.3,0.3 0,0 -6.4,-0.9 -6.4,-7 0,-6.1 3.2,-22.8 11.1,-22.5 5,0.2 12.3,13.4 12.3,21.3 0,7.9 -4.7,7.9 -4.7,7.9 z"
             id="path136"
             fill="#9e7b5c" />
          <path
             d="m 216.2,46.93333 c 0,0.5 0.1,1.2 0.1,1.9 0,0.7 0,1.4 -0.1,1.9 -0.1,0.6 -0.2,0.9 -0.2,0.9 0,0 -0.1,-0.4 -0.2,-0.9 0,-0.5 -0.1,-1.2 -0.1,-1.9 0,-0.7 0,-1.4 0.1,-1.9 0.1,-0.6 0.2,-0.9 0.2,-0.9 0,0 0.1,0.3 0.2,0.9 z"
             id="path138"
             fill="#59402f" />
          <path
             d="m 218.9,51.93333 c -0.8,-0.1 -1.9,-0.2 -3,-0.2 -1.1,0 -2.2,0.1 -3,0.2 -0.4,0.1 -0.8,0.1 -1,0.2 -0.3,0.1 -0.4,0.1 -0.4,0.1 0,0 0.1,-0.1 0.3,-0.2 0.3,-0.1 0.6,-0.3 1,-0.4 0.4,-0.1 0.9,-0.2 1.4,-0.3 0.5,-0.1 1.1,-0.1 1.7,-0.1 0.6,0.1 1.2,0.1 1.7,0.2 0.5,0.1 1,0.2 1.4,0.3 0.8,0.2 1.3,0.5 1.3,0.5 0,0 -0.6,-0.1 -1.4,-0.3 z"
             id="path140"
             fill="#59402f" />
          <path
             d="m 221.7,42.73333 c 0,1 -1.2,2.3 -2.1,2.3 -0.9,0 -1.2,2.4 -2.8,2.5 -2.8,0.1 -2.8,-1.7 -3.6,-2.4 -0.9,-0.7 -3.5,-0.1 -3.2,-2.5 0.3,-2.4 3.6,-2.7 5.8,-2.8 4.3,-0.2 5.8,2 5.9,2.9 z"
             id="path142"
             fill="#332721" />
          <path
             d="m 210.4,22.53333 c 0.2,-0.1 0.4,-0.3 0.7,-0.4 0.3,-0.1 0.7,-0.2 1.1,-0.3 0.4,-0.1 0.9,-0.1 1.3,-0.1 0.9,0 1.8,0.2 2.4,0.4 0.6,0.2 1,0.4 1,0.4 0,0 -0.4,0 -1.1,0 -0.6,-0.1 -1.5,-0.1 -2.3,-0.1 -0.9,0 -1.7,0.1 -2.3,0.2 -0.3,0.1 -0.6,0.1 -0.8,0.2 -0.2,0.1 -0.3,0.1 -0.3,0.1 0,0 0.1,-0.1 0.3,-0.4 z"
             id="path144"
             fill="#59402f" />
          <path
             d="m 215.5,21.13333 c -0.5,0 -1,0 -1.6,0 -0.6,0 -1.2,0 -1.6,0 -0.2,0 -0.4,0 -0.5,0 -0.1,0 -0.2,0 -0.2,0 0,0 0.3,-0.2 0.7,-0.4 0.4,-0.2 1,-0.3 1.6,-0.3 0.6,0 1.2,0.1 1.6,0.2 0.4,0.1 0.7,0.3 0.7,0.3 0,0 -0.3,0 -0.7,0.2 z"
             id="path146"
             fill="#59402f" />
          <path
             d="m 185.1,37.33333 c 0,1.3 0.1,2.5 0.2,3.4 0,0.4 0.1,0.8 0.1,1.1 0,0.2 0,0.4 0,0.4 0,0 -0.1,-0.1 -0.2,-0.4 -0.1,-0.3 -0.3,-0.6 -0.4,-1.1 -0.1,-0.2 -0.2,-0.4 -0.2,-0.7 0,-0.2 -0.1,-0.5 -0.1,-0.8 0,-0.3 -0.1,-0.6 -0.1,-0.9 0,-0.3 0,-0.6 0,-0.9 0,-1.2 0.2,-2.5 0.4,-3.4 0.2,-0.9 0.5,-1.5 0.5,-1.5 0,0 -0.3,2.5 -0.2,4.8 z"
             id="path148"
             fill="#59402f" />
          <path
             d="m 190.1,48.33333 c 0.2,0.3 0.4,0.7 0.7,1.1 0.3,0.4 0.6,0.8 0.9,1.2 0.7,0.8 1.4,1.6 2,2.1 0.3,0.2 0.5,0.5 0.7,0.6 0.2,0.2 0.3,0.3 0.3,0.3 0,0 -0.1,0 -0.3,-0.1 -0.2,-0.1 -0.6,-0.3 -0.9,-0.5 -0.3,-0.2 -0.7,-0.5 -1.1,-0.8 -0.4,-0.4 -0.8,-0.8 -1.1,-1.2 -0.7,-0.8 -1.2,-1.8 -1.5,-2.6 -0.3,-0.8 -0.3,-1.3 -0.3,-1.3 0,0 0.2,0.4 0.6,1.2 z"
             id="path150"
             fill="#59402f" />
          <path
             d="m 237.5,31.83333 c 0.3,0.6 0.5,1.4 0.6,2.2 0.1,0.4 0.1,0.8 0.1,1.2 0,0.4 0,0.8 -0.1,1.1 -0.1,0.6 -0.3,1 -0.3,1 0,0 0,-0.1 0,-0.3 0,-0.1 -0.1,-0.4 -0.1,-0.7 0,-0.6 -0.1,-1.4 -0.2,-2.2 -0.1,-0.8 -0.2,-1.6 -0.3,-2.2 -0.1,-0.6 -0.1,-1 -0.1,-1 0,0 0.3,0.4 0.4,0.9 z"
             id="path152"
             fill="#59402f" />
          <g
             id="g157"
             fill="#59402f">
            <path
               d="m 186.6,43.03333 c 0.1,0.3 0.3,0.6 0.3,0.9 0,0.3 0,0.7 0,0.9 0,0.2 -0.1,0.4 -0.1,0.4 0,0 -0.1,-0.2 -0.2,-0.4 -0.1,-0.3 -0.3,-0.6 -0.3,-0.9 0,-0.3 0,-0.7 0,-0.9 0,-0.2 0.1,-0.4 0.1,-0.4 0,0 0.1,0.1 0.2,0.4 z"
               id="ID0.9332002229057252" />
            <path
               d="m 188.3,45.13333 c 0.1,0.2 0.2,0.5 0.3,0.8 0.1,0.3 0.1,0.6 0.1,0.8 -0.1,0.2 -0.1,0.4 -0.1,0.4 0,0 -0.1,-0.1 -0.2,-0.3 -0.1,-0.2 -0.2,-0.5 -0.3,-0.8 -0.1,-0.3 -0.1,-0.6 -0.1,-0.8 0.1,-0.2 0.1,-0.4 0.1,-0.4 0,0 0.1,0.1 0.2,0.3 z"
               id="ID0.3179587903432548" />
            <path
               d="m 237.2,38.13333 c 0.1,0.2 0.2,0.5 0.3,0.8 0.1,0.3 0.1,0.6 0.1,0.8 -0.1,0.2 -0.1,0.4 -0.1,0.4 0,0 -0.1,-0.1 -0.2,-0.3 -0.1,-0.2 -0.2,-0.5 -0.3,-0.8 -0.1,-0.3 -0.1,-0.6 -0.1,-0.8 0.1,-0.2 0.1,-0.4 0.1,-0.4 0,0 0.1,0.1 0.2,0.3 z"
               id="ID0.48881496489048004" />
          </g>
          <path
             d="m 236.5,42.23333 c 0.1,0.4 0.1,0.9 0.1,1.5 0,0.6 -0.1,1.2 -0.2,1.8 -0.1,0.6 -0.3,1.2 -0.5,1.7 -0.1,0.2 -0.3,0.5 -0.4,0.7 -0.1,0.2 -0.3,0.4 -0.4,0.6 -0.2,0.3 -0.5,0.6 -0.7,0.8 -0.2,0.2 -0.3,0.3 -0.3,0.3 0,0 0.1,-0.2 0.2,-0.4 0.1,-0.2 0.3,-0.5 0.5,-0.9 0.4,-0.8 0.8,-1.9 1,-3 0.2,-0.6 0.2,-1.2 0.3,-1.7 0.1,-0.6 0.1,-1.1 0.1,-1.5 0,-0.9 0,-1.5 0,-1.5 0,0 0.3,0.5 0.3,1.6 z"
             id="path159"
             fill="#59402f" />
          <g
             id="g166">
            <path
               d="m 184.4,6.13333 c -8.9,-11.5 1.1,-16.8 5.5,-16.6 4.4,0.2 6.8,7.9 6.8,7.9"
               id="ID0.32199281826615334"
               class="mascot-fill" />
            <path
               d="m 189.4,-6.46667 c 0,0.5 -0.1,1 -0.1,1.6 -0.1,0.6 0,1.2 0,1.8 0.1,0.6 0.2,1.2 0.3,1.7 0.1,0.3 0.2,0.6 0.3,0.8 0.1,0.3 0.2,0.5 0.3,0.7 0.1,0.1 0.2,0.3 0.3,0.5 0.1,0.2 0.2,0.3 0.3,0.4 0.2,0.3 0.3,0.4 0.3,0.4 0,0 -0.1,-0.1 -0.3,-0.3 -0.2,-0.1 -0.5,-0.4 -0.8,-0.8 -0.1,-0.2 -0.3,-0.5 -0.4,-0.7 -0.2,-0.2 -0.3,-0.5 -0.4,-0.8 -0.2,-0.3 -0.2,-0.6 -0.3,-0.9 0,-0.4 -0.1,-0.7 -0.1,-1 0,-0.7 0,-1.3 0.1,-1.9 0,-0.6 0.2,-1.1 0.3,-1.6 0.3,-0.9 0.6,-1.5 0.6,-1.5 0,0 -0.1,0.6 -0.4,1.6 z"
               id="ID0.8247555433772504"
               fill="#59402f" />
            <g
               id="ID0.34517507581040263"
               fill="#59402f">
              <path
                 d="m 188.8,0.93333 c 0.2,0.1 0.4,0.2 0.6,0.4 0.2,0.2 0.4,0.4 0.5,0.6 0.1,0.2 0.1,0.3 0.1,0.3 0,0 -0.1,0 -0.3,-0.1 -0.2,-0.1 -0.4,-0.2 -0.6,-0.4 -0.2,-0.2 -0.4,-0.4 -0.5,-0.6 -0.1,-0.2 -0.1,-0.3 -0.1,-0.3 0,0 0.1,0 0.3,0.1 z"
                 id="ID0.524186173453927" />
              <path
                 d="m 188.2,2.53333 c 0.3,0.2 0.4,0.7 0.4,0.7 -0.1,0 -0.5,0 -0.8,-0.3 -0.3,-0.2 -0.4,-0.7 -0.4,-0.7 0,0 0.5,0 0.8,0.3 z"
                 id="ID0.3222102946601808" />
            </g>
          </g>
          <g
             id="g173">
            <path
               d="m 225.5,-2.56667 c 0,0 2.4,-7.7 6.8,-7.9 4.4,-0.2 14.4,5.1 5.5,16.6"
               id="ID0.2357053104788065"
               class="mascot-fill" />
            <path
               d="m 232.8,-6.56667 c 0.1,0.5 0.2,1 0.3,1.6 0.1,0.6 0.1,1.3 0.1,1.9 0,0.4 -0.1,0.7 -0.1,1 -0.1,0.3 -0.2,0.6 -0.3,0.9 -0.2,0.3 -0.2,0.6 -0.4,0.8 -0.1,0.3 -0.2,0.5 -0.4,0.7 -0.3,0.4 -0.6,0.6 -0.8,0.8 -0.2,0.2 -0.3,0.3 -0.3,0.3 0,0 0.1,-0.2 0.3,-0.4 0.1,-0.1 0.2,-0.2 0.3,-0.4 0.1,-0.1 0.2,-0.3 0.3,-0.5 0.1,-0.2 0.2,-0.5 0.3,-0.7 0.2,-0.3 0.2,-0.5 0.3,-0.8 0.2,-0.5 0.3,-1.1 0.3,-1.7 0,-0.6 0,-1.2 0,-1.8 0,-0.6 -0.1,-1.1 -0.1,-1.6 -0.1,-1 -0.2,-1.6 -0.2,-1.6 0,0 0.3,0.6 0.4,1.5 z"
               id="ID0.164222395978868"
               fill="#59402f" />
            <g
               id="ID0.5028454521670938"
               fill="#59402f">
              <path
                 d="m 233.6,1.13333 c -0.1,0.2 -0.3,0.4 -0.5,0.6 -0.2,0.2 -0.4,0.3 -0.6,0.4 -0.2,0.1 -0.3,0.1 -0.3,0.1 0,0 0,-0.1 0.1,-0.3 0.1,-0.2 0.3,-0.4 0.5,-0.6 0.2,-0.2 0.4,-0.3 0.6,-0.4 0.2,-0.1 0.3,-0.1 0.3,-0.1 0,0 0,0.2 -0.1,0.3 z"
                 id="ID0.17573782987892628" />
              <path
                 d="m 234.4,2.93333 c -0.3,0.2 -0.8,0.3 -0.8,0.3 0,0 0.1,-0.5 0.4,-0.7 0.3,-0.2 0.8,-0.3 0.8,-0.3 0,0 -0.2,0.4 -0.4,0.7 z"
                 id="ID0.3960000080987811" />
            </g>
          </g>
          <path
             d="m 183.3,6.63333 c -0.6,0.7 -1.3,1.7 -2,2.9 -0.3,0.7 -0.7,1.4 -1.1,2.1 -0.4,0.8 -0.7,1.6 -1.1,2.4 -0.3,0.8 -0.7,1.7 -1,2.6 -0.3,0.9 -0.6,1.9 -0.9,2.8 -0.2,0.9 -0.5,1.9 -0.8,2.8 -0.3,0.9 -0.6,1.8 -0.9,2.7 -0.6,1.8 -1.2,3.4 -1.8,4.7 -0.6,1.3 -1.2,2.4 -1.7,3.1 -0.3,0.3 -0.5,0.6 -0.7,0.7 -0.2,0.2 -0.3,0.2 -0.3,0.2 0,0 0.1,0 0.3,-0.2 0.2,-0.2 0.4,-0.4 0.6,-0.8 0.5,-0.7 1,-1.8 1.5,-3.2 0.5,-1.3 1,-3 1.6,-4.7 0.3,-0.9 0.5,-1.8 0.8,-2.7 0.3,-0.9 0.5,-1.9 0.8,-2.8 0.2,-1 0.6,-1.9 0.9,-2.8 0.4,-0.9 0.7,-1.8 1.1,-2.6 0.4,-0.9 0.8,-1.7 1.2,-2.4 0.4,-0.7 0.8,-1.4 1.2,-2 0.8,-1.2 1.6,-2.2 2.2,-2.8 0.6,-0.6 1,-0.9 1,-0.9 0,0 -0.3,0.3 -0.9,0.9 z"
             id="path175"
             fill="#59402f" />
          <path
             d="m 173.6,34.23333 c -0.1,0.8 -0.3,1.9 -0.3,3 0,0.5 0,1.1 0,1.6 0,0.5 0.1,1 0.1,1.4 0,0.4 0.1,0.8 0.1,1 0,0.3 0,0.4 0,0.4 0,0 0,-0.2 -0.1,-0.4 0,-0.3 -0.2,-0.6 -0.3,-1 -0.1,-0.4 -0.2,-0.9 -0.3,-1.4 -0.1,-0.6 -0.1,-1.1 -0.1,-1.7 0,-0.6 0.1,-1.2 0.2,-1.7 0.1,-0.5 0.2,-1 0.4,-1.4 0.4,-0.8 0.7,-1.3 0.7,-1.3 0,0 -0.2,0.6 -0.4,1.5 z"
             id="path177"
             fill="#59402f" />
          <path
             d="m 175.1,40.63333 c 0,0.9 0.1,2 0.2,3.2 0.1,1.2 0.2,2.4 0.4,3.2 0.1,0.4 0.2,0.8 0.3,1 0.1,0.3 0.1,0.4 0.1,0.4 0,0 -0.1,-0.1 -0.2,-0.3 -0.1,-0.3 -0.3,-0.6 -0.5,-1 -0.3,-0.8 -0.6,-2 -0.7,-3.2 -0.1,-1.2 -0.1,-2.4 0,-3.3 0.2,-0.9 0.3,-1.5 0.3,-1.5 0,0 0.1,0.6 0.1,1.5 z"
             id="path179"
             fill="#59402f" />
          <path
             d="m 178.1,48.33333 c 0.2,0.6 0.4,1.2 0.7,1.9 0.1,0.3 0.3,0.6 0.4,1 0.2,0.4 0.3,0.7 0.5,1.1 0.3,0.7 0.7,1.4 1.1,2 0.2,0.2 0.4,0.5 0.6,0.8 0.2,0.2 0.4,0.5 0.6,0.7 0.2,0.2 0.4,0.4 0.6,0.6 0.2,0.2 0.4,0.3 0.5,0.4 0.2,0.2 0.4,0.3 0.4,0.3 0,0 -0.2,-0.1 -0.5,-0.2 -0.2,-0.1 -0.4,-0.2 -0.6,-0.3 -0.2,-0.2 -0.5,-0.3 -0.7,-0.5 -0.2,-0.2 -0.4,-0.5 -0.7,-0.7 -0.2,-0.2 -0.5,-0.5 -0.7,-0.8 -0.3,-0.3 -0.5,-0.7 -0.7,-1 -0.2,-0.4 -0.4,-0.7 -0.6,-1.1 -0.4,-0.7 -0.7,-1.5 -0.9,-2.2 -0.2,-0.7 -0.4,-1.4 -0.5,-2 -0.2,-1.2 -0.2,-2 -0.2,-2 0,0 0.2,0.8 0.7,2 z"
             id="path181"
             fill="#59402f" />
          <path
             d="m 238.8,6.53333 c 0.6,0.6 1.4,1.6 2.3,2.8 0.5,0.6 0.9,1.3 1.4,2 0.5,0.7 0.9,1.5 1.4,2.3 0.4,0.8 0.9,1.7 1.3,2.6 0.4,0.9 0.8,1.9 1.2,2.8 0.8,1.8 1.4,3.7 2,5.5 0.6,1.7 1.2,3.4 1.7,4.8 0.5,1.4 1,2.5 1.4,3.3 0.2,0.4 0.4,0.6 0.6,0.8 0.2,0.2 0.3,0.2 0.3,0.2 0,0 -0.1,-0.1 -0.3,-0.2 -0.2,-0.2 -0.5,-0.4 -0.7,-0.8 -0.4,-0.8 -1,-1.9 -1.6,-3.3 -0.6,-1.4 -1.3,-3 -1.9,-4.8 -0.6,-1.7 -1.3,-3.6 -2,-5.5 -0.4,-0.9 -0.8,-1.8 -1.2,-2.7 -0.3,-0.9 -0.8,-1.8 -1.2,-2.6 -0.8,-1.6 -1.7,-3.1 -2.5,-4.4 -0.8,-1.2 -1.5,-2.2 -2.1,-2.9 -0.6,-0.6 -0.9,-1 -0.9,-1 0,0 0.4,0.3 0.8,1.1 z"
             id="path183"
             fill="#59402f" />
          <path
             d="m 250.3,33.93333 c 0.1,0.4 0.3,0.9 0.4,1.4 0.1,0.6 0.2,1.1 0.2,1.7 0,0.6 0,1.2 -0.1,1.7 -0.1,0.5 -0.2,1 -0.3,1.4 -0.1,0.4 -0.2,0.8 -0.3,1 0,0.3 -0.1,0.4 -0.1,0.4 0,0 0,-0.2 0,-0.4 0,-0.2 0.1,-0.6 0.1,-1 0,-0.4 0.1,-0.9 0.1,-1.4 0,-0.5 0,-1.1 0,-1.6 0,-1.1 -0.2,-2.2 -0.3,-3 -0.1,-0.9 -0.3,-1.4 -0.3,-1.4 0,0 0.3,0.5 0.6,1.2 z"
             id="path185"
             fill="#59402f" />
          <path
             d="m 248.9,40.63333 c 0.1,0.9 0.1,2.1 0,3.3 -0.1,1.2 -0.3,2.4 -0.7,3.2 -0.2,0.5 -0.3,0.8 -0.5,1 -0.1,0.2 -0.2,0.3 -0.2,0.3 0,0 0,-0.2 0.1,-0.4 0.1,-0.2 0.2,-0.6 0.3,-1 0.2,-0.9 0.3,-2 0.4,-3.2 0.1,-1.2 0.1,-2.3 0.2,-3.2 0.1,-0.9 0.1,-1.5 0.1,-1.5 0,0 0.2,0.6 0.3,1.5 z"
             id="path187"
             fill="#59402f" />
          <path
             d="m 246.2,48.23333 c -0.1,0.6 -0.3,1.3 -0.5,2 -0.2,0.7 -0.6,1.5 -0.9,2.2 -0.2,0.4 -0.4,0.8 -0.6,1.1 -0.3,0.4 -0.5,0.7 -0.7,1 -0.2,0.3 -0.4,0.6 -0.7,0.8 -0.2,0.3 -0.5,0.5 -0.7,0.7 -0.3,0.2 -0.5,0.4 -0.7,0.5 -0.2,0.1 -0.4,0.2 -0.6,0.3 -0.3,0.1 -0.5,0.2 -0.5,0.2 0,0 0.1,-0.1 0.4,-0.3 0.2,-0.1 0.3,-0.2 0.5,-0.4 0.2,-0.2 0.4,-0.4 0.6,-0.6 0.2,-0.2 0.4,-0.5 0.6,-0.7 0.2,-0.2 0.4,-0.5 0.6,-0.8 0.4,-0.6 0.8,-1.3 1.1,-2 0.2,-0.4 0.4,-0.7 0.5,-1.1 0.1,-0.3 0.3,-0.7 0.4,-1 0.3,-0.7 0.5,-1.3 0.7,-1.9 0.4,-1.1 0.6,-1.9 0.6,-1.9 0,0 0,0.8 -0.1,1.9 z"
             id="path189"
             fill="#59402f" />
          <path
             d="m 195.4,-4.46667 c -0.3,-0.8 -0.7,-1.6 -1.3,-2.5 -0.6,-0.9 -1.3,-1.7 -2.2,-2.3 -0.4,-0.3 -0.9,-0.5 -1.4,-0.7 -0.5,-0.1 -1,-0.2 -1.5,-0.2 -0.5,0 -0.9,0.1 -1.4,0.2 -0.5,0.1 -0.9,0.2 -1.3,0.4 -0.7,0.3 -1.4,0.6 -1.8,0.9 -0.5,0.3 -0.7,0.4 -0.7,0.4 0,0 0.2,-0.2 0.6,-0.5 0.2,-0.1 0.4,-0.3 0.7,-0.5 0.3,-0.2 0.6,-0.4 1,-0.6 0.4,-0.2 0.8,-0.4 1.3,-0.5 0.5,-0.2 1,-0.3 1.6,-0.3 0.6,0 1.1,0.1 1.7,0.2 0.6,0.1 1.1,0.4 1.6,0.7 1,0.7 1.7,1.6 2.3,2.5 0.6,1 0.9,1.9 1.2,2.7 0.5,1.7 0.6,2.8 0.6,2.8 0,0 -0.3,-1.1 -1,-2.7 z"
             id="path191"
             fill="#59402f" />
          <path
             d="m 238,-8.56667 c -0.5,-0.3 -1.1,-0.6 -1.9,-0.9 -0.2,-0.1 -0.4,-0.1 -0.6,-0.2 -0.2,-0.1 -0.5,-0.1 -0.7,-0.2 -0.2,-0.1 -0.5,-0.1 -0.7,-0.1 -0.3,-0.1 -0.5,-0.1 -0.8,-0.1 -0.3,0 -0.5,0 -0.8,0 -0.3,0.1 -0.5,0.1 -0.8,0.2 -0.3,0.1 -0.6,0.2 -0.8,0.3 -0.2,0.2 -0.5,0.2 -0.7,0.4 -0.5,0.3 -1,0.6 -1.3,1 -0.3,0.4 -0.7,0.7 -1,1.2 -0.2,0.5 -0.6,0.9 -0.8,1.3 -0.2,0.4 -0.4,0.8 -0.6,1.2 -0.2,0.4 -0.4,0.8 -0.5,1.1 -0.2,0.3 -0.3,0.6 -0.4,0.8 -0.2,0.4 -0.3,0.7 -0.3,0.7 0,0 0.1,-0.3 0.2,-0.8 0,-0.3 0.1,-0.6 0.2,-0.9 0.1,-0.3 0.2,-0.7 0.4,-1.1 0.2,-0.4 0.4,-0.8 0.6,-1.3 0.2,-0.5 0.5,-0.9 0.8,-1.4 0.3,-0.5 0.7,-0.9 1.1,-1.3 0.4,-0.4 0.9,-0.7 1.4,-1.1 0.2,-0.2 0.5,-0.3 0.8,-0.4 0.2,-0.1 0.5,-0.3 0.8,-0.3 0.3,-0.1 0.6,-0.2 0.9,-0.2 0.3,0 0.6,0 0.9,0 0.3,0 0.5,0.1 0.8,0.1 0.3,0.1 0.6,0.1 0.8,0.2 0.2,0.1 0.5,0.1 0.7,0.2 0.2,0.1 0.4,0.2 0.6,0.3 0.4,0.2 0.7,0.4 1,0.6 0.2,0.2 0.5,0.3 0.7,0.5 0.4,0.3 0.6,0.5 0.6,0.5 0,0 -0.2,-0.2 -0.6,-0.3 z"
             id="path193"
             fill="#59402f" />
          <path
             d="m 225.1,-4.86667 c -0.8,-0.3 -2,-0.6 -3.4,-0.9 -0.7,-0.1 -1.5,-0.3 -2.3,-0.4 -0.8,-0.2 -1.7,-0.3 -2.6,-0.4 -0.9,-0.1 -1.9,-0.2 -2.8,-0.3 -1,-0.1 -1.9,-0.1 -2.9,-0.1 h -1.4 c -0.4,0 -0.9,0.1 -1.4,0.1 -0.5,0 -0.9,0.1 -1.4,0.1 -0.5,0.1 -1,0.1 -1.4,0.2 -0.4,0.1 -0.9,0.1 -1.3,0.2 -0.5,0.1 -0.9,0.2 -1.3,0.3 -0.4,0 -0.8,0.1 -1.2,0.2 -0.4,0.1 -0.8,0.2 -1.1,0.3 -0.7,0.2 -1.3,0.4 -1.9,0.6 -0.5,0.2 -1,0.3 -1.4,0.5 -0.8,0.3 -1.3,0.5 -1.3,0.5 0,0 0.4,-0.2 1.2,-0.6 0.4,-0.2 0.9,-0.4 1.4,-0.7 0.6,-0.2 1.2,-0.5 1.9,-0.7 0.4,-0.2 0.7,-0.3 1.1,-0.4 0.4,-0.1 0.8,-0.2 1.2,-0.3 0.5,-0.1 0.9,-0.2 1.3,-0.3 0.4,-0.1 0.8,-0.1 1.3,-0.2 0.5,-0.1 0.9,-0.1 1.4,-0.2 0.4,0 0.9,-0.1 1.4,-0.1 0.5,0 1,-0.1 1.5,-0.1 h 1.5 c 1,0 1.9,0.1 2.9,0.1 0.9,0.1 1.9,0.2 2.8,0.3 0.9,0.2 1.8,0.3 2.6,0.5 0.8,0.2 1.6,0.4 2.3,0.6 1.5,0.4 2.6,0.8 3.4,1.1 0.8,0.3 1.2,0.5 1.2,0.5 0,0 -0.5,-0.2 -1.3,-0.4 z"
             id="path195"
             fill="#59402f" />
          <path
             d="m 218.3,56.23333 c -0.7,0.4 -1.7,0.7 -2.7,0.7 -0.5,0.1 -1,0 -1.5,-0.1 -0.3,0 -0.5,-0.1 -0.7,-0.2 -0.2,-0.1 -0.3,-0.2 -0.5,-0.3 -0.3,-0.2 -0.6,-0.4 -0.7,-0.6 -0.1,-0.2 -0.2,-0.3 -0.2,-0.3 0,0 0.1,0.1 0.3,0.2 0.2,0.1 0.5,0.3 0.8,0.4 0.1,0.1 0.3,0.1 0.5,0.2 0.2,0 0.4,0 0.6,0.1 0.4,0.1 0.8,0.1 1.3,0.1 0.5,0 1,0 1.4,-0.1 0.4,0 0.8,-0.1 1.2,-0.2 0.7,-0.2 1.2,-0.3 1.2,-0.3 0,0 -0.4,0.3 -1,0.4 z"
             id="path197"
             fill="#59402f" />
          <path
             d="m 200.6,15.03333 c 1.4,0 2.5,0.9 2.5,1.9 0,1.1 -1.2,1.9 -2.5,1.9 -1.3,0 -4.4,-0.5 -4.4,-1.5 0,-1 3,-2.3 4.4,-2.3 z"
             id="path199"
             fill="#9e7b5c" />
          <path
             d="m 227.1,17.33333 c 0,1 -3.1,1.5 -4.4,1.5 -1.3,0 -2.5,-0.8 -2.5,-1.9 0,-1 1.1,-1.9 2.5,-1.9 1.4,0 4.4,1.3 4.4,2.3 z"
             id="path201"
             fill="#9e7b5c" />
        </g>
        <path
           d="m 235.9,59.03333 c -0.8,0.5 -1.7,1 -2.8,1.4 -1.1,0.4 -2.2,0.9 -3.4,1.2 -0.6,0.2 -1.2,0.3 -1.8,0.4 -0.6,0.1 -1.2,0.2 -1.8,0.3 -0.6,0.1 -1.2,0.1 -1.7,0.2 -0.5,0.1 -1,0.1 -1.5,0.1 -0.9,0 -1.7,-0.1 -2.2,-0.1 -0.5,-0.1 -0.8,-0.1 -0.8,-0.1 0,0 0.3,-0.1 0.8,-0.1 0.3,-0.1 0.6,-0.1 1,-0.1 0.3,0 0.7,-0.1 1.2,-0.1 0.5,-0.1 1,-0.1 1.5,-0.2 0.5,-0.1 1,-0.2 1.6,-0.3 0.5,-0.1 1.1,-0.1 1.7,-0.3 0.5,-0.2 1.1,-0.3 1.7,-0.5 1.2,-0.3 2.3,-0.7 3.4,-1.1 1.1,-0.4 2.1,-0.8 2.9,-1.2 1.6,-0.8 2.7,-1.4 2.7,-1.4 0,0 -0.9,0.7 -2.5,1.9 z"
           id="path204"
           fill="#59402f" />
      </g>
    </g>
  </g>
</svg>
