<?xml version="1.0" encoding="UTF-8" standalone="no"?>
<svg
   width="120"
   height="79.590599"
   viewBox="-1.75 9.4240999 120 79.590599"
   version="1.1"
   xml:space="preserve"
   id="svg37"
   sodipodi:docname="butterfly.svg"
   inkscape:version="1.2.2 (b0a8486541, 2022-12-01)"
   xmlns:inkscape="http://www.inkscape.org/namespaces/inkscape"
   xmlns:sodipodi="http://sodipodi.sourceforge.net/DTD/sodipodi-0.dtd"
   xmlns="http://www.w3.org/2000/svg"
   xmlns:svg="http://www.w3.org/2000/svg"><sodipodi:namedview
   id="namedview39"
   pagecolor="#f3f3f3"
   bordercolor="#000000"
   borderopacity="0.25"
   inkscape:showpageshadow="2"
   inkscape:pageopacity="0.0"
   inkscape:pagecheckerboard="0"
   inkscape:deskcolor="#d1d1d1"
   showgrid="false"
   inkscape:zoom="2.6514058"
   inkscape:cx="65.436984"
   inkscape:cy="44.316113"
   inkscape:window-width="1870"
   inkscape:window-height="1011"
   inkscape:window-x="0"
   inkscape:window-y="0"
   inkscape:window-maximized="1"
   inkscape:current-layer="svg37" />
  <defs
   id="defs2" />
  <g
   id="g35"
   transform="matrix(0.92510219,0,0,0.92510219,-1.75,-0.42740585)">
    <title
   id="title4">butterfly-a</title>
    <desc
   id="desc6">Created with Sketch.</desc>
    <g
   id="butterfly-a"
   stroke="none"
   fill-rule="evenodd">
      <g
   id="Group-3">
        <path
   d="m 11.4333,45.3986 3.3023,2.9567 c 1.5797,1.414 2.4806,3.4247 2.4806,5.5336 v 7.4642 c 0,3.1009 1.9363,5.878 4.8627,6.9751 l 2.737,1.0261 c 1.2881,0.4829 2.3913,1.2948 3.2198,2.3244 L 61.2521,50.4022 60.7778,49.935 C 50.0542,39.3807 35.5536,33.4575 20.4402,33.4575 h -9.1538 l -1.5487,3.0921 c -1.4992,2.993 -0.8064,6.6088 1.6956,8.849"
   class="mascot-fill"
   stroke-width="1" />
        <path
   d="m 0,41.4421 c 0,2.9522 1.6615,5.6583 4.3075,7.0155 l 3.9366,2.019 c 2.0529,1.0526 2.8716,3.5442 1.8375,5.5932 l -0.9409,1.8655 c -1.1271,2.2343 -0.0435,4.9428 2.3218,5.8048 2.0121,0.733 3.1519,2.8426 2.652,4.9083 l -0.6054,2.5017 c -1.0172,4.2039 3.6618,7.4875 7.326,5.1405 l 7.2006,-4.612 C 27.2072,70.6494 26.104,69.8371 24.8159,69.3545 l -2.737,-1.0261 c -2.9264,-1.0974 -4.8627,-3.8745 -4.8627,-6.975 v -7.4646 c 0,-2.1089 -0.9009,-4.1193 -2.4806,-5.5336 l -3.3023,-2.9567 c -2.502,-2.2402 -3.1948,-5.856 -1.6956,-8.849 l 1.5487,-3.0921 H 8.0575 C 3.6076,33.4574 0,37.0321 0,41.4421"
   id="Fill-3"
   fill="#19242d"
   stroke-width="1" />
        <path
   d="m 29.6095,75.32 c 0.5618,4.0757 4.3477,6.9308 8.4613,6.3814 l 3.6695,-0.4903 c 4.1509,-0.5543 8.3537,0.5484 11.6842,3.065 l 3.4945,2.6406 v -2.5716 c 0,-2.4613 2.0133,-4.4567 4.497,-4.4567 L 61.2522,50.0541 27.9649,71.5962 c 0.8699,1.0487 1.4524,2.33 1.6446,3.7238"
   id="Fill-6"
   fill="#f3f3f3"
   stroke-width="1" />
        <path
   d="m 29.0818,87.1929 h 6.8644 c 2.5575,0 4.3792,2.4612 3.6105,4.879 l -0.5179,1.6291 c -0.3545,1.1152 0.2013,2.315 1.2856,2.7753 l 0.066,0.0282 c 1.1595,0.4924 2.5006,-0.0675 2.9549,-1.2339 0.8865,-2.276 3.6948,-3.1214 5.7091,-1.7183 l 0.7126,0.4965 c 3.0086,2.0957 7.1521,-0.0369 7.1521,-3.6812 v -3.4508 l -3.4946,-2.6406 c -3.3304,-2.5167 -7.5333,-3.6193 -11.6842,-3.065 l -3.6695,0.4902 c -4.1136,0.5494 -7.8994,-2.306 -8.4612,-6.3814 -0.1922,-1.3941 -0.7748,-2.6751 -1.6447,-3.7238 l -2.9868,1.9328 c -6.2478,4.0434 -3.3583,13.6639 4.1037,13.6639"
   id="Fill-8"
   fill="#19242d"
   stroke-width="1" />
        <path
   d="m 39.0103,48.0859 c 0,4.2259 -3.457,7.6516 -7.7213,7.6516 -4.264,0 -7.721,-3.4257 -7.721,-7.6516 0,-4.2258 3.457,-7.6515 7.721,-7.6515 4.2643,0 7.7213,3.4257 7.7213,7.6515"
   id="Fill-10"
   fill="#19242d"
   stroke-width="1" />
        <path
   d="m 39.0103,48.0859 c 0,4.2259 -3.457,7.6516 -7.7213,7.6516 -4.264,0 -7.721,-3.4257 -7.721,-7.6516 0,-4.2258 3.457,-7.6515 7.721,-7.6515 4.2643,0 7.7213,3.4257 7.7213,7.6515 z"
   id="Stroke-12"
   stroke="#f3f3f3"
   stroke-width="3.5"
   fill="none" />
        <path
   d="m 52.6189,70.8382 c 0,2.5316 -2.0708,4.5834 -4.6251,4.5834 -2.5547,0 -4.6252,-2.0518 -4.6252,-4.5834 0,-2.5312 2.0705,-4.5834 4.6252,-4.5834 2.5543,0 4.6251,2.0522 4.6251,4.5834"
   class="mascot-fill"
   stroke="#19242d"
   stroke-width="1" />
      </g>
      <g
   id="Group-2">
        <path
   d="m 104.8996,69.3543 2.7367,-1.026 c 2.9267,-1.0971 4.863,-3.8742 4.863,-6.9751 V 53.889 c 0,-2.1093 0.9009,-4.1197 2.4802,-5.5336 l 3.3027,-2.9568 c 2.5016,-2.2401 3.1949,-5.856 1.6956,-8.8489 l -1.5487,-3.0922 h -9.1538 c -15.1137,0 -29.6143,5.9232 -40.3379,16.4776 l -0.4743,0.4669 33.2167,21.2764 c 0.8285,-1.0292 1.9317,-1.8411 3.2198,-2.3241"
   class="mascot-fill"
   stroke-width="1" />
        <path
   d="m 116.2063,71.15 -0.6053,-2.5017 c -0.5,-2.0657 0.6401,-4.1753 2.6516,-4.9082 2.366,-0.8618 3.4496,-3.5706 2.3224,-5.8049 l -0.9412,-1.8655 c -1.0341,-2.0487 -0.2151,-4.5406 1.8375,-5.5931 l 3.9366,-2.0191 c 2.646,-1.3569 4.3075,-4.0629 4.3075,-7.0154 0,-4.4097 -3.6073,-7.9845 -8.0575,-7.9845 h -3.2289 l 1.5487,3.0922 c 1.4993,2.9929 0.806,6.6084 -1.6956,8.8489 l -3.3023,2.9568 c -1.5794,1.4139 -2.4806,3.4243 -2.4806,5.5332 v 7.4646 c 0,3.1009 -1.9363,5.878 -4.863,6.9751 l -2.7367,1.026 c -1.2881,0.4826 -2.391,1.2949 -3.2198,2.3241 l 7.2006,4.6124 c 3.6642,2.3467 8.3435,-0.9366 7.326,-5.1409"
   id="Fill-18"
   fill="#19242d"
   stroke-width="1" />
        <path
   d="m 87.975,81.2113 3.6696,0.4902 c 4.1136,0.5491 7.8997,-2.306 8.4612,-6.3814 0.1922,-1.3941 0.7747,-2.6751 1.6447,-3.7238 L 68.4631,50.0539 68.2994,79.8885 c 2.4833,0 4.4973,1.9955 4.4973,4.4564 v 2.572 l 3.4942,-2.641 c 3.3308,-2.5166 7.5336,-3.6189 11.6841,-3.0646"
   id="Fill-21"
   fill="#f3f3f3"
   stroke-width="1" />
        <path
   d="m 79.9485,94.0488 0.7126,-0.4965 c 2.0143,-1.4031 4.8226,-0.5577 5.7087,1.7183 0.4547,1.1664 1.7954,1.7263 2.9552,1.2339 l 0.0661,-0.0282 c 1.0843,-0.4603 1.6397,-1.6601 1.2852,-2.7753 l -0.5179,-1.6291 c -0.7687,-2.4178 1.053,-4.879 3.6109,-4.879 h 6.8643 c 7.462,0 10.3515,-9.6205 4.1035,-13.6639 l -2.9865,-1.9328 c -0.87,1.0487 -1.4525,2.33 -1.6447,3.7238 -0.5618,4.0758 -4.3476,6.9308 -8.4612,6.3814 l -3.6696,-0.4902 c -4.1508,-0.5543 -8.3537,0.5483 -11.6841,3.065 l -3.4942,2.6406 v 3.4508 c 0,3.6447 4.1431,5.7773 7.1517,3.6812"
   id="Fill-23"
   fill="#19242d"
   stroke-width="1" />
        <path
   d="m 90.7052,48.0859 c 0,4.2259 3.457,7.6516 7.7213,7.6516 4.264,0 7.721,-3.4257 7.721,-7.6516 0,-4.2258 -3.457,-7.6515 -7.721,-7.6515 -4.2643,0 -7.7213,3.4257 -7.7213,7.6515"
   id="Fill-25"
   fill="#19242d"
   stroke-width="1" />
        <path
   d="m 90.7052,48.0859 c 0,4.2259 3.457,7.6516 7.7213,7.6516 4.264,0 7.721,-3.4257 7.721,-7.6516 0,-4.2258 -3.457,-7.6515 -7.721,-7.6515 -4.2643,0 -7.7213,3.4257 -7.7213,7.6515 z"
   id="Stroke-27"
   stroke="#f3f3f3"
   stroke-width="3.5"
   fill="none" />
        <path
   d="m 86.0241,70.8382 c 0,2.5316 -2.0709,4.5834 -4.6252,4.5834 -2.5547,0 -4.6252,-2.0518 -4.6252,-4.5834 0,-2.5312 2.0705,-4.5834 4.6252,-4.5834 2.5543,0 4.6252,2.0522 4.6252,4.5834"
   class="mascot-fill"
   stroke="#19242d"
   stroke-width="1" />
      </g>
      <g
   id="Group">
        <path
   d="m 46.637,11.1741 4.2012,3.0117 c 7.8126,5.6008 12.7579,14.3115 13.5315,23.8367 l 0.4775,5.8803"
   id="Stroke-31"
   stroke="#19242d"
   stroke-width="1.05"
   stroke-linecap="round"
   fill="none" />
        <path
   d="M 83.0575,12.1112 78.856,15.1229 C 71.0434,20.7237 66.0981,29.4348 65.3248,38.9595 l -0.4775,5.8804"
   id="Stroke-33"
   stroke="#19242d"
   stroke-width="1.05"
   stroke-linecap="round"
   fill="none" />
        <path
   d="m 64.8565,47.2685 c -0.937,0 -1.7037,-0.7597 -1.7037,-1.688 v -7.6352 c 0,-0.9282 0.7667,-1.6879 1.7037,-1.6879 0.9367,0 1.7034,0.7597 1.7034,1.6879 v 7.6352 c 0,0.9283 -0.7667,1.688 -1.7034,1.688"
   id="Fill-35"
   fill="#19242d"
   stroke-width="1" />
        <path
   d="m 69.8626,51.3849 c 0,14.4522 -2.2413,43.5766 -5.0061,43.5766 -2.7647,0 -5.0064,-29.1244 -5.0064,-43.5766 0,-4.5806 2.2417,-8.7587 5.0064,-8.7587 2.7648,0 5.0061,4.8745 5.0061,8.7587"
   id="Fill-37"
   fill="#19242d"
   stroke-width="1" />
        <path
   d="m 70.5351,52.0269 c 0,5.3842 -2.5424,9.749 -5.6785,9.749 -3.1365,0 -5.6789,-4.3648 -5.6789,-9.749 0,-5.3843 2.5424,-9.749 5.6789,-9.749 3.1361,0 5.6785,4.3647 5.6785,9.749"
   id="Fill-39"
   fill="#19242d"
   stroke-width="1" />
        <path
   d="m 63.8653,41.1308 c 0,1.0972 -0.8977,1.9868 -2.0045,1.9868 -1.1071,0 -2.0048,-0.8896 -2.0048,-1.9868 0,-1.0971 0.8977,-1.9867 2.0048,-1.9867 1.1068,0 2.0045,0.8896 2.0045,1.9867"
   id="Fill-41"
   fill="#fcf6ed"
   stroke-width="1" />
        <path
   d="m 69.8382,41.1308 c 0,1.0972 -0.8977,1.9868 -2.0044,1.9868 -1.1071,0 -2.0048,-0.8896 -2.0048,-1.9868 0,-1.0971 0.8977,-1.9867 2.0048,-1.9867 1.1067,0 2.0044,0.8896 2.0044,1.9867"
   id="Fill-43"
   fill="#fcf6ed"
   stroke-width="1" />
        <path
   d="m 62.9914,41.1308 c 0,0.6188 -0.5063,1.1205 -1.1307,1.1205 -0.6243,0 -1.1306,-0.5017 -1.1306,-1.1205 0,-0.6187 0.5063,-1.1204 1.1306,-1.1204 0.6244,0 1.1307,0.5017 1.1307,1.1204"
   id="Fill-45"
   fill="#19242d"
   stroke-width="1" />
        <path
   d="m 68.9643,41.1308 c 0,0.6188 -0.5063,1.1205 -1.1306,1.1205 -0.6244,0 -1.1307,-0.5017 -1.1307,-1.1205 0,-0.6187 0.5063,-1.1204 1.1307,-1.1204 0.6243,0 1.1306,0.5017 1.1306,1.1204"
   id="Fill-47"
   fill="#19242d"
   stroke-width="1" />
      </g>
    </g>
  </g>
</svg>
