<?xml version="1.0" encoding="UTF-8" standalone="no"?>
<svg
   version="1.1"
   width="120"
   height="65.61882"
   viewBox="5.597352 0.10999539 120 65.61882"
   id="svg55"
   sodipodi:docname="elephant.svg"
   inkscape:version="1.2.2 (b0a8486541, 2022-12-01)"
   xmlns:inkscape="http://www.inkscape.org/namespaces/inkscape"
   xmlns:sodipodi="http://sodipodi.sourceforge.net/DTD/sodipodi-0.dtd"
   xmlns="http://www.w3.org/2000/svg"
   xmlns:svg="http://www.w3.org/2000/svg">
  <defs
     id="defs59" />
  <sodipodi:namedview
     id="namedview57"
     pagecolor="#ffffff"
     bordercolor="#000000"
     borderopacity="0.25"
     inkscape:showpageshadow="2"
     inkscape:pageopacity="0.0"
     inkscape:pagecheckerboard="0"
     inkscape:deskcolor="#d1d1d1"
     showgrid="false"
     inkscape:zoom="2.1774144"
     inkscape:cx="98.281703"
     inkscape:cy="53.963085"
     inkscape:window-width="1870"
     inkscape:window-height="1011"
     inkscape:window-x="0"
     inkscape:window-y="0"
     inkscape:window-maximized="1"
     inkscape:current-layer="svg55" />
  <!-- Exported by Scratch - http://scratch.mit.edu/ -->
  <g
     id="Ear_Back"
     transform="matrix(0.61300024,0,0,0.61300024,1.7554343,-0.36817125)">
    <path
       id="Fill"
       class="mascot-fill"
       d="m 136.3658,10.4051 c 0,0 -1.7435,-8.6316 -9.7318,-8.7441 -7.9856,-0.1126 -9.3472,8.6329 -10.2973,8.7441 0,0 -0.725,6.6308 0,8.8688 0.725,2.2379 -0.3203,7.5822 -0.3203,7.5822 0,0 -6.281,10.8347 -5.4542,12.3222 0.8255,1.4821 3.6866,4.7828 7.5769,5.7771 3.8903,0.9917 9.6045,-0.8121 13.5564,-6.7607 3.9493,-5.9474 6.0988,-10.5278 6.2623,-15.3334 0.1648,-4.8083 -1.592,-12.4562 -1.592,-12.4562 z"
       stroke-width="1.3401" />
    <path
       id="Outline_2_"
       fill="#272525"
       d="m 137.2288,10.4574 c -0.7665,0.9729 -1.8346,-1.5934 -2.116,-2.4216 -0.8912,-2.6279 -3.495,-5.1915 -6.8854,-5.6793 -3.306,-0.4771 -6.2261,0.8081 -8.0795,3.0246 -5.296,6.3333 -2.2245,13.5282 -3.3556,20.608 -0.6593,4.1275 -3.4963,7.0676 -4.6715,10.844 -0.4262,1.3669 0.1286,3.5446 1.2784,4.6046 2.3251,2.1495 7.1199,3.1278 10.3951,2.2849 3.8743,-0.9931 6.6067,-4.874 8.3341,-7.6976 1.0707,3.0769 -1.915,6.1055 -4.5858,7.92 -6.0693,4.1302 -19.2585,2.4966 -18.3245,-5.5225 0.4476,-3.8501 4.874,-7.5836 5.8871,-11.8183 1.2878,-5.3859 -1.1525,-10.7757 0.2827,-16.0879 1.0493,-3.8876 3.7764,-9.2547 9.2909,-9.6862 7.463,-0.5829 10.9673,4.0042 12.55,9.6273 z"
       stroke-width="1.3401" />
  </g>
  <g
     id="Back_Leg_2_1_"
     transform="matrix(0.61300024,0,0,0.61300024,1.7554343,-0.36817125)">
    <path
       id="Fill_5_"
       class="mascot-fill"
       d="m 32.2752,69.8544 c -1.7006,1.1069 -1.8547,2.963 -1.7944,4.5295 0.1179,3.1546 5.9943,11.2515 9.2132,10.0266 0.1675,-0.0656 0.3806,-0.0924 0.6137,-0.0991 0.0014,-0.0014 4.9115,-1.5934 9.1824,-11.3935 0,0 0.5347,-0.5307 1.0841,-0.4811 0.4972,-2.9415 -1.5371,-4.7801 -3.8488,-6.3025 -1.9659,-1.2932 -4.4732,-0.8268 -6.1054,-0.2827 3.503,1.659 -6.0814,2.5247 -8.3448,4.0028 z"
       stroke-width="1.3401" />
    <path
       id="Toenail1_3_"
       fill="#b7cbe7"
       d="m 38.6299,81.0094 c -1.1404,-1.1324 -2.9174,0.3229 -4.0698,0.7531 0.8965,0.9716 1.8453,1.7716 2.7552,2.2621 0.8804,-0.9032 2.317,-2.0209 1.3146,-3.0152 z"
       stroke-width="1.3401" />
    <path
       id="Outline_7_"
       fill="#272525"
       d="m 50.5742,72.4368 c -0.5494,-0.0496 -1.0841,0.4811 -1.0841,0.4811 -2.8035,6.4338 -5.875,9.3177 -7.66,10.5492 -0.9341,0.6433 -1.5224,0.8443 -1.5224,0.8443 -0.2318,0.0067 -0.4449,0.0335 -0.6137,0.0991 -0.2292,0.0858 -0.4744,0.1153 -0.7277,0.1139 0.3136,-0.3765 0.6258,-0.8094 0.9314,-1.2476 1.6402,-2.3452 -1.5586,-5.6686 -4.8699,-3.5285 -0.6982,0.453 -1.1217,0.7304 -1.383,0.9341 -1.5572,-1.9566 -2.7981,-4.232 -3.093,-5.7651 -0.0361,-0.1903 -0.0643,-0.3712 -0.071,-0.536 -0.0603,-1.5666 0.0938,-3.4226 1.7944,-4.5296 2.2634,-1.4794 11.8478,-2.3438 8.3461,-4.0042 -0.3551,-0.1675 -0.8389,-0.3444 -1.4821,-0.5306 -1.3321,-0.3847 -0.9555,0.3953 -3.3007,1.0653 -2.8249,0.8081 -4.0873,0.2841 -6.1095,2.3774 -1.5076,1.5639 -1.5947,3.8018 -0.9474,6.1577 0.8013,2.9134 2.7284,6.0063 4.5188,8.2376 1.781,2.2218 5.6351,4.9288 8.5297,3.3341 0.0656,-0.0362 0.134,-0.063 0.1983,-0.1032 l 0.0014,0.0014 c 4.433,-1.6859 9.4704,-12.8877 9.4704,-12.8877 -0.2278,-0.7759 -0.5803,-1.0346 -0.926,-1.0627 z M 37.3153,84.0246 c -0.9099,-0.4905 -1.8587,-1.2919 -2.7552,-2.2621 1.1524,-0.4288 2.9294,-1.8842 4.0698,-0.7531 1.0024,0.9943 -0.4342,2.112 -1.3146,3.0152 z"
       stroke-width="1.3401" />
  </g>
  <g
     id="Front_Leg_2"
     transform="matrix(0.61300024,0,0,0.61300024,1.7554343,-0.36817125)">
    <path
       id="Fill_3_"
       class="mascot-fill"
       d="m 103.5415,79.5299 c 1.0734,4.8404 5.5842,15.0426 8.5578,16.1522 4.8284,1.8131 10.7677,-0.7612 13.8298,-4.2562 0.6701,-0.7638 1.3133,-1.8319 1.0051,-2.8731 -0.9769,-3.2605 -5.5453,-1.4299 -8.1223,-3.3972 -0.453,-0.3484 -2.0062,-5.5386 -7.2875,-7.1722 -0.3203,-0.0991 -0.1259,-0.2519 0.3042,-0.402 -1.592,-0.6459 -3.2912,-1.0546 -4.969,-1.0345 -1.1619,0.0134 -3.9949,-0.5307 -4.2173,2.0155 0.3404,0.0294 0.7544,0.3095 0.8992,0.9675 z"
       stroke-width="1.3401" />
    <path
       id="Toenail2_2_"
       fill="#b7cbe7"
       d="m 125.9305,91.4259 c 0.5548,-0.6338 1.0841,-1.4741 1.0774,-2.3317 -1.1847,-0.5347 -2.6842,-1.186 -3.8622,0.0549 -1.0251,1.0828 0.9448,2.183 2.0249,3.0621 0.2667,-0.2546 0.524,-0.5172 0.7599,-0.7853 z"
       stroke-width="1.3401" />
    <path
       id="Toenail1_2_"
       fill="#b7cbe7"
       d="m 121.0672,94.9745 c -1.0318,-1.1592 -2.2875,-3.5566 -4.7425,-2.7016 -1.6068,0.5601 -0.5307,2.4751 0.1366,3.9546 1.5773,-0.1327 3.1506,-0.5816 4.6059,-1.253 z"
       stroke-width="1.3401" />
    <path
       id="Outline_6_"
       fill="#272525"
       d="m 112.4746,98.9961 c 4.9529,1.0346 10.383,-0.8482 13.7185,-4.2574 1.9177,-1.9539 4.2655,-6.1069 2.8129,-8.8085 -0.382,-0.7116 -1.1284,-1.1243 -2.0222,-1.3937 -2.104,-0.6352 -5.0535,-0.4637 -6.1698,-1.4218 -0.3069,-0.2694 -2.1696,-4.7266 -6.0224,-5.9541 -0.6955,-0.0911 -2.2005,0.1568 -2.9603,0.4208 -0.4275,0.1474 -0.6245,0.3029 -0.3029,0.402 4.3232,1.3375 6.1457,5.0562 6.9136,6.5531 0.1702,0.331 0.2895,0.5561 0.3712,0.6191 2.1924,1.6711 5.8107,0.6111 7.4509,2.2554 -3.18,-1.0707 -5.9728,2.0892 -4.358,3.9573 0.5522,0.6419 1.3267,1.4205 2.0812,1.856 -0.4905,0.3766 -1.0158,0.7277 -1.5679,1.052 -0.2613,-0.3926 -0.6888,-0.9313 -1.2985,-1.7408 -2.6347,-3.4936 -8.0822,-1.5464 -7.4644,1.446 0.1394,0.6821 0.3525,1.4929 0.6459,2.2165 -0.7504,-0.0871 -1.4888,-0.2506 -2.2044,-0.5173 -0.8831,-0.3296 -1.9043,-1.4754 -2.9295,-3.0313 -2.4229,-3.6812 -4.8752,-9.7197 -5.6297,-13.1235 -0.1447,-0.654 -0.5588,-0.9341 -0.8965,-0.9662 -0.2654,-0.0241 -0.4851,0.1045 -0.4825,0.3538 0.0778,5.9567 3.562,13.8016 7.0074,17.7066 1.1511,1.3013 2.2956,2.1656 3.3074,2.376 z m 10.6698,-9.8483 c 1.1779,-1.241 2.6775,-0.5897 3.8622,-0.055 0.007,0.859 -0.5227,1.6993 -1.0775,2.3318 -0.2358,0.268 -0.4918,0.5307 -0.7598,0.7853 -1.0801,-0.8791 -3.0487,-1.9793 -2.0249,-3.0621 z m -6.8197,3.1251 c 2.455,-0.8563 3.712,1.5411 4.7425,2.7016 -1.4553,0.6714 -3.0286,1.1203 -4.6072,1.2543 -0.666,-1.4808 -1.7435,-3.3958 -0.1353,-3.9559 z"
       stroke-width="1.3401" />
  </g>
  <g
     id="Body"
     transform="matrix(0.61300024,0,0,0.61300024,1.7554343,-0.36817125)">
    <path
       id="ID0.3126746523194015"
       class="mascot-fill"
       d="m 188.6965,37.069 c 0,0 -0.003,-7.2044 -2.9924,-8.0285 -1.6001,-0.4396 -4.1583,1.5545 -4.8203,2.7967 -0.981,1.8521 -0.4409,4.9825 0.9139,6.5692 2.3304,2.7338 6.5383,2.7727 6.1162,7.2955 -0.2037,2.2272 -0.8108,4.7278 -1.9941,6.8733 1.4313,-0.2506 3.5071,-0.0241 3.5017,0.851 -0.003,1.0627 -2.2822,0.3136 -3.7375,-0.4503 -0.134,0.2225 -0.2654,0.4449 -0.4141,0.6567 1.186,0.6807 2.2956,1.8547 2.0262,2.329 -0.2573,0.4637 -1.6282,-0.733 -2.4175,-1.797 -1.0587,1.3521 -2.4296,2.4403 -4.1932,3.0326 -1.5612,0.524 -3.3904,0.8202 -5.3054,0.8952 0.6017,1.8091 0.6606,4.2347 -0.5642,4.4304 -1.454,0.2358 -1.1337,-2.3653 -0.4717,-4.4224 -0.2144,0 -0.4221,0.0121 -0.6392,0.0054 -0.1113,1.9257 -1.0989,4.2508 -1.974,4.2267 -0.8429,-0.0242 0.0737,-2.6668 1.1096,-4.2736 -4.0592,-0.2694 -8.1357,-1.5626 -10.5814,-4.0216 -0.6486,-0.654 -1.2235,-1.4782 -1.7475,-2.4068 -2.0798,1.332 -4.169,2.9736 -4.9114,1.5786 -0.6607,-1.2409 2.6761,-1.6108 4.7426,-1.8708 -0.2118,-0.3926 -0.4168,-0.804 -0.6111,-1.2329 -2.5824,0.5307 -5.4998,1.5787 -5.6673,-0.0737 -0.1514,-1.4888 3.6585,-0.4717 5.607,-0.0563 -3.2431,-7.2901 -4.1704,-19.4715 -7.2406,-25.7405 -3.3542,-6.8479 -10.387,-12.9963 -18.4115,-13.9678 -6.1055,-0.7371 -10.4514,-1.7864 -19.9058,2.0302 -0.8376,0.4999 -5.221,3.1412 -6.5812,4.5027 0,0 -10.7985,-8.8245 -30.1522,-11.2487 -17.7562,-2.2246 -26.5526,4.303 -37.851,12.4521 -3.6611,2.6561 -7.8583,9.1797 -7.8623,9.1851 -2.2339,5.5171 -5.9098,15.789 0.2198,27.2789 2.5971,4.8699 3.2872,6.0452 8.6878,10.6029 21.2271,17.9157 61.5385,14.6258 61.5385,14.6258 2.1201,-0.1367 7.8302,-0.9367 11.7192,-2.4886 4.1663,-1.6671 8.6047,-4.2427 12.0394,-6.9966 5.8897,4.8766 11.4283,3.3797 13.9316,1.0332 -3.7522,-2.912 -8.9625,-12.5446 -2.5408,-15.328 7.9012,12.826 34.7554,19.6337 47.5238,9.6085 7.1762,-5.6351 7.585,-13.9303 7.6211,-21.8945 0.0282,-0.0107 0.0496,-0.0148 0.0778,-0.0241 -0.0322,-0.9368 0.1836,-1.4701 0.3604,-1.7395 0.1166,-0.1782 0.2158,-0.2479 0.2158,-0.2479 1.852,-0.8764 5.1138,-2.2058 5.9246,-4.1328 2.0624,-4.9021 -6.7957,-7.5568 -10.2893,-0.4168 z"
       stroke-width="1.3401" />
    <path
       id="ID0.8108903267420828"
       fill="#272525"
       d="m 190.3931,31.8359 c 0.3739,-5.8147 -3.9466,-6.6924 -7.8168,-5.5306 -2.4149,0.7223 -4.7855,3.0809 -5.4689,5.2291 -2.4484,7.6868 10.0346,9.0376 7.6814,16.6681 -1.0024,3.243 -5.5936,7.2888 -9.2426,7.5407 -3.9372,0.2654 -8.6785,-0.5722 -11.2636,-3.6517 -1.8399,-2.1938 -4.9127,-9.8377 -5.4675,-12.6492 -2.045,-10.3563 -2.64,-18.4719 -11.5235,-26.1533 -8.2309,-7.1173 -22.3367,-8.5056 -32.358,-4.0739 -0.4007,0.1755 -0.867,0.3605 -1.3253,0.5682 V 9.782 c -0.0844,0.0375 -0.1903,0.0884 -0.3056,0.15 -0.3001,0.1488 -0.5842,0.3109 -0.8295,0.4986 -1.8949,1.2114 -4.9423,3.5244 -4.9423,3.5244 C 99.1553,7.0924 86.3856,4.4256 86.3856,4.4256 83.4682,3.5103 72.8184,2.2546 67.6979,2.6111 56.0981,3.4205 45.0798,9.9387 36.3263,17.1873 c 0,0 -4.8498,4.0887 -7.8878,10.2116 -0.0657,0.0281 -0.725,1.5679 -0.7531,1.6402 -4.5791,11.1416 -1.2892,28.394 9.6312,36.3943 l -0.016,0.0081 c 0,0 20.7701,20.5195 65.268,17.18 8.5243,-0.7223 17.1291,-3.0433 23.6352,-8.456 6.9685,3.7282 16.0396,2.0209 17.7724,-2.7995 -3.5513,-1.9404 -8.5807,-8.1129 -6.6147,-11.8866 2.9026,3.3087 6.612,6.1363 10.5197,8.4198 9.9516,5.812 27.5658,7.9964 37.6996,1.4594 6.7514,-4.3553 10.8306,-14.0228 9.5039,-21.4697 -0.0804,-1.0533 0.0295,-2.2299 -0.1031,-3.1171 l 0.2492,-1.8493 c 1.1806,-0.2626 2.3948,-0.7947 3.306,-1.2999 8.2858,-4.5657 0.2895,-18.3325 -8.1437,-9.7867 z m 8.5913,5.6579 c -0.8094,1.9257 -4.0725,3.2551 -5.9245,4.1328 0,0 -0.0992,0.0684 -0.2158,0.2466 -0.1769,0.2694 -0.3926,0.8014 -0.3605,1.7395 -0.0281,0.0093 -0.0496,0.0147 -0.0777,0.0227 -0.0322,7.9656 -0.4422,16.2621 -7.6211,21.8945 -12.7685,10.0266 -39.6226,3.2189 -47.5238,-9.6085 -6.4231,2.7821 -1.2115,12.4174 2.5408,15.3281 -2.502,2.3465 -8.0433,3.8407 -13.9316,-1.0333 -3.4347,2.7526 -7.8731,5.3283 -12.0395,6.9953 -3.8889,1.5532 -9.5991,2.3546 -11.7191,2.4899 0,0 -40.3114,3.29 -61.5385,-14.6258 -5.402,-4.559 -6.0921,-5.7342 -8.6879,-10.6028 -6.1296,-11.4913 -2.4537,-21.7632 -0.2197,-27.2803 0.004,-0.0054 4.2012,-6.5276 7.8623,-9.185 C 50.8261,9.857 59.6225,3.3307 77.3788,5.5553 c 19.3537,2.4242 30.1521,11.2488 30.1521,11.2488 1.3616,-1.3616 5.7437,-4.0029 6.5813,-4.5028 9.457,-3.8166 13.8029,-2.7673 19.9057,-2.0302 8.0245,0.9716 15.0573,7.1199 18.4116,13.9678 3.0702,6.2676 3.9975,18.4491 7.2405,25.7406 -1.9458,-0.4141 -5.7584,-1.4313 -5.6069,0.0562 0.1675,1.651 3.0889,0.6031 5.6672,0.0724 0.1957,0.4302 0.3994,0.8402 0.6111,1.2356 -2.0664,0.2573 -5.4032,0.6298 -4.7426,1.8708 0.7424,1.395 2.8317,-0.2453 4.9115,-1.5787 0.524,0.93 1.0948,1.7529 1.7475,2.4068 2.4456,2.4591 6.5222,3.7523 10.5814,4.0217 -1.0359,1.6054 -1.9526,4.2521 -1.1096,4.2722 0.8737,0.0254 1.8627,-2.3023 1.9739,-4.2253 0.2144,0.0067 0.4235,-0.0067 0.6392,-0.0067 -0.662,2.0597 -0.9822,4.6595 0.4718,4.4236 1.2248,-0.1943 1.1658,-2.6212 0.5641,-4.4317 1.915,-0.0737 3.7443,-0.3698 5.3055,-0.8952 1.7622,-0.5883 3.1345,-1.6778 4.1931,-3.0313 0.7894,1.0641 2.1576,2.2594 2.4176,1.7984 0.2693,-0.4757 -0.8403,-1.6496 -2.0263,-2.329 0.1461,-0.2131 0.2801,-0.4356 0.4141,-0.658 1.4554,0.7625 3.7349,1.5129 3.7376,0.4502 0.005,-0.8724 -2.0705,-1.0975 -3.5017,-0.8509 1.1833,-2.1455 1.7904,-4.6475 1.9941,-6.8747 0.4194,-4.5228 -3.7858,-4.5603 -6.1162,-7.2941 -1.3549,-1.5894 -1.8949,-4.7185 -0.914,-6.5692 0.662,-1.2423 3.2189,-3.235 4.8203,-2.7968 2.9898,0.8242 2.9925,8.0285 2.9925,8.0285 3.4949,-7.1453 12.353,-4.4906 10.2892,0.4195 z"
       stroke-width="1.3401" />
  </g>
  <g
     id="Ear_Front"
     transform="matrix(0.61300024,0,0,0.61300024,1.7554343,-0.36817125)">
    <g
       id="Outside">
      <path
         id="Outside_Fill"
         class="mascot-fill"
         d="m 109.5089,14.3812 c 0,0 -2.3585,-11.6816 -13.1664,-11.8344 -10.8106,-0.1515 -12.6492,11.6843 -13.937,11.8344 0,0 -0.9796,8.9719 0,12.0019 0.9796,3.0299 -0.4355,10.2611 -0.4355,10.2611 0,0 -8.4976,14.6646 -7.3813,16.6748 1.1163,2.0101 4.9879,6.4753 10.2544,7.8181 5.2666,1.3428 12.9963,-1.1016 18.3446,-9.1502 5.3483,-8.0486 8.2536,-14.2479 8.4761,-20.75 0.2225,-6.5048 -2.1549,-16.8557 -2.1549,-16.8557 z"
         stroke-width="1.3401" />
      <path
         id="Outside_Outline"
         fill="#272525"
         d="m 110.6788,14.4535 c -1.0372,1.3173 -2.4845,-2.1562 -2.8651,-3.2765 -1.2074,-3.5566 -4.7332,-7.0248 -9.315,-7.6868 -4.4759,-0.6459 -8.4265,1.0935 -10.9352,4.094 -7.1682,8.5712 -3.0139,18.307 -4.5429,27.8901 -0.8912,5.5855 -4.7305,9.5642 -6.3239,14.6754 -0.5776,1.8506 0.1769,4.7935 1.73,6.2274 3.1479,2.908 9.6394,4.2333 14.0697,3.0956 5.2411,-1.3468 8.9398,-6.596 11.2769,-10.4192 1.45,4.1636 -2.589,8.263 -6.2033,10.7207 -8.2175,5.5882 -26.0635,3.3784 -24.7998,-7.471 0.6071,-5.2157 6.5946,-10.2665 7.9642,-15.9967 1.7421,-7.2875 -1.5585,-14.583 0.3833,-21.7739 1.4205,-5.2599 5.1111,-12.5232 12.5727,-13.1061 10.1057,-0.7907 14.847,5.4153 16.9884,13.027 z"
         stroke-width="1.3401" />
    </g>
    <g
       id="Inside">
      <path
         id="Inside_Fill"
         fill="#b7cbe7"
         d="m 106.9587,28.9185 c -1.2221,-2.0624 -2.8892,-2.7418 -3.8528,-4.9155 -1.198,-2.6989 -0.5628,-5.9232 -0.5628,-8.8647 0,-3.9707 -3.2886,-5.9688 -7.8932,-5.5292 -5.2813,0.5039 -8.3622,5.3979 -7.8918,10.3576 0.4932,5.2652 3.3824,7.723 3.9466,12.9895 0.587,5.5735 -4.9798,7.9441 -4.9798,13.5189 0,2.6092 2.8424,3.9922 5.6378,4.1248 1.9498,0.0871 2.9589,-0.9447 4.5094,-2.0195 3.688,-2.5676 3.0769,-6.1658 3.9453,-10.4447 0.4703,-2.2822 1.5035,-3.5539 3.3824,-5.0897 1.6456,-1.3401 3.5954,-2.1093 3.7589,-4.1275 z"
         stroke-width="1.3401" />
      <path
         id="Inside_Outline"
         fill="#272525"
         d="m 106.6465,27.6441 c -0.1327,2.5636 -4.228,-1.9793 -4.5858,-2.4202 -3.239,-3.9868 1.2945,-7.0583 -0.1287,-11.1067 -0.7317,-2.0825 -2.8316,-4.22 -5.6391,-4.3151 -3.3797,-0.1153 -6.2864,3.121 -7.3116,5.4997 -3.1572,7.3384 4.3138,13.9879 2.9536,21.4764 -0.5735,3.1505 -6.4097,8.2268 -4.7962,11.0249 0.5226,0.9046 2.8021,1.7006 3.956,1.6979 9.1019,-0.0254 4.823,-15.2596 14.9099,-18.3043 -0.394,0.9769 -1.3776,1.6295 -2.1335,2.4068 -4.8109,4.9664 -1.8399,12.479 -7.6975,16.8973 -2.1133,1.596 -6.285,1.927 -8.8232,0.8925 -9.5012,-3.881 1.052,-11.3024 2.3881,-14.9193 2.5703,-6.9618 -9.9489,-16.5636 -0.8389,-25.6669 1.7917,-1.789 5.5373,-3.168 8.3542,-2.6654 15.2127,2.715 1.19,13.9866 9.3927,19.5024 z"
         stroke-width="1.3401" />
    </g>
  </g>
  <g
     id="Back_Leg_1"
     transform="matrix(0.61300024,0,0,0.61300024,1.7554343,-0.36817125)">
    <path
       id="Fill_4_"
       class="mascot-fill"
       d="m 42.2495,66.8874 c 0.6084,3.629 0.9488,12.739 2.1696,18.811 0.8711,4.3392 -0.4489,8.4721 6.3668,10.8266 5.2398,1.8105 16.5087,2.8303 17.5111,0.3256 C 70.7869,90.6219 65.5618,91.0453 62.284,87.407 60.113,85.0015 59.1736,76.4691 59.3719,76.386 58.2114,70.8206 54.7392,64.2622 48.5681,62.7345 c -5.5118,-1.3642 -6.545,2.0905 -6.738,3.5807 0.193,0.1287 0.3846,0.3605 0.4194,0.5722 z"
       stroke-width="1.3401" />
    <path
       id="Knee_Swirl_1_"
       fill="#272525"
       d="m 55.7617,84.7255 c -1.8721,0.9219 -3.3047,-0.524 -2.388,-2.9308 2.0436,-1.1874 0.729,1.4097 1.4432,1.8131 0.5039,0.2855 0.9823,-0.1273 1.1941,-0.5575 1.0653,-2.1669 -1.71,-3.0755 -2.9844,-2.3733 -3.1037,1.7194 -0.327,6.8305 3.2336,5.7209 0.9113,-0.2854 0.9622,-1.7193 1.8909,-1.5827 1.8895,3.5031 -9.8095,3.42 -7.7605,-2.0905 3.0688,-8.255 9.9542,-0.264 5.3711,2.0008 z"
       stroke-width="1.3401" />
    <path
       id="Toenail2_1_"
       fill="#b7cbe7"
       d="m 56.5202,93.6358 c -1.6068,-0.2118 -1.974,2.0302 -2.3746,3.7281 1.3937,0.2787 2.9066,0.5133 4.4142,0.6781 -0.0201,-1.6108 0.2734,-4.102 -2.0396,-4.4062 z"
       stroke-width="1.3401" />
    <path
       id="Toenail1_1_"
       fill="#b7cbe7"
       d="m 64.4053,93.8301 c -1.6282,-0.0992 -1.5464,2.715 -1.7823,4.4678 1.5344,0.0134 2.8919,-0.0938 3.9064,-0.3537 -0.3538,-1.6015 -0.5588,-4.019 -2.1241,-4.1141 z"
       stroke-width="1.3401" />
    <path
       id="Outline_4_"
       fill="#272525"
       d="M 65.4613,87.277 C 62.355,85.7533 60.251,75.4051 60.239,75.3501 59.9053,73.8372 59.3143,73.797 58.9418,73.9497 c -0.197,0.0831 -0.3337,0.2171 -0.3337,0.2171 -0.2305,4.2455 1.1913,10.5841 3.6772,13.2415 1.7783,1.9016 3.7134,2.7941 5.0294,3.8287 1.4687,1.1551 2.1669,2.4899 0.9836,5.6136 -0.0482,0.13 -0.1447,0.2399 -0.2466,0.3485 -0.0321,-0.3565 -0.0697,-0.7518 -0.1112,-1.2436 -0.39,-4.5054 -5.4394,-4.685 -6.3574,-1.4661 -0.323,1.1418 -0.6553,2.6561 -0.5856,3.7563 -0.2962,-0.0161 -0.5977,-0.0375 -0.8992,-0.0603 0.0281,-0.4838 0.0348,-1.1418 0.0589,-2.0866 0.1193,-4.5147 -5.4287,-5.2009 -6.8318,-2.0865 -0.3913,0.8657 -0.8148,1.9686 -1.0091,2.9362 C 51.7722,96.8091 51.2496,96.6684 50.7859,96.5237 49.4432,96.0988 48.4247,95.3993 47.6247,94.5336 45.506,92.2367 44.9793,88.723 44.4191,85.697 43.792,82.316 43.0656,72.0307 42.4854,67.8617 h 0.004 c -0.1501,-1.8145 0.2171,-4.8297 -0.9984,-3.6142 0,0 -0.6177,1.7984 -0.3725,3.4735 -0.0322,3.4628 0.0791,13.5497 0.1166,14.3042 0.2452,4.839 0.9166,12.4414 5.8214,15.2878 0.1661,0.0965 0.3604,0.1943 0.5682,0.2908 4.0966,1.9123 15.8452,3.7737 21.4683,1.7582 1.3347,-0.4784 2.3264,-1.1739 2.786,-2.1415 0.4811,-1.0118 2.0075,-5.8093 -6.4177,-9.9435 z m -6.9015,10.765 c -1.5076,-0.1648 -3.0205,-0.3994 -4.4142,-0.6781 0.4006,-1.6992 0.7678,-3.9399 2.3746,-3.7281 2.313,0.3042 2.0195,2.7954 2.0396,4.4062 z m 4.0632,0.2559 c 0.2359,-1.7528 0.1541,-4.567 1.7823,-4.4678 1.5653,0.0938 1.7703,2.5126 2.1241,4.1141 -1.0145,0.2599 -2.372,0.3671 -3.9064,0.3537 z"
       stroke-width="1.3401" />
  </g>
  <g
     id="Front_Leg_1"
     transform="matrix(0.61300024,0,0,0.61300024,1.7554343,-0.36817125)">
    <path
       id="Fill_2_"
       class="mascot-fill"
       d="m 102.3542,81.6741 c -0.5857,-2.1871 -3.9346,-4.0163 -3.9734,-4.2053 -0.0027,-0.0134 0.008,-0.0268 0.0067,-0.0361 -5.8589,-4.5068 -9.1355,-1.3589 -10.5091,0.7558 0.7894,0.3511 1.4138,1.068 1.1954,2.0208 1.1605,10.7623 -9.1703,14.7357 -9.181,18.6166 -0.0094,3.3489 7.9763,4.9879 8.4185,5.0857 8.2764,2.0611 12.7992,0.4985 13.0297,-0.1139 2.1,-1.8761 -2.8584,-6.7286 -4.7184,-8.7843 3.2886,-2.8946 7.4228,-7.0194 5.7316,-13.3393 z"
       stroke-width="1.3401" />
    <path
       id="Toenail2"
       fill="#b7cbe7"
       d="m 89.0711,100.2773 c -1.6389,0.0857 -1.7555,2.0557 -2.0758,3.3261 1.2557,0.3323 2.5918,0.6017 3.9319,0.7973 -0.2533,-1.592 -0.1488,-4.2146 -1.8561,-4.1234 z"
       stroke-width="1.3401" />
    <path
       id="Toenail1"
       fill="#b7cbe7"
       d="m 97.0956,100.296 c -2.3505,0.3096 -2.0115,2.8745 -2.0396,4.484 1.7327,0.0576 3.3087,-0.0282 4.5362,-0.2707 -0.4623,-1.718 -0.7317,-4.4464 -2.4966,-4.2133 z"
       stroke-width="1.3401" />
    <path
       id="Outline_5_"
       fill="#272525"
       d="m 103.8041,98.4159 c -0.7518,-0.7572 -1.6228,-1.4728 -2.4912,-2.1388 -0.5762,-0.4423 -1.1498,-0.8657 -1.6818,-1.2664 1.5786,-3.424 6.7849,-6.0907 4.9784,-13.2562 -0.477,-1.8936 -3.0125,-5.0026 -5.351,-5.4864 -0.2546,0.252 -0.9112,0.7531 -0.871,1.1619 0.0013,0.012 -0.0094,0.0254 -0.0067,0.0348 0.0388,0.1903 3.3877,2.0182 3.9734,4.2066 1.6912,6.3199 -2.443,10.4447 -5.7316,13.338 0.3162,0.3497 0.7263,0.7839 1.1712,1.2663 2.175,2.3573 5.2894,5.9594 3.5472,7.518 -0.1715,-1.0091 -0.6338,-2.2031 -1.0506,-3.1238 -1.4044,-3.109 -6.9524,-2.4282 -6.8318,2.0892 0.0228,0.8483 0.0295,1.458 0.0509,1.9284 -0.3109,-0.0268 -0.6258,-0.0536 -0.9407,-0.0857 0.1876,-1.0051 -0.197,-2.5757 -0.5682,-3.7228 -0.9515,-2.9402 -6.1926,-2.774 -6.5987,1.3334 -0.0335,0.347 -0.0616,0.6378 -0.0844,0.8898 -1.123,-0.3793 -2.1281,-0.8188 -2.9562,-1.312 -1.3147,-0.7826 -2.1723,-1.7019 -2.2742,-2.7418 -0.3752,-3.8622 10.1472,-8.0781 8.9867,-18.8417 0.2184,-0.9529 -0.406,-1.6698 -1.1954,-2.0209 -1.2503,-0.5548 -2.92,-0.1957 -2.3505,1.6336 2.0624,6.6053 -6.4941,14.5735 -7.7591,17.0178 -1.2168,2.3506 0.9809,4.8512 4.5925,6.8747 5.9982,3.3583 15.8935,5.3926 20.5262,3.2042 0.3069,-0.1434 0.6165,-0.3042 0.9166,-0.4985 0.8028,-0.5227 1.5398,-1.3281 1.9928,-3.0085 0.4931,-1.8279 -0.5106,-3.4963 -1.9928,-4.9932 z m -16.8088,5.1875 c 0.3203,-1.2704 0.4369,-3.2404 2.0758,-3.3261 1.7073,-0.0912 1.6028,2.5314 1.8561,4.1234 -1.3401,-0.1943 -2.6762,-0.465 -3.9319,-0.7973 z m 8.0607,1.1752 c 0.0281,-1.6094 -0.3109,-4.173 2.0396,-4.4839 1.7649,-0.2332 2.0343,2.4952 2.4966,4.2132 -1.2275,0.2426 -2.8035,0.3284 -4.5362,0.2707 z"
       stroke-width="1.3401" />
    <path
       id="Knee_Swirl"
       fill="#272525"
       d="m 97.6075,87.4231 c -0.075,1.0962 -0.4663,3.1278 -2.0074,3.247 -1.4875,0.1139 -1.4554,-2.3023 -0.5267,-2.7378 -0.2546,1.0051 -0.2332,1.9271 0.6821,1.7395 1.2664,-0.2587 1.3683,-3.7389 -0.1594,-3.3315 -2.9496,0.7853 -1.8159,4.9677 -0.2198,5.363 0.4891,0.1233 1.001,0.1783 1.5344,-0.6874 0.9086,-1.4728 1.5599,-3.0327 1.848,-4.5577 0.1554,1.3254 -0.7424,4.2159 -1.8989,5.544 -2.3224,2.6587 -4.9463,-0.713 -4.2455,-3.3034 0.6942,-2.5636 5.2867,-5.5721 4.9932,-1.2757 z"
       stroke-width="1.3401" />
  </g>
  <g
     id="Tail"
     transform="matrix(0.61300024,0,0,0.61300024,1.7554343,-0.36817125)">
    <path
       id="Fill_1_"
       class="mascot-fill"
       d="M 34.9503,35.4668 C 35.4364,34.6777 33.7795,33.018 33.7795,33.018 31.191,30.5212 29.1699,30.6477 27.4217,32.0977 23.1355,35.654 25.8449,47.63 14.8778,46.1701 c 4.4089,-0.6318 6.2241,-3.332 7.06,-6.5866 9e-4,-9e-4 9e-4,-9e-4 0.001,-0.0028 l 10e-5,-0.0019 c 1.2907,-5.0299 0.2387,-11.3838 2.7628,-13.4992 3.2087,-2.9943 6.6334,1.5614 9.7375,4.6127 2.1458,2.1913 2.0925,0.5786 2.2166,-1.3135 0.002,-0.0018 1.0266,6.3758 -1.7055,6.088 z"
       stroke-width="1.3401" />
    <path
       id="Outline_3_"
       fill="#272525"
       d="m 34.4412,30.6904 c -3.1041,-3.0512 -6.5289,-7.6069 -9.7375,-4.6126 -2.5241,2.1154 -1.4731,8.4702 -2.7629,13.4992 0,0.0019 -10e-4,0.0028 -0.0011,0.0047 -0.8359,3.2546 -2.651,5.9548 -7.06,6.5866 10.9672,1.4598 8.2577,-10.5161 12.5439,-14.0724 1.7483,-1.45 3.7703,-1.5755 6.3579,0.9203 0,0 1.6559,1.6606 1.1707,2.4488 -0.4852,0.7882 -2.7321,-0.2878 -2.7321,-0.2878 -2.7124,-2.4509 -3.3902,7.0149 -8.2979,11.1585 -2.176,1.8382 -5.9043,2.1445 -9.8229,0.6855 0.1689,1.2043 -0.5042,2.573 0.2917,3.4671 1.1666,1.3089 0.2949,5.2146 -0.8615,4.9025 -1.3581,-2.2409 -1.7176,-5.1993 -0.5253,-8.013 -1.8873,1.0299 -6.1069,2.3832 -6.4506,1.4905 1.1701,-1.1543 3.9509,-2.4937 6.1324,-2.955 -3.0832,-0.6109 -5.3562,-2.6597 -6.4186,-5.1161 0.4162,-1.1234 4.104,0.4281 4.4953,2.1379 0.3178,1.3934 2.4009,1.4767 3.0777,2.8247 0.1302,-0.006 0.2759,-0.0265 0.3962,-0.0214 -0.0395,0.0441 -0.0612,0.0955 -0.0876,0.1458 11.8132,-5.5178 3.265,-17.3295 6.579,-21.7528 1.7823,-2.38 7.2226,-4.6525 12.4028,0.6039 0,0 3.6521,2.7488 3.5289,4.6418 -0.1232,1.893 -0.0727,3.5047 -2.2185,1.3133 z"
       stroke-width="1.3401" />
  </g>
  <g
     id="L_Eye"
     transform="matrix(0.61300024,0,0,0.61300024,1.7554343,-0.36817125)">
    <g
       id="Eyeball">
      <path
         id="Outline"
         fill="#272525"
         d="m 126.3847,28.4615 c -1.651,2.6039 -1.5263,7.9723 0,10.6096 3.1386,5.4327 10.0226,2.908 11.4847,-1.6617 2.7833,-8.6959 -7.0717,-15.9177 -11.4847,-8.9479 z m 3.4173,10.3523 c -2.4805,-1.6403 -2.9723,-9.7412 0.3484,-10.6042 1.0547,-0.2734 3.0997,-0.2626 4.5068,1.4607 2.1562,2.6454 1.9337,13.6341 -4.8552,9.1435 z"
         stroke-width="1.3401" />
      <path
         id="White"
         fill="#ffffff"
         d="m 130.1504,28.2096 c -3.3207,0.863 -2.8276,8.9639 -0.3484,10.6042 6.7876,4.492 7.01,-6.4981 4.8552,-9.1421 -1.4071,-1.7247 -3.4521,-1.7355 -4.5068,-1.4621 z"
         stroke-width="1.3401" />
      <path
         id="Pupil"
         fill="#272525"
         d="m 134.0206,32.6936 c 0.5696,0 1.0855,0.3042 1.4594,0.7973 0.3739,0.4918 0.6057,1.1726 0.6057,1.9231 0,0.7504 -0.2318,1.4312 -0.6057,1.923 -0.3739,0.4932 -0.8898,0.7974 -1.4594,0.7974 -0.5695,0 -1.0855,-0.3042 -1.4594,-0.7974 -0.3738,-0.4918 -0.6057,-1.1726 -0.6057,-1.923 0,-0.7505 0.2319,-1.4313 0.6057,-1.9231 0.3739,-0.4931 0.8899,-0.7973 1.4594,-0.7973 z"
         stroke-width="1.3401" />
    </g>
    <g
       id="Eyelid_2_">
      <path
         id="Lid"
         fill="#b7cbe7"
         d="m 136.7316,27.6843 c -2.3478,-2.1455 -3.9439,-3.2002 -7.4107,-2.4537 -2.3733,0.5052 -3.4762,1.8868 -4.6032,3.8621 -0.9957,1.7515 -0.5508,2.7982 -0.2761,4.484 2.7472,-1.9324 11.1362,-5.7437 12.2083,-5.8857 0.0214,-0.0027 0.0563,-0.004 0.0817,-0.0067 z"
         stroke-width="1.3401" />
      <path
         id="Lash"
         fill="#272525"
         d="m 136.7316,27.6843 c -0.0268,0.0027 -0.0603,0.004 -0.0817,0.0067 -1.0748,0.142 -9.4638,3.9506 -12.2083,5.8857 -0.6245,0.4369 -0.9595,0.7799 -0.8523,0.9608 0.9394,1.5814 12.4307,-4.563 14,-6.0585 0.7987,-0.7625 -0.402,-0.8336 -0.8577,-0.7947 z"
         stroke-width="1.3401" />
    </g>
  </g>
  <g
     id="R_Eye"
     transform="matrix(0.61300024,0,0,0.61300024,1.7554343,-0.36817125)">
    <g
       id="Eyeball_1_">
      <path
         id="Outline_1_"
         fill="#272525"
         d="m 144.2362,29.3313 c -1.257,1.986 -1.1619,6.0853 0,8.0982 2.3934,4.1502 7.3517,3.5124 8.7655,-1.2691 1.9726,-6.6777 -5.4006,-12.148 -8.7655,-6.8291 z m 2.6078,7.9025 c -1.8922,-1.253 -2.2648,-7.4348 0.2653,-8.0928 0.8054,-0.2118 2.368,-0.2024 3.4414,1.1136 1.6483,2.0168 1.4768,10.4072 -3.7067,6.9792 z"
         stroke-width="1.3401" />
      <path
         id="White_1_"
         fill="#ffffff"
         d="m 147.1093,29.141 c -2.5314,0.658 -2.1575,6.8398 -0.2653,8.0928 5.1835,3.428 5.355,-4.9624 3.708,-6.9792 -1.0747,-1.316 -2.6373,-1.3254 -3.4427,-1.1136 z"
         stroke-width="1.3401" />
      <path
         id="Pupil_1_"
         fill="#272525"
         d="m 150.5493,32.9321 c 0.3887,0 0.7411,0.2077 0.9957,0.5441 0.2547,0.3363 0.4128,0.8 0.4128,1.3119 0,0.512 -0.1581,0.9756 -0.4128,1.312 -0.2546,0.3364 -0.607,0.5441 -0.9957,0.5441 -0.3886,0 -0.741,-0.2077 -0.9956,-0.5441 -0.2547,-0.3364 -0.4128,-0.8 -0.4128,-1.312 0,-0.5119 0.1581,-0.9756 0.4128,-1.3119 0.2546,-0.3364 0.607,-0.5441 0.9956,-0.5441 z"
         stroke-width="1.3401" />
    </g>
    <g
       id="Eyelid">
      <path
         id="Lid_1_"
         fill="#b7cbe7"
         d="m 144.2589,27.5154 c -2.5997,1.6966 -3.2363,4.8539 -2.2929,6.2583 2.5757,-1.7073 9.2574,-4.7533 10.5091,-5.0508 -1.1954,-2.7888 -5.5494,-2.9402 -8.2162,-1.2075 z"
         stroke-width="1.3401" />
      <path
         id="Lash_1_"
         fill="#272525"
         d="m 152.6024,28.692 c -0.0282,0.0041 -0.0871,0.0242 -0.1273,0.0309 -1.2517,0.2975 -7.9334,3.3395 -10.5091,5.0508 -0.6982,0.4677 -1.1109,0.8362 -1.0024,1.0185 0.8376,1.4097 11.08,-4.0659 12.4763,-5.3953 0.7518,-0.7236 -0.4985,-0.7504 -0.8375,-0.7049 z"
         stroke-width="1.3401" />
    </g>
  </g>
</svg>
