<?xml version="1.0" encoding="UTF-8" standalone="no"?>
<svg
   width="118.49137"
   height="180"
   viewBox="-0.09739998 1.5474 118.49137 180"
   version="1.1"
   xml:space="preserve"
   id="svg158"
   sodipodi:docname="giraffe.svg"
   inkscape:version="1.2.2 (b0a8486541, 2022-12-01)"
   xmlns:inkscape="http://www.inkscape.org/namespaces/inkscape"
   xmlns:sodipodi="http://sodipodi.sourceforge.net/DTD/sodipodi-0.dtd"
   xmlns="http://www.w3.org/2000/svg"
   xmlns:svg="http://www.w3.org/2000/svg"><defs
   id="defs162" /><sodipodi:namedview
   id="namedview160"
   pagecolor="#ffffff"
   bordercolor="#000000"
   borderopacity="0.25"
   inkscape:showpageshadow="2"
   inkscape:pageopacity="0.0"
   inkscape:pagecheckerboard="0"
   inkscape:deskcolor="#d1d1d1"
   showgrid="false"
   inkscape:zoom="0.89861689"
   inkscape:cx="86.80006"
   inkscape:cy="131.86932"
   inkscape:window-width="1870"
   inkscape:window-height="1011"
   inkscape:window-x="0"
   inkscape:window-y="0"
   inkscape:window-maximized="1"
   inkscape:current-layer="svg158" />
  <g
   id="g156"
   transform="matrix(0.68555996,0,0,0.68555996,-0.09767455,0.78358586)">
    <title
   id="title2">Slice 1</title>
    <desc
   id="desc4">Created with Sketch.</desc>
    <g
   id="Page-1"
   stroke="none"
   fill-rule="evenodd">
      <g
   id="giraffe-c-[animals,savanna,robert-hunter]">
        <g
   id="Group-7">
          <path
   id="Fill-1"
   transform="translate(71,126)"
   style="fill:#624b59"
   d="m 42.277918,133.47348 v 4.19976 h 12.786956 l -2.506243,-3.59659 -4.263322,-1.66941 H 42.37194 Z" />
          <path
   d="m 71.6469,131.705 c 0,0 2.5386,0.562 1.9745,9.3661 -0.5642,8.8041 -0.3761,12.5506 -0.3761,12.5506 0,0 -0.6582,2.4352 2.8206,5.526 3.4788,3.0908 12.5049,13.8618 18.241,29.2012 0,0 4.9824,11.2603 5.2645,13.6018 0.282,2.3416 -0.6582,4.6831 0,6.65 0.6581,1.9668 4.7951,8.0548 6.3934,15.6413 0,0 4.8892,20.6991 4.325,31.0955 2.1625,0.7493 1.5984,2.4861 3.0087,3.0698 1.4104,0.583 4.5131,0.2593 5.9234,0 0,0 2.6326,-1.1966 0.4197,-7.0972 -2.7891,-7.4375 -5.2848,-13.0684 -6.7192,-21.1674 -1.4103,-7.9612 -2.6205,-12.7499 -2.3505,-15.4541 0.1865,-1.8724 0.6363,-5.6039 0.5641,-7.7738 -0.1263,-3.7937 -3.1027,-5.4324 -6.2054,-13.3936 -3.1027,-7.9611 -7.7098,-26.787 -8.2739,-30.5334 -0.5642,-3.7465 -0.4701,-7.7739 0.5641,-11.5203 1.0342,-3.7465 3.9489,-16.1097 3.4788,-24.9138 0,0 -12.8381,12.5505 -12.3371,7.2118 1.3027,-13.8715 -15.4128,-3.2249 -16.7156,-2.0605"
   id="Fill-2"
   fill="#debb9b"
   stroke-width="1" />
          <path
   d="m 119.3945,258.407 c -0.258,0.0165 -1.7548,-0.6241 -1.6924,-1.4986 0.0625,-0.8744 1.0659,-2.6854 0.5017,-4.0589 -0.5641,-1.3734 -1.5088,-3.6205 -0.5039,-4.0581 1.0049,-0.4376 2.6973,3.8708 2.7289,5.5567 0.0316,1.6859 -0.0941,3.9967 -1.0343,4.0589"
   id="Fill-4"
   class="mascot-fill"
   stroke-width="1" />
          <path
   d="m 112.3062,257.8034 c 0,0 3.6984,-1.7488 3.1343,-3.2474 -0.5641,-1.4986 -1.3208,-4.3077 -1.5382,-5.3694 -0.2174,-1.0618 -0.1542,-2.2486 -1.314,-1.9362 -1.1599,0.3125 -2.3506,1.5308 -2.3506,1.5308 l 0.2505,6.1494 c 0,0 1.8639,1.7721 1.818,2.8728"
   id="Fill-6"
   class="mascot-fill"
   stroke-width="1" />
          <path
   d="m 117.2577,245.372 c 0,0 -5.6382,0.2773 -6.1399,-0.2225 -0.5017,-0.4998 -1.7549,-8.9293 -1.7549,-8.9293 0,0 -0.2512,-2.3108 0.5642,-2.373 0.8146,-0.0622 4.4408,2.2561 4.4423,2.3813 0.0241,1.6154 0.9312,1.518 2.8883,9.1435"
   id="Fill-8"
   class="mascot-fill"
   stroke-width="1" />
          <path
   d="m 113.278,232.1403 c 0,0 -3.727,0.0839 -4.2912,-1.7271 -0.5641,-1.8111 0,-9.9903 0,-11.2393 0,-1.2491 0.9403,-1.5893 1.5044,-2.0261 0.5641,-0.4368 0.8913,4.477 1.7059,8.6603 0.8146,4.1832 1.0809,6.3322 1.0809,6.3322"
   id="Fill-10"
   class="mascot-fill"
   stroke-width="1" />
          <path
   d="m 107.7953,228.3529 c 0.067,0.2405 0.2512,-5.6826 0,-6.8688 -0.2512,-1.1861 -0.7522,-0.499 -1.4411,-0.6241 -0.6905,-0.1251 1.1282,6.3689 1.4411,7.4929"
   id="Fill-12"
   class="mascot-fill"
   stroke-width="1" />
          <path
   d="m 105.1149,220.7736 c 0.1257,-0.3747 3.6203,-4.6591 3.6203,-4.6591 0,0 1.1282,-0.3754 1.0034,-1.5615 -0.1264,-1.1861 -0.7522,-5.1821 -1.0034,-6.4311 -0.2513,-1.2491 -0.9666,-2.1228 -1.6744,-1.7481 -0.707,0.3746 -1.7736,1.4986 -2.7138,1.1239 -0.9402,-0.3746 -1.5668,-1.1869 -2.2565,-0.4376 -0.689,0.7493 -1.3321,2.7042 -1.7082,3.141 -0.3761,0.4369 2.1008,3.165 2.9154,5.8497 0.8146,2.6847 1.8172,4.7228 1.8172,4.7228"
   id="Fill-14"
   class="mascot-fill"
   stroke-width="1" />
          <path
   d="m 110.4911,206.2862 c 0,0 -3.4442,-0.5994 -4.2926,-1.9107 -0.8477,-1.3113 -0.2844,-0.9441 1.2207,-1.7721 1.5051,-0.8287 1.5864,0.7238 2.3295,1.841 0.7424,1.1172 0.7424,1.8418 0.7424,1.8418"
   id="Fill-16"
   class="mascot-fill"
   stroke-width="1" />
          <path
   d="m 108.4138,200.4499 c 0,0 -3.815,2.6772 -6.3844,2.7394 -2.5702,0.0622 -3.8481,-5.7335 -3.8481,-5.7335 l 5.8887,-6.5166 c 0,0 3.1516,8.5778 4.3438,9.5107"
   id="Fill-18"
   class="mascot-fill"
   stroke-width="1" />
          <path
   d="m 96.3247,191.4504 c -0.0986,-0.3664 -0.1881,-7.3063 0.6897,-8.4924 0.8778,-1.1861 3.1343,-2.1849 3.1343,-2.1849 0,0 1.19,4.4328 2.0053,6.4933 0.8154,2.0606 -0.8146,4.8074 -2.1933,5.6197 -1.3795,0.8122 -2.947,1.1247 -3.636,-1.4357"
   id="Fill-20"
   class="mascot-fill"
   stroke-width="1" />
          <path
   d="m 100.6181,179.3235 c 0,0 -4.4815,1.6365 -5.7978,0.0757 -1.3163,-1.5608 -0.1248,-2.3723 0.2512,-2.872 0.3761,-0.4998 3.9625,-2.6165 4.0874,-2.8039 0.1256,-0.1873 1.4592,5.2256 1.4592,5.6002"
   id="Fill-22"
   class="mascot-fill"
   stroke-width="1" />
          <path
   d="m 94.8938,189.523 c 0,0 1.0546,-6.0662 0.3656,-7.3145 -0.6898,-1.2483 -2.3197,-1.9976 -2.8207,-4.1833 -0.5017,-2.1856 -1.1282,-4.2222 -1.8804,-2.8915 -0.7522,1.3308 -1.0847,2.3805 -1.0847,2.3805 0,0 5.6466,10.55 5.4202,12.0088"
   id="Fill-24"
   class="mascot-fill"
   stroke-width="1" />
          <path
   d="m 98.6451,172.5097 c 0,0 -2.7762,1.1352 -3.1441,1.7017 -0.367,0.5672 -0.9312,1.6282 -1.6833,1.3786 -0.7522,-0.2495 -4.2626,-2.4966 -4.4506,-4.0581 -0.1881,-1.5615 1.1282,-5.8699 1.818,-8.3673 0.6897,-2.4974 0.5641,-3.6213 2.0684,-4.3084 1.5044,-0.6871 2.2558,0.3124 2.6951,0.9366 0.4393,0.6242 2.1151,11.0647 2.6965,12.7169"
   id="Fill-26"
   class="mascot-fill"
   stroke-width="1" />
          <path
   d="m 96.2644,157.6491 c 0,0 -2.9342,-1.6027 -3.5051,-2.5393 -0.5717,-0.9367 -1.7631,-2.9043 -1.888,-3.8559 -0.1248,-0.9523 -0.5009,-1.4558 0,-2.2965 0.501,-0.8407 5.955,-2.5896 6.8328,-3.1515 0.877,-0.562 1.2531,-0.2503 0.5009,1.8732 -0.7521,2.1235 -1.5352,6.7908 -1.5352,6.7908 z"
   id="Fill-28"
   class="mascot-fill"
   stroke-width="1" />
          <path
   d="m 85.8016,171.2555 c 0,0 1.1832,0.0262 1.4337,-1.1599 0.2512,-1.1861 -0.313,-3.5584 0.8153,-6.4311 1.1283,-2.8728 3.7609,-5.308 3.3848,-6.3068 -0.3761,-0.9988 -1.4419,-3.1215 -1.7556,-3.996 -0.3129,-0.8744 -0.4641,-1.1239 -1.0778,-1.0617 -0.6146,0.0622 -2.5574,3.1837 -3.6233,3.2467 -1.065,0.0629 -2.1933,-0.0622 -2.6326,1.249 -0.4377,1.3113 -1.566,6.9309 -1.566,6.9309 0,0 4.3949,6.0933 5.0215,7.5289"
   id="Fill-30"
   class="mascot-fill"
   stroke-width="1" />
          <path
   d="m 77.8119,160.7933 c 0.1257,-0.1873 3.7195,-5.1843 4.4093,-5.9958 0.6897,-0.8114 1.0034,-1.8897 1.0658,-2.5063 0.0624,-0.616 -0.6897,-1.0565 -2.0685,-3.3336 -1.3787,-2.2771 -1.1907,-3.0271 -2.1309,-2.902 -0.9402,0.1251 -5.8293,6.4941 -4.4506,4.8082 1.3787,-1.6859 -2.079,4.0851 -0.3866,6.1456 1.6924,2.0606 3.5615,3.7839 3.5615,3.7839"
   id="Fill-32"
   class="mascot-fill"
   stroke-width="1" />
          <path
   d="m 83.2909,143.5582 c 0,0 -0.8815,5.6781 0.8109,5.3994 1.6924,-0.2788 6.7695,-2.5896 9.0261,-4.4313 2.2565,-1.8418 5.3818,-2.8413 5.4803,-3.8401 0.0985,-0.9988 -0.0361,-1.8732 0,-2.2479 0.0361,-0.3746 0.0985,-0.9373 -0.8417,-1.0617 -0.9402,-0.1244 -5.9549,-0.8115 -5.9549,-0.8115 0,0 -1.1907,-7e-4 -1.8173,0.4368 -0.6273,0.4376 0.0624,2.6226 -1.8804,3.6843 -1.9437,1.0617 -3.3848,1.2491 -3.9489,1.6237 -0.5642,0.3746 -0.8222,0.8722 -0.8741,1.2483"
   id="Fill-34"
   class="mascot-fill"
   stroke-width="1" />
          <path
   d="m 74.8877,146.431 c 0,0 6.3183,-3.9967 8.1739,-5.4953 1.8556,-1.4986 2.6439,-1.56 3.0643,-2.5596 0.4205,-0.9995 0.92,-2.0193 0.7951,-6.2026 -0.1256,-4.1832 -0.9432,-3.5763 -1.633,-3.8258 -0.6897,-0.2495 -4.5228,-1.2319 -4.5228,-1.2319 0,0 -2.3588,2.6563 -2.8613,3.2804 -0.5009,0.6242 -1.7631,3.6715 -2.6401,5.045 -0.877,1.3734 -0.188,4.1833 -0.3761,5.807 -0.188,1.6237 -0.519,4.6321 -0.0812,4.7939"
   id="Fill-36"
   class="mascot-fill"
   stroke-width="1" />
          <path
   d="m 71.7204,131.705 c 0,0 2.5386,0.562 1.9744,9.3661 -0.5641,8.8041 -0.376,12.5506 -0.376,12.5506 0,0 -0.6582,2.4352 2.8206,5.526 3.4788,3.0908 12.5049,13.8618 18.241,29.2012 0,0 4.9824,11.2603 5.2644,13.6018 0.2821,2.3416 -0.6581,4.6831 0,6.65 0.6582,1.9668 4.7952,8.0548 6.3935,15.6413 0,0 4.8891,20.6991 4.325,31.0955 2.1625,0.7493 1.5984,2.4861 3.0087,3.0698 1.4103,0.583 4.5131,0.2593 5.9234,0 0,0 2.6326,-1.1966 0.4197,-7.0972 -2.7891,-7.4375 -5.2848,-13.0684 -6.7192,-21.1674 -1.4103,-7.9612 -2.6205,-12.7499 -2.3505,-15.4541 0.1865,-1.8724 0.6363,-5.6039 0.5641,-7.7738 -0.1263,-3.7937 -3.1027,-5.4324 -6.2054,-13.3936 -3.1027,-7.9611 -7.7098,-26.787 -8.2739,-30.5334 -0.5642,-3.7465 -0.4701,-7.7739 0.5641,-11.5203 1.0342,-3.7465 3.9489,-16.1097 3.4788,-24.9138"
   id="Stroke-38"
   stroke="#533d37"
   stroke-width="0.5625"
   fill="none" />
        </g>
        <g
   id="Group-280">
          <g
   id="Group-6">
            <path
   d="m 24.3782,142.5697 c 0.094,10.3963 7.0516,16.4843 4.7951,28.9412 -2.2565,12.4569 -14.7614,25.0075 -14.7614,25.0075 0,0 0.282,16.859 -3.7609,34.0926 -4.0429,17.2336 -10.2484,27.068 -10.2484,27.068 3.6669,1.8732 8.1799,0.6556 8.1799,0.6556 -0.8462,-1.7795 1.8805,-11.8949 1.8805,-11.8949 0,0 8.744,-29.5969 11.0945,-37.1834 2.3506,-7.5866 2.3506,-9.9281 18.0522,-31.4701 15.7016,-21.542 11.9408,-35.2165 11.9408,-35.2165 0,0 -3.7609,-4.5894 -13.0691,4.8703 -7.4675,7.5896 -14.1032,-4.8703 -14.1032,-4.8703"
   id="Fill-40"
   fill="#debb9b"
   stroke-width="1" />
            <path
   id="Fill-42"
   transform="translate(0,141.4226)"
   style="fill:#af7444"
   d="m 9.6802526,108.16223 1.5660264,-6.95339 -4.4852134,1.13292 -2.638626,6.59074 z" />
            <path
   d="m 7.6247,241.2824 c 0.094,-0.1873 2.0828,-6.9152 2.0828,-6.9152 0,0 3.4818,-1.4146 4.2814,-1.2273 0.7988,0.1873 -1.7661,7.3528 -1.7661,7.3528 z"
   id="Fill-44"
   class="mascot-fill"
   stroke-width="1" />
            <path
   d="m 15.2919,230.1427 c 0,0 -3.6067,-0.4683 -4.504,-0.1199 l 1.0854,-5.2727 5.9279,-3.0339 z"
   id="Fill-46"
   class="mascot-fill"
   stroke-width="1" />
            <path
   d="m 12.3964,221.7132 c -0.0497,0.1071 3.7548,-2.6225 4.695,-3.0436 0.9402,-0.4219 2.0219,-4.7775 2.0219,-4.7775 0,0 0.7048,-2.8563 -0.5642,-2.5753 -1.2696,0.281 -2.68,1.4589 -2.5386,-0.0195 0.1407,-1.479 0.6108,-9.5803 0.6108,-9.5803 0,0 -1.8022,-1.8583 -2.0843,-1.7646 -0.282,0.0936 -1.3193,19.9812 -2.1406,21.7608"
   id="Fill-48"
   class="mascot-fill"
   stroke-width="1" />
            <path
   d="m 21.3379,209.9689 c -0.1407,0 -3.8707,-0.2442 -3.9173,-1.6027 -0.0474,-1.3577 0.282,-7.1182 0.282,-7.2583 0,-0.1409 -0.1414,-1.7331 0.8462,-2.0606 0.9869,-0.3282 8.8306,-3.4452 8.8306,-3.4452 0,0 -2.9117,5.0052 -3.4758,6.6439 -0.5642,1.6395 -2.5657,7.7229 -2.5657,7.7229"
   id="Fill-50"
   class="mascot-fill"
   stroke-width="1" />
            <path
   d="m 14.4119,196.5184 c 0,0 4.7951,-0.5148 8.3679,-2.3415 3.5728,-1.826 5.0772,-2.107 5.4999,-3.3718 0.4235,-1.2648 2.2099,-6.6964 2.2099,-6.6964 0,0 0.2821,-1.3585 -0.9402,-0.8902 -1.2223,0.4683 -6.1528,1.859 -6.1528,1.859 0,0 -6.4928,10.1768 -8.9847,11.4409"
   id="Fill-52"
   class="mascot-fill"
   stroke-width="1" />
            <path
   d="m 24.9218,182.5263 c 0.282,-0.2338 4.6747,-2.1647 6.1317,-2.3048 1.4577,-0.1409 1.7864,-0.0937 2.2099,-0.8902 0.4227,-0.7957 0.5167,-2.2943 1.5984,-2.2006 1.0808,0.0936 4.3671,1.1771 4.3671,1.1771 0,0 5.8376,-8.6063 6.4491,-10.1049 0.1271,-0.6556 -1.3674,-4.2784 -2.6364,-4.3721 -1.2696,-0.0937 -4.0903,2.0133 -5.3592,2.7626 -1.2697,0.7493 -1.636,0.7028 -2.158,0.5155 -0.522,-0.1873 -1.2742,-0.8901 -1.6969,0.6557 -0.4235,1.545 -0.6115,3.6055 -0.6115,3.6055 0,0 -2.5935,4.8082 -4.0896,5.6197 -1.9917,1.0805 -4.2046,5.5365 -4.2046,5.5365"
   id="Fill-54"
   class="mascot-fill"
   stroke-width="1" />
            <path
   d="m 29.5391,168.7149 c -1.4208,0.7636 4.1942,-2.7356 4.0061,-4.8868 -0.188,-2.152 -1.551,-3.7442 -1.551,-3.7442 0,0 -1.2696,-0.8894 -1.0342,-1.7796 0.2347,-0.8894 3.4788,-4.9168 3.4788,-4.9168 0,0 0.8928,-0.6556 0.5641,-1.3584 -0.3294,-0.7021 -8.2739,1.5517 -8.2739,1.5517 0,0 1.7827,5.3589 2.4303,8.204 0.704,3.0908 0.3798,6.9301 0.3798,6.9301"
   id="Fill-56"
   class="mascot-fill"
   stroke-width="1" />
            <path
   d="m 36.507,164.4863 c 0,0 -1.7398,-4.402 -2.0685,-5.9471 -0.3294,-1.5457 0,-2.4823 1.0342,-3.2316 1.0343,-0.7493 2.5386,-1.0775 2.8207,-2.6225 0.2821,-1.5451 0.7055,-3.4183 2.0211,-3.8401 1.3163,-0.4211 4.1843,-2.2007 4.7485,-1.7796 0.5641,0.4219 0.7055,7.5393 0.5641,10.0217 -0.1407,2.4824 -1.551,4.1683 -4.8425,5.7133 -3.2908,1.5458 -3.1494,2.7162 -4.2776,1.6859"
   id="Fill-58"
   class="mascot-fill"
   stroke-width="1" />
            <path
   d="m 47.2343,165.1127 c 0,0 -0.4994,-1.3765 -0.5302,-1.5458 -0.1806,-0.9936 -0.6966,-4.6786 0.7093,-8.3995 1.6457,-4.3556 3.6668,-7.6802 3.6202,-4.7767 -0.0474,2.9035 -0.0504,4.5436 -0.4784,5.8407 -1.627,4.9325 -3.3246,8.7689 -3.8203,7.5048"
   id="Fill-60"
   class="mascot-fill"
   stroke-width="1" />
            <path
   d="m 2.3771,258.7239 -1.0342,4.1997 h 11.8467 l -1.2223,-2.0995 c 0,0 -2.3505,-0.9613 -3.9489,-2.1002 -1.5984,-1.1389 -4.771,0.5844 -5.6413,0"
   id="Fill-62"
   fill="#624b59"
   stroke-width="1" />
            <path
   d="m 24.3782,142.5697 c 0.094,10.3963 7.0516,16.4843 4.7951,28.9412 -2.2565,12.4569 -14.7614,25.0075 -14.7614,25.0075 0,0 0.282,16.859 -3.7609,34.0926 -4.0429,17.2336 -10.2484,27.068 -10.2484,27.068 3.6669,1.8732 8.1799,0.6556 8.1799,0.6556 -0.8462,-1.7795 1.8805,-11.8949 1.8805,-11.8949 0,0 8.744,-29.5969 11.0945,-37.1834 2.3506,-7.5866 2.3506,-9.9281 18.0522,-31.4701 15.7016,-21.542 11.9408,-35.2165 11.9408,-35.2165"
   id="Stroke-64"
   stroke="#533d37"
   stroke-width="0.5625"
   fill="none" />
          </g>
          <g
   id="Group-5">
            <path
   d="m 22.8724,137.2932 c 0,0 2.4303,33.156 -8.7267,39.3376 0,0 12.5989,-7.8675 10.5364,-32.2508"
   id="Fill-66"
   class="mascot-fill"
   stroke-width="1" />
            <path
   d="m 22.8724,137.2932 c 0,0 2.4303,33.156 -8.7267,39.3376 0,0 12.5989,-7.8675 10.5364,-32.2508"
   id="Stroke-68"
   stroke="#533d37"
   stroke-width="0.5625"
   fill="none" />
            <path
   d="m 10.0972,173.0951 c 0,0 0.2497,4.4335 4.3867,3.3718"
   id="Stroke-70"
   stroke="#533d37"
   stroke-width="0.5625"
   fill="none" />
            <path
   d="m 8.5679,175.5697 c 0.188,0.0622 3.569,2.7439 5.5781,1.061"
   id="Stroke-72"
   stroke="#533d37"
   stroke-width="0.5625"
   fill="none" />
            <path
   d="m 8.5679,177.9421 c 0.2504,0 4.0737,1.5607 5.2652,-1.3113"
   id="Stroke-74"
   stroke="#533d37"
   stroke-width="0.5625"
   fill="none" />
            <path
   d="m 11.077,179.4092 c 0.1881,-0.1244 2.5078,0.6871 3.1968,-2.7784"
   id="Stroke-76"
   stroke="#533d37"
   stroke-width="0.5625"
   fill="none" />
          </g>
          <g
   id="Group-4">
            <path
   d="m 144.7635,30.145 c 0,0 1.1749,1.889 4.0196,3.6761 2.844,1.7878 7.357,3.4736 14.0325,3.0675 0,0 0.8146,2.9342 2.8831,3.6213 2.0685,0.6871 4.9523,0.7493 6.5815,0 0.4393,-0.2495 0.3491,-0.4645 -0.376,-3.9337 -0.8146,-3.9016 -7.2706,-7.367 -14.5734,-23.4767 0,0 -2.4122,-4.4335 -10.5921,-2.1542 -6.5665,1.4356 -14.0416,15.3439 -18.2275,21.4686 -4.519,6.6686 -18.7712,32.1946 -41.2424,41.0924 0,0 -4.5913,2.0486 -8.1483,2.974 -1.5119,0.3926 -6.0332,0.8077 -7.6782,2.54 -1.6458,1.7331 -7.4277,8.4767 -8.65,9.6943 -1.2223,1.2176 -5.3036,5.7898 -9.7783,9.3189 -7.005,5.526 -15.4669,7.1182 -20.7788,14.7048 -6.1279,8.7517 -9.9196,14.7984 -9.3081,27.1617 0.6108,12.3632 13.3609,23.7239 25.4325,22.8068 16.6418,-1.2648 38.0668,-19.48 42.9371,-23.5396 5.269,-4.3924 15.731,-10.2443 14.7456,-17.4839 -0.7522,-5.526 -1.5322,-10.4151 -1.9549,-12.8038 0,0 -1.1012,-3.6805 3.976,-9.8622 0,0 10.6876,-13.1747 18.1462,-27.5363 7.4593,-14.3616 14.6523,-31.7428 16.5952,-35.6144 0,0 2.7966,0.7253 6.1197,-1.9579"
   id="Fill-86"
   fill="#fadab9"
   stroke-width="1" />
            <path
   d="m 36.474,159.9079 c 0,0 -2.2077,-3.6947 -2.0196,-3.6947 0.188,0 3.1343,-2.7469 2.8838,-5.9314 -0.2512,-3.1845 1.4412,-3.3104 2.6951,-5.1206 1.2538,-1.8103 3.5096,-6.5563 3.4472,-0.562 -0.0625,5.9943 0.0015,15.236 0.0015,15.236 z"
   id="Fill-88"
   class="mascot-fill"
   stroke-width="1" />
            <path
   d="m 49.3733,152.0301 c 0,0 -1.6924,-9.2417 -1.5044,-9.3039 0.1881,-0.0622 7.3337,0.9996 7.3337,0.9996 l -1.3163,8.3043 z"
   id="Fill-90"
   class="mascot-fill"
   stroke-width="1" />
            <path
   d="m 50.5016,155.0895 c 0,0 4.513,-0.499 4.9515,-3.0593 0.4385,-2.5603 0.5641,-6.1809 1.818,-5.6819 1.2531,0.4991 4.325,1.6859 4.325,1.6859 0,0 3.3848,-1.6866 4.3875,-2.6854 1.0026,-0.9988 0.9402,3.4347 1.1282,6.2445 0.1881,2.8099 -6.3935,6.4319 -11.157,8.2422 -2.2565,0.7493 -6.498,-4.5557 -5.4532,-4.746"
   id="Fill-92"
   class="mascot-fill"
   stroke-width="1" />
            <path
   d="m 44.7971,161.7709 c -0.2452,-0.0518 0,-14.9236 0,-14.9236 h 1.8804 c 0,0 2.0098,11.3509 4.8508,13.0608 2.8402,1.7091 -4.6628,2.2996 -6.7312,1.8628"
   id="Fill-94"
   class="mascot-fill"
   stroke-width="1" />
            <path
   d="m 35.2069,147.6595 c -0.1618,0.1147 0,-7.056 0,-7.056 0,0 0.5641,-2.1235 -0.4386,-2.7477 -1.0026,-0.6241 -3.1343,-0.6863 -2.3821,-2.3722 0.7522,-1.6859 0.6273,-2.1235 2.5702,-3.2474 1.9428,-1.124 6.832,-5.3072 6.832,-5.3072 0,0 0.7521,-0.3125 2.0685,3.3718 1.3163,3.6842 3.1674,3.7472 0.8311,6.3067 -2.3355,2.5596 -7.7263,9.8037 -9.4811,11.052"
   id="Fill-96"
   class="mascot-fill"
   stroke-width="1" />
            <path
   d="m 33.4851,149.5613 c 0.501,-0.1873 0,-8.4924 0,-8.4924 0,0 0.5619,-1.124 -1.1606,-1.7481 -1.7232,-0.6242 -2.8515,-1.3735 -2.8515,-1.3735 v -8.9914 c 0,0 -0.2504,-0.3117 -2.5694,2.2478 -2.3197,2.5596 -3.8827,4.0552 -3.8827,4.0552 0,0 -0.8846,10.7313 4.1557,16.2228 0.7996,0.7972 5.8068,-1.7331 6.3085,-1.9204"
   id="Fill-98"
   class="mascot-fill"
   stroke-width="1" />
            <path
   d="m 31.0699,132.9855 c -0.0632,-0.1873 0,-8.9285 0,-8.9285 0,0 -0.5641,-1.4356 0.8154,-3.3718 1.3779,-1.9361 5.5149,-8.2421 5.5149,-8.2421 0,0 0.9507,-1.7983 0.2512,8.3043 -0.6995,10.1027 -0.2512,6.7436 -0.2512,6.7436 0,0 -0.689,1.6237 -3.9489,4.0589 -3.2584,2.4352 -2.3814,1.4356 -2.3814,1.4356"
   id="Fill-100"
   class="mascot-fill"
   stroke-width="1" />
            <path
   d="m 39.7831,123.5572 v -12.4884 c 0,0 -0.5551,-0.9366 6.0219,-4.1833 6.577,-3.2466 9.8354,-4.746 9.8354,-3.4969 v 12.4884 c 0,0 0.0632,0.6871 -2.7575,2.0605 -2.8206,1.3735 -11.2194,6.0565 -11.2194,6.0565 0,0 -1.8804,1.4986 -1.8804,-0.4368"
   id="Fill-102"
   class="mascot-fill"
   stroke-width="1" />
            <path
   d="m 46.1766,131.7993 c -0.2866,-0.251 -2.1212,-3.3725 -0.3716,-5.5574 1.7495,-2.1849 4.5333,-5.0577 4.5333,-5.0577 0,0 0.9154,-1.7489 2.7959,2.0605 1.8804,3.8094 4.4498,8.5546 4.4498,8.5546 0,0 1.6292,1.6859 0,3.5592 -1.6292,1.8732 -3.1967,4.9318 -3.1967,4.9318 0,0 -0.1881,1.4993 -3.2599,0.9373 -3.0704,-0.5619 -5.3224,-1.2483 -5.3224,-1.2483 0,0 -0.8725,0 0,-1.249 0.8725,-1.2491 2.0489,-3.9338 2.0489,-3.9338 0,0 -0.1106,-1.6237 -1.6773,-2.9972"
   id="Fill-104"
   class="mascot-fill"
   stroke-width="1" />
            <path
   d="m 54.4505,118.7491 2.1933,-1.4986 0.6273,-5.5567 c 0,0 -0.0955,-1.0618 1.4562,-1.2491 1.5525,-0.1873 4.3732,-0.6871 4.3732,-0.6871 0,0 1.3155,-0.1866 1.9421,1.9362 0.6273,2.1227 2.073,6.4933 2.073,6.4933 0,0 1.3749,1.1247 -0.9448,2.8728 -2.3182,1.7481 -3.9489,2.9342 -3.9489,2.9342 0,0 -1.2839,1.3112 -1.2365,2.0605 0.0466,0.7493 -0.3927,1.0618 -1.2697,1.4364 -0.8786,0.3747 -1.9436,1.3735 -2.5078,0 -0.5641,-1.3734 -3.1967,-7.4307 -3.1967,-7.4307 0,0 -0.3625,-0.7642 0.4393,-1.3112"
   id="Fill-106"
   class="mascot-fill"
   stroke-width="1" />
            <path
   d="m 58.3083,107.2602 c 0.0158,-0.296 -0.2851,-4.3099 -0.2851,-4.3099 0,0 -7e-4,-1.1232 1.0019,-1.2476 1.0034,-0.1244 2.1317,-0.1873 2.2565,-0.9366 0.1264,-0.7493 1.1915,-7.1182 1.1915,-7.1182 0,0 -0.0624,-0.6871 1.3795,-0.9367 1.4411,-0.2495 4.325,-0.9988 4.325,-0.9988 0,0 1.6292,-0.4368 1.3163,1.4986 -0.3144,1.9354 0.0398,10.3027 0.0398,10.3027 0,0 0.2731,1.3105 -2.6724,2.6847 -2.9471,1.3742 -8.7057,3.8716 -8.553,1.0618"
   id="Fill-108"
   class="mascot-fill"
   stroke-width="1" />
            <path
   d="m 50.08,100.1046 c -0.0316,0.018 0.798,2.9103 2.6153,2.0358 1.8172,-0.8744 6.8327,-2.6854 6.8327,-2.6854 0,0 0.8771,-0.4361 0.9402,-2.3723 0.0617,-1.9361 0.2565,-6.2026 0.2565,-6.2026 0,0 -6.7959,7.0141 -10.6447,9.2245"
   id="Fill-110"
   class="mascot-fill"
   stroke-width="1" />
            <path
   d="m 47.2416,101.7781 c -0.3129,-0.2563 0.1986,3.359 -1.4366,4.1083 -1.6352,0.7493 -7.8963,4.3084 -7.8963,4.3084 0,0 -2.0648,-0.0599 -2.7545,-0.8047 -0.689,-0.7448 10.019,-7.3842 12.0874,-7.612"
   id="Fill-112"
   class="mascot-fill"
   stroke-width="1" />
            <path
   d="m 32.6088,112.7181 c 0,0 1.6683,1.5975 1.0989,2.2846 -0.5694,0.6871 -5.2073,7.1182 -5.8346,10.2405 -0.6273,3.1223 -1.0034,4.0926 -1.9436,3.7008 -0.9403,-0.3912 -1.9346,-0.7508 -1.9346,-0.7508 0,0 1.8142,-7.9215 8.6139,-15.4751"
   id="Fill-114"
   class="mascot-fill"
   stroke-width="1" />
            <path
   d="m 58.3083,142.0392 c 0,0 -1.7902,-1.6859 -1.3517,-2.6225 0.4393,-0.9366 2.9471,-4.6831 2.9471,-4.6831 0,0 0.7521,-1.0287 0.376,-1.545 -0.376,-0.5155 -1.3794,-1.602 -0.6273,-2.1205 0.7522,-0.5177 2.3197,-2.0418 2.3197,-2.0418 0,0 1.0027,-0.3492 1.1283,-1.0985 0.1249,-0.7492 -0.6273,-1.9976 1.566,-3.0593 2.1949,-1.0617 3.1968,-1.6237 3.1968,-1.6237 0,0 0.3768,0.3125 1.2546,1.9983 0.877,1.6859 1.1907,2.3101 0.7522,2.6847 -0.4393,0.3747 -0.8154,3.2475 -0.0632,6.1195 0.7522,2.872 0.5641,2.31 0.5641,2.31 0,0 0.1256,1.061 -1.6292,2.4974 -1.7556,1.4364 -5.8925,5.9943 -5.8925,5.9943 0,0 -1.1764,1.6492 -2.1242,0.3567 -0.9477,-1.2933 -2.4167,-3.1665 -2.4167,-3.1665"
   id="Fill-116"
   class="mascot-fill"
   stroke-width="1" />
            <path
   d="m 69.5402,154.8868 -1.3629,-11.8485 c 0,0 -0.7522,-1.9991 1.0026,-2.7477 1.7548,-0.7485 6.7072,-2.2471 6.7072,-2.2471 0,0 2.0684,-0.6871 1.5043,2.935 -0.5641,3.6213 -2.4446,3.933 -2.6326,5.8692 -0.1881,1.9354 -0.3054,5.0067 -0.3054,5.0067"
   id="Fill-118"
   class="mascot-fill"
   stroke-width="1" />
            <path
   d="m 67.5202,110.1951 c -0.112,-0.1543 -1.0334,-1.4364 0,-2.1856 1.0335,-0.7493 2.9764,-1.7489 3.1644,-2.6855 0.1881,-0.9366 -0.2504,-4.1833 0.6898,-4.1833 0.9402,0 7.1456,13.2377 8.65,15.1731 1.5043,1.9354 2.0053,2.3108 1.2531,3.1223 -0.7522,0.8115 -6.0798,7.4861 -6.0798,7.4861 0,0 -0.4393,0.1806 -1.0658,0 -0.6266,-0.1806 -3.7301,-3.0361 -4.5913,-4.1683 -0.862,-1.1329 -0.9252,-1.2565 -0.4859,-1.8814 0.4392,-0.6249 3.5751,-3.6213 -1.5345,-10.6774"
   id="Fill-120"
   class="mascot-fill"
   stroke-width="1" />
            <path
   d="m 74.3287,97.3321 c 0,0 -0.8048,-1.1869 0,-1.6237 0.8063,-0.4368 4.1279,-3.7464 4.1279,-3.7464 0,0 -0.188,-6.8066 0.6898,-7.1183 0.8778,-0.3117 4.325,3.1845 4.325,3.1845 0,0 4.5123,0.2503 4.7635,0.2503 0.2512,0 0.5017,0.3124 0.6273,1.4985 0.1249,1.1862 1.1283,6.8156 1.1283,6.8156 0,0 0.8146,1.1134 -1.818,2.3003 -2.6326,1.1868 -9.4022,5.245 -9.4022,5.245 0,0 -0.941,0.7493 -1.818,-0.562 -0.8771,-1.3112 -2.6236,-6.2438 -2.6236,-6.2438"
   id="Fill-122"
   class="mascot-fill"
   stroke-width="1" />
            <path
   d="m 61.7768,89.78 c 0.3836,0.1843 7.3412,-2.3768 8.0934,-0.6279 0.7522,1.7488 1.2531,5.0576 1.2531,5.0576 0,0 -0.2505,2.2479 2.3197,0 2.5694,-2.2478 3.4472,-2.9971 3.4472,-2.9971 0,0 0.1881,0.1244 0.3137,-2.9972 0.1248,-3.1215 0.8838,-3.6842 0.2851,-4.8703 -0.5988,-1.1861 -4.3559,-3.1313 -7.7422,-2.4397"
   id="Fill-124"
   class="mascot-fill"
   stroke-width="1" />
            <path
   d="m 78.7081,106.5109 c 0.2279,-0.1364 5.8293,-3.3096 5.8293,-3.3096 0,0 1.0027,-0.9366 1.5668,0 0.5641,0.9366 1.1283,3.3096 3.3848,3.7464 2.2565,0.4368 3.4472,0.4353 3.8865,1.5915 0.4385,1.1562 0.5009,6.5255 0.5009,6.5255 0,0 0.2512,1.061 -1.1907,1.8733 -1.4419,0.8122 -2.5762,2.0358 -2.5762,2.0358 0,0 -1.2471,0.4623 -2.3753,-1.0363 -1.1283,-1.4986 -1.0034,-2.31 -3.9489,-2.6225 -2.9463,-0.3124 -1.63,0 -2.4446,-0.6871 -0.8154,-0.6871 -2.7582,-5.995 -3.0087,-6.6814 -0.2512,-0.6863 -0.7778,-0.7455 0.3761,-1.4356"
   id="Fill-126"
   class="mascot-fill"
   stroke-width="1" />
            <path
   d="m 88.2983,101.765 c 0.1768,-0.9711 1.1899,-1.6852 2.1933,-2.3723 1.0034,-0.6871 2.0053,-0.9988 1.6924,-2.4352 -0.3129,-1.4363 -1.3163,-2.2486 -0.5009,-2.6854 0.8146,-0.4368 5.6413,1.8103 6.5815,2.6225 0.9402,0.8122 0.6266,1.1119 0.9402,3.2099 0.3129,2.0981 1.3788,1.9519 1.8805,2.6802 0.5009,0.7291 0.188,0.1671 -0.5642,1.2911 -0.7522,1.1239 -0.9409,2.9971 -2.1316,3.0593 -1.1907,0.0622 -2.4108,-0.7485 -4.4965,-0.4368 -2.0851,0.3117 -1.6465,0.3117 -3.0253,-1.0618 -1.3787,-1.3734 -2.9455,-1.811 -2.5694,-3.8715"
   id="Fill-128"
   class="mascot-fill"
   stroke-width="1" />
            <path
   d="m 74.3287,77.9758 c 0,0 -1.5758,1.4978 0.8063,1.2483 2.3814,-0.2495 3.3216,-0.7568 4.9516,0.0277 1.6299,0.7845 3.2592,4.8651 3.6984,5.5724 0.4385,0.7066 0.8673,1.8298 2.1565,0.9561 1.2907,-0.8736 3.1087,-2.1849 4.4875,-2.5595 1.3787,-0.3747 1.0026,0.0614 1.5668,-2.1235 0.5641,-2.1849 1.3787,-2.122 0.9402,-3.4962 -0.4385,-1.3742 -2.4589,-1.4229 -5.1599,-4.2957"
   id="Fill-130"
   class="mascot-fill"
   stroke-width="1" />
            <path
   d="m 92.4977,70.9366 2.2873,5.0412 c 0,0 0.0948,1.5607 1.9753,0.9988 1.8804,-0.562 3.8857,-1.1232 5.1396,-1.061 1.2538,0.0622 1.1906,0.3124 0.6265,-2.0606 -0.5641,-2.3729 -1.8263,-8.1043 -1.8263,-8.1043"
   id="Fill-132"
   class="mascot-fill"
   stroke-width="1" />
            <path
   d="m 91.2438,88.5902 c -0.1173,-0.2203 -2.0685,-2.6622 0,-3.7659 2.0685,-1.1044 3.7609,-2.4157 4.4506,-3.7269 0.6898,-1.3113 0.6266,-1.3735 1.63,0.6871 1.0026,2.0605 2.7575,4.9333 2.8206,5.9321 0.0625,0.9988 -0.1256,1.9354 -1.818,2.6847 -1.6924,0.7493 -5.2028,2.4359 -6.2678,2.1856 -1.0659,-0.2502 -1.3171,0.1244 -1.1915,-1.4363 0.1256,-1.5608 0.9809,-1.4207 0.3761,-2.5604"
   id="Fill-134"
   class="mascot-fill"
   stroke-width="1" />
            <path
   d="m 106.2873,77.0984 c 0,0 -4.1798,-0.8085 -6.1325,0.3155 -1.9534,1.1239 -1.4953,1.4978 0,3.8708 1.4946,2.373 2.1211,5.3079 2.0587,7.2433 -0.0632,1.9355 -0.6905,5.4331 2.0053,3.6843 2.6958,-1.7488 4.3882,-3.5209 6.6447,-4.2275 2.2565,-0.7058 4.0738,-0.7673 3.4472,-2.3288 -0.6265,-1.5615 -5.2028,-4.3713 -6.2678,-6.4319 -1.0659,-2.0605 -0.3099,-1.9271 -1.7556,-2.1257"
   id="Fill-136"
   class="mascot-fill"
   stroke-width="1" />
            <path
   d="m 114.1749,90.8805 c 0,0 -5.6308,2.7102 -8.7643,3.7067 -3.1344,0.9966 -3.6992,1.0783 -3.6361,2.0051 0.0632,0.9269 0.2513,3.237 0.2513,3.237 0,0 2.0685,1.3112 4.4243,1.3779"
   id="Fill-138"
   class="mascot-fill"
   stroke-width="1" />
            <path
   d="m 117.5831,85.934 c 0.0625,-0.1873 -0.0135,-2.3385 -1.6427,-3.4003 -1.63,-1.0617 -4.9523,-1.6229 -4.2002,-3.1844 0.7522,-1.5615 5.0772,-6.868 6.8328,-9.1788 1.7548,-2.3108 1.6924,-3.0601 2.6326,-2.1857 0.9402,0.8744 3.111,4.8374 3.0283,7.164"
   id="Fill-140"
   class="mascot-fill"
   stroke-width="1" />
            <path
   d="m 106.2873,74.9779 c 0,0 -1.8804,1.312 -2.1309,-0.8736 -0.2505,-2.1857 -1.7548,-6.2049 -0.5641,-6.4746 1.1906,-0.269 4.2625,-1.2056 5.3908,-2.2674 1.1282,-1.0617 3.3216,-4.4335 3.9489,0 0.6266,4.4336 0.9199,4.7797 1.2426,5.574 0.3242,0.795 0.1354,2.6052 -3.1862,3.105 -3.3216,0.4998 -3.2735,0.6009 -4.7011,0.9366"
   id="Fill-142"
   class="mascot-fill"
   stroke-width="1" />
            <path
   d="m 115.627,67.6299 c 0,0 -1.3005,-4.5782 -1.3403,-5.2023 -0.0384,-0.6242 -0.1016,-0.3747 0.1496,-1.3113 0.2505,-0.9366 2.1934,-1.8102 2.507,-4.5579 0.3137,-2.7476 0.1008,-3.2467 0.9906,-3.7464 0.8899,-0.4998 4.5876,-2.6225 5.8414,-3.1845 1.2539,-0.562 2.3197,-0.9359 3.6985,6.1194 1.3787,7.0553 0.6897,5.6189 0,6.868 -0.6898,1.2491 -1.818,4.8089 -2.8207,4.3714 -1.0026,-0.4376 -2.5702,-2.436 -4.2625,-1.7489 -1.6924,0.6871 -3.3848,3.727 -4.0738,3.0601 z"
   id="Fill-144"
   class="mascot-fill"
   stroke-width="1" />
            <path
   d="m 111.3924,55.8389 c 0,0 1.7901,3.4047 1.1636,4.0289 -0.6273,0.6241 -6.7079,3.8708 -7.961,4.6201 -1.2531,0.7493 -1.7834,0.4256 -1.4562,-0.6923"
   id="Fill-146"
   class="mascot-fill"
   stroke-width="1" />
            <path
   d="m 133.4273,56.6774 c 0,0 -2.5062,-0.2443 -2.7567,-2.1797 -0.2505,-1.9354 -2.2565,-6.9931 0,-7.6802 2.2565,-0.6871 7.2351,-2.7716 8.9915,-3.9914"
   id="Fill-148"
   class="mascot-fill"
   stroke-width="1" />
            <path
   d="m 117.4333,48.6284 c 0.3264,0 6.0099,-1.3742 6.8034,-4.184 0.7928,-2.8099 0.1204,-4.791 0.4167,-6.0498"
   id="Fill-150"
   class="mascot-fill"
   stroke-width="1" />
            <path
   d="m 126.5336,47.067 c -0.5687,-0.1619 -0.0625,-1.1862 0,-2.8721 0.0624,-1.6859 -0.1257,-4.8703 1.1282,-6.1816 1.2539,-1.3112 5.0148,-4.6208 6.7071,-5.7448 1.6924,-1.1239 1.6293,-1.3727 2.4446,-1.061 0.8146,0.3117 1.6917,3.6835 2.1934,5.1199 0.5017,1.4364 1.0658,1.387 0.4392,2.0673 -0.6273,0.6804 -7.5751,4.7392 -9.8369,6.4873 -2.261,1.7481 -2.1979,2.4345 -3.0756,2.185"
   id="Fill-152"
   class="mascot-fill"
   stroke-width="1" />
            <path
   d="m 127.7235,33.6237 c 0.1888,0 2.6334,-1.7301 4.7018,-2.9162 2.0685,-1.1862 2.6326,-1.3113 3.1343,-3.3718 0.5017,-2.0606 2.131,-3.3096 1.0659,-4.1211 -1.0659,-0.8115 -1.9008,-0.3964 -1.9903,-0.2638"
   id="Fill-154"
   class="mascot-fill"
   stroke-width="1" />
            <path
   d="m 137.8162,27.2737 c 0.0917,-0.1641 1.7548,-2.1227 1.4419,-4.8704 -0.3137,-2.7476 -1.0102,-3.9967 0.4039,-5.3079 1.4133,-1.3113 1.2118,-1.8725 2.0331,0.4376 0.8221,2.31 1.8248,5.6818 1.8248,5.6818 0,0 0.8154,1.4364 -1.0651,2.373 -1.8804,0.9366 -5.794,3.7554 -4.6386,1.6859"
   id="Fill-156"
   class="mascot-fill"
   stroke-width="1" />
            <path
   d="m 142.0553,37.4696 c -0.1813,-0.1243 -2.6168,-2.7641 -2.3935,-6.3861 0.2227,-3.6221 -0.1534,-2.95 0.5988,-3.0676 0.7522,-0.1177 2.3573,0.7567 3.4352,1.4431 1.0771,0.6863 -0.1761,1.2933 1.1403,2.8323 1.3163,1.539 2.4633,2.7057 2.4633,2.7057 0,0 -3.6036,0.7807 -4.4844,0.8692 -0.3844,0.0389 -0.7597,1.6034 -0.7597,1.6034"
   id="Fill-158"
   class="mascot-fill"
   stroke-width="1" />
            <path
   d="m 147.72,21.9855 c -0.8304,-0.7657 -2.3828,0.332 -2.3197,1.9047 0.0632,1.5728 0.7078,6.6275 2.3197,8.4415 1.6112,1.814 3.6977,1.2918 3.6977,1.2918 0,0 -0.0624,-3.2902 -0.689,-4.9761 -0.6273,-1.6859 -1.5675,-5.3311 -3.0087,-6.6619"
   id="Fill-160"
   class="mascot-fill"
   stroke-width="1" />
            <path
   d="m 153.9879,28.1752 c 0,0 -2.7582,-1.0887 -2.5702,-2.7124 0.1881,-1.6237 1.1915,-0.1251 3.2599,0 2.0685,0.1252 2.3814,0.4376 1.6293,1.4364 -0.7522,0.9988 -1.3487,1.7713 -2.319,1.276"
   id="Fill-162"
   class="mascot-fill"
   stroke-width="1" />
            <path
   d="m 153.6742,32.9556 c -1.4148,-1.7016 -2.3813,-3.5583 -0.6265,-3.0593 1.7548,0.499 2.4987,-0.3732 3.6307,1.1869 1.1328,1.56 2.6462,2.1227 -0.7123,2.1849 -3.3569,0.0622 -1.563,0.5642 -2.2919,-0.3125"
   id="Fill-164"
   class="mascot-fill"
   stroke-width="1" />
            <path
   d="m 158.0191,36.015 c 0,0 -0.8966,-1.8733 0.6078,-2.0606 1.5043,-0.1873 2.2565,-0.9366 2.6326,0.3125 0.3761,1.249 1.0034,1.315 0.2504,1.9983 -0.7529,0.6834 -3.4908,-0.2502 -3.4908,-0.2502"
   id="Fill-166"
   class="mascot-fill"
   stroke-width="1" />
            <path
   d="m 163.8286,31.0831 c 0,0 1.2531,0.4376 1.5043,0 0.2513,-0.4376 -0.0631,-1.4919 -1.5043,-3.3688 -1.4412,-1.877 -2.8838,-3.5629 -5.4533,-3.5629 -2.5694,0 -2.0526,0.1843 -0.4302,0.5605 1.6217,0.3761 1.6676,0.5013 3.0538,2.624 1.3885,2.1227 2.2656,3.3111 2.8297,3.7472"
   id="Fill-168"
   class="mascot-fill"
   stroke-width="1" />
            <path
   d="m 160.9991,32.7375 c 0.8628,0.0172 1.5134,0.0937 1.1373,-0.7808 -0.3761,-0.8744 -1.5043,-3.1222 -2.6326,-4.6208 -1.1282,-1.4986 -1.1124,-1.6859 -1.5592,-0.562 -0.4461,1.124 -1.2614,0.239 -0.7597,1.5555 0.5017,1.3165 2.3016,4.3774 3.8142,4.4081"
   id="Fill-170"
   class="mascot-fill"
   stroke-width="1" />
            <path
   d="m 158.0191,18.9687 c 0,0 -3.2298,-0.0323 -3.9752,-3.0129 -0.7454,-2.9814 0.634,-1.7324 0.5084,-2.4817 -0.1256,-0.7492 0.5958,-0.9988 1.0185,0.562 0.4234,1.5608 1.4411,3.1837 2.3738,3.6213 0.9327,0.4376 1.0343,0.9988 0.0745,1.3113"
   id="Fill-172"
   class="mascot-fill"
   stroke-width="1" />
            <path
   d="m 150.1646,18.9687 c 0.8816,-1.2678 2.5694,-0.562 2.8831,-1.3735 0.3136,-0.8115 0.3753,-2.9979 -1.4419,-2.373 -1.8173,0.6249 -2.1941,1.3113 -2.4446,2.5603 -0.2505,1.2491 0.4393,1.9976 1.0034,1.1862"
   id="Fill-174"
   class="mascot-fill"
   stroke-width="1" />
            <path
   d="m 146.5286,15.1117 c 0,0 -2.9711,1.2738 -2.8334,2.0973 0.1384,0.8227 0.6987,3.2586 1.7036,2.7588 1.0049,-0.4997 1.4796,0.1244 1.9,-1.5615 0.4212,-1.6859 1.2862,-4.4088 -0.7702,-3.2946"
   id="Fill-176"
   class="mascot-fill"
   stroke-width="1" />
            <path
   d="m 147.8435,13.6615 c -0.8402,0.3873 -0.8568,-0.3664 1.2651,-0.7763 2.1212,-0.4099 4.6906,-0.2488 2.3092,0.3881 -2.3814,0.6377 -2.7612,0.0135 -3.5743,0.3882"
   id="Fill-178"
   class="mascot-fill"
   stroke-width="1" />
            <path
   d="m 159.3156,21.7873 c -1.3133,-0.4736 -1.7466,-1.8201 -0.6229,-1.3203 1.1246,0.4998 3.8933,2.4989 0.6229,1.3203"
   id="Fill-180"
   class="mascot-fill"
   stroke-width="1" />
            <path
   d="m 162.8259,35.8276 c -0.4483,-0.2232 -0.0624,-1.2093 0.3137,-2.1347 0.3761,-0.9246 1.8797,-2.6727 1.0651,-0.55 -0.8146,2.1228 -0.7522,2.9964 -1.3788,2.6847"
   id="Fill-182"
   class="mascot-fill"
   stroke-width="1" />
            <path
   d="m 104.6493,104.6809 -6.9351,5.514 c 0,0 -1.8323,0.6759 -1.581,2.5236 0.2512,1.847 0.2512,3.5951 0.2512,3.5951 0,0 0.3761,1.061 1.7548,0.4368 1.3787,-0.6241 2.0061,-1.249 2.3821,-0.7493 0.3761,0.4998 5.4841,7.5529 5.5308,5.6819 0.0474,-1.8725 -1.9835,-13.144 -1.9835,-13.144 0,0 0.1414,-1.8283 0.5807,-3.8581"
   id="Fill-184"
   class="mascot-fill"
   stroke-width="1" />
            <path
   d="m 105.5983,124.5472 -4.2701,1.1951 c 0,0 -0.7446,0.4376 -0.7446,1.8111 v 4.3398 c 0,0 3.1869,-2.9372 4.0023,-4.5099 0.8146,-1.572 1.0124,-2.8361 1.0124,-2.8361"
   id="Fill-186"
   class="mascot-fill"
   stroke-width="1" />
            <path
   d="m 99.2048,123.8068 1.3788,-0.562 c 0,0 0.6747,0.1873 0.7446,-0.7493 0.07,-0.9366 -0.431,-1.8732 -2.1234,-2.9971 -1.6924,-1.124 -1.5683,-1.3735 -4.4198,0 -2.8514,1.3734 -3.478,0.7477 -3.6661,1.6851 -0.188,0.9374 0.9267,1.874 -1.0094,2.6233 -1.9368,0.7493 -2.4385,0.9358 -2.7514,1.5607 -0.3137,0.6249 -0.5642,2.66 -0.5642,5.7006 0,3.0414 0.1377,3.2294 1.4472,2.7919 1.3103,-0.4376 4.5116,-0.8123 6.9855,-0.4376 2.4739,0.3746 3.6578,-0.3739 3.63,-1.5293 -0.0279,-1.1554 -0.404,-6.4626 0.3482,-8.0863"
   id="Fill-188"
   class="mascot-fill"
   stroke-width="1" />
            <path
   d="m 81.6228,122.3082 c 1.2057,-1.5286 0.5949,-4.8711 1.9112,-4.2462 1.3163,0.6249 2.6326,-0.1873 3.2599,1.249 0.6266,1.4364 0.4514,1.7481 1.4472,2.3101 0.9974,0.562 2.3761,0.6414 0.8718,1.1329 -1.5043,0.4908 -3.5736,2.0523 -5.0147,1.1779 -1.4412,-0.8744 -3.5082,-0.3125 -2.4754,-1.6237"
   id="Fill-190"
   class="mascot-fill"
   stroke-width="1" />
            <path
   d="m 73.5053,134.0363 c 0,0 3.4472,-8.3568 4.7635,-8.8559 1.3163,-0.499 3.7609,-0.4361 4.4506,-0.3117 0.6898,0.1244 1.6924,-0.514 1.2539,1.4289 -0.4393,1.9429 -8e-4,8.3748 0.689,9.4358 0.6897,1.061 0.8778,1.5817 -0.689,2.2576 -1.5675,0.6766 -3.636,1.7369 -4.2001,2.2996 -0.5642,0.5627 -0.8146,-4.1833 -3.3216,-3.4962 -2.5078,0.6871 -5.2028,-0.8962 -2.9463,-2.7581"
   id="Fill-192"
   class="mascot-fill"
   stroke-width="1" />
            <path
   d="m 83.5686,145.3934 c 0,-0.2495 -2.2287,-3.7907 -0.5988,-4.4156 1.63,-0.6249 3.448,-0.8122 4.2002,-1.4364 0.7521,-0.6241 0.012,-0.8152 1.0711,-2.2501 1.0598,-1.4341 -1.0215,-2.0583 1.8684,-1.6836 2.8898,0.3746 4.7514,0.705 4.9086,0.705 0.1572,0 -11.4495,9.0807 -11.4495,9.0807"
   id="Fill-194"
   class="mascot-fill"
   stroke-width="1" />
            <path
   d="m 76.4516,149.4699 c 0,0 0.4385,-4.6209 2.1309,-5.9943 1.6924,-1.3735 2.2016,-0.4376 2.7612,0.8114 0.5611,1.2491 1.0297,1.8463 1.0297,1.8463 l -5.9218,4.3938 z"
   id="Fill-196"
   class="mascot-fill"
   stroke-width="1" />
            <path
   d="m 28.3345,153.0282 c 0,0 1.9203,-0.9733 4.24,-1.3914 2.3197,-0.4188 3.5901,-1.043 1.8578,1.9542 -1.733,2.9971 -1.7375,3.8153 -1.7375,3.8153 0,0 -3.7842,-2.8525 -4.3603,-4.3781"
   id="Fill-198"
   class="mascot-fill"
   stroke-width="1" />
            <path
   d="m 155.5709,11.4238 c 0,0 -11.5497,-7.0658 -18.2606,3.0975 -6.2874,9.522 -10.6861,16.8725 -12.6568,19.3826 -15.9408,20.2975 -23.1557,30.9891 -35.6658,35.3289 3.1967,0.5006 3.0583,0.9801 3.5104,1.7039 0.4513,0.7238 18.5132,-10.8055 32.366,-32.8652 13.852,-22.0591 18.0289,-30.529 30.7068,-26.6477"
   id="Fill-200"
   class="mascot-fill"
   stroke-width="1" />
            <path
   d="m 144.773,30.145 c 0,0 1.1749,1.889 4.0196,3.6761 2.844,1.7878 7.3571,3.4736 14.0326,3.0675 0,0 0.8153,2.9342 2.8838,3.6213 2.0685,0.6871 4.9523,0.7493 6.5815,0 0.4393,-0.2495 0.3483,-0.4645 -0.376,-3.9337 -0.8154,-3.9016 -7.2706,-7.367 -14.5734,-23.4767 0,0 -2.413,-4.4335 -10.5929,-2.1542 -6.5665,1.4356 -14.0408,15.3439 -18.2274,21.4686 -4.5191,6.6686 -18.7713,32.1946 -41.2425,41.0924 0,0 -4.5905,2.0486 -8.1483,2.974 -1.5118,0.3926 -6.0324,0.8077 -7.6781,2.54 -1.645,1.7331 -7.4278,8.4767 -8.65,9.6943 -1.2223,1.2176 -5.3036,5.7898 -9.7783,9.3189 -7.0042,5.526 -15.4662,7.1182 -20.7788,14.7048 -6.1272,8.7517 -9.9189,14.7984 -9.3082,27.1617 0.6116,12.3632 13.3617,23.7239 25.4333,22.8068 16.6418,-1.2648 38.0668,-19.48 42.9371,-23.5396 5.2682,-4.3924 15.731,-10.2443 14.7449,-17.4839 -0.7522,-5.526 -1.5322,-10.4151 -1.9549,-12.8038 0,0 -1.1005,-3.6805 3.9767,-9.8622 0,0 10.6876,-13.1747 18.1462,-27.5363 7.4586,-14.3616 14.6516,-31.7428 16.5945,-35.6144 0,0 2.7973,0.7253 6.1204,-1.9579"
   id="Stroke-202"
   stroke="#533d37"
   stroke-width="0.5625"
   fill="none" />
            <path
   d="m 155.966,11.6843 c 0,0 -12.1641,-8.9502 -21.0285,6.2746 0,0 -8.1964,13.3837 -14.265,21.5839 -6.1512,8.3119 -20.9668,27.0681 -31.6853,29.6906 0,0 3.0283,0.5035 3.7707,1.7031"
   id="Stroke-204"
   stroke="#533d37"
   stroke-width="0.5625"
   fill="none" />
          </g>
          <g
   id="Group-3">
            <path
   d="m 157.9052,14.2995 c -0.0624,-0.8812 0.261,-8.5921 -0.2813,-8.7172 -0.7364,-0.1694 -2.9463,4.8389 -3.636,6.1501"
   id="Fill-78"
   fill="#fadab9"
   stroke-width="1" />
            <path
   d="m 157.9052,14.3236 c -0.0624,-0.8812 0.261,-8.5921 -0.2813,-8.7172 -0.7364,-0.1693 -2.9463,4.8389 -3.636,6.1501"
   id="Stroke-80"
   stroke="#533d37"
   stroke-width="0.5625"
   fill="none" />
            <path
   d="m 151.4265,9.9392 c 0.0625,-0.0937 0.1956,-3.6596 -1.4028,-6.8298 l 1.3472,0.8429 0.3452,-1.5615 0.9402,0.9681 1.0651,-1.3112 c 0,0 -0.7206,5.9628 1.8496,10.1468"
   id="Fill-82"
   fill="#fadab9"
   stroke-width="1" />
            <path
   d="m 151.4104,9.9392 c 0.0632,-0.0937 0.1956,-3.6596 -1.4028,-6.8298 l 1.3472,0.8429 0.3452,-1.5615 0.9402,0.9681 1.0651,-1.3112 c 0,0 -0.7198,5.9628 1.8496,10.1468"
   id="Stroke-84"
   stroke="#533d37"
   stroke-width="0.5625"
   fill="none" />
            <path
   d="m 152.7972,11.6323 c 0,0 -4.419,-4.1525 -3.0087,-9.5849 l -1.0666,1.1862 -1.2531,-0.6242 -0.5641,0.9846 -2.0685,-0.5478 c 0,0 5.014,4.7767 2.9455,9.3039"
   id="Fill-206"
   fill="#fadab9"
   stroke-width="1" />
            <path
   d="m 152.7972,11.6323 c 0,0 -4.419,-4.1525 -3.0087,-9.5849 l -1.0666,1.1862 -1.2531,-0.6242 -0.5641,0.9846 -2.0685,-0.5478 c 0,0 5.014,4.7767 2.9455,9.3039"
   id="Stroke-208"
   stroke="#533d37"
   stroke-width="0.5625"
   fill="none" />
            <path
   d="m 142.3292,16.284 c 0,0 -1.0026,-12.2389 0,-12.6757 1.0027,-0.4369 4.7635,9.429 4.7635,9.429"
   id="Fill-210"
   fill="#fadab9"
   stroke-width="1" />
            <path
   d="m 142.1412,16.284 c 0,0 -1.0027,-12.2389 0,-12.6757 1.0026,-0.4369 4.7635,9.429 4.7635,9.429"
   id="Stroke-212"
   stroke="#533d37"
   stroke-width="0.5625"
   fill="none" />
            <path
   d="m 144.084,15.9269 c 0,0 -0.8492,-4.6748 -0.9402,-8.0092 -0.0647,-2.34 2.4897,3.1066 2.6228,5.2967 0.1339,2.1902 0.2603,2.3551 -1.6826,2.7125"
   id="Fill-214"
   fill="#a67c9f"
   stroke-width="1" />
            <path
   d="m 157.1846,22.1538 c 0,0 -3.3637,4.4868 -7.02,-1.1554 0,0 2.2084,-1.6919 3.9211,-1.4199 2.1745,0.3454 2.8838,2.2089 3.0989,2.5753"
   id="Fill-216"
   fill="#a67c9f"
   stroke-width="1" />
            <path
   d="m 169.345,38.8877 c 0,0 -1.5938,-0.8745 -2.252,-3.9803 0,0 1.1396,0.3425 1.6789,1.4192 0.9853,1.9631 0.358,2.1947 0.5731,2.5611"
   id="Fill-218"
   fill="#a67c9f"
   stroke-width="1" />
            <path
   d="m 154.9744,23.8902 c 0,0 -2.3799,-0.3769 -2.1776,-2.6105 0.1565,-1.7316 2.1776,-1.5922 2.1776,-1.5922 l 2.2099,2.4666 z"
   id="Fill-220"
   fill="#1b110f"
   stroke-width="1" />
            <path
   d="m 150.1646,20.9984 c 0,0 4.231,-3.933 7.02,1.1554 0,0 -3.0087,4.5894 -7.02,-1.1554 z"
   id="Stroke-222"
   stroke="#533d37"
   stroke-width="0.5"
   fill="none" />
            <path
   d="m 169.345,38.8877 c 0,0 -2.1316,-1.3428 -2.2565,-4.0589 0,0 2.601,1.1868 2.2565,4.0589 z"
   id="Stroke-224"
   stroke="#533d37"
   stroke-width="0.5"
   fill="none" />
          </g>
          <g
   id="Group-2">
            <path
   d="m 66.0048,259.4732 0.6582,4.1997 h 11.1886 l -2.5386,-3.8401 -3.8384,-0.6009 c 0,0 -5.1674,-0.302 -5.5638,-0.825 -0.3964,-0.523 0.094,1.0663 0.094,1.0663"
   id="Fill-226"
   fill="#624b59"
   stroke-width="1" />
            <path
   d="m 102.4853,127.9586 c 0,0 -15.1375,42.3347 -18.7104,57.4141 -3.5728,15.0795 -2.1625,20.1349 -2.1625,22.385 0,2.7162 -2.5619,6.2648 -3.6668,9.3661 -1.8616,5.2263 -2.1159,6.2281 -3.5262,17.2801 -2.2415,17.5693 -0.0331,18.8805 -0.9868,20.5589 -1.4104,2.4817 -0.4273,3.0931 -0.5642,4.1211 0,0 -5.9233,0.843 -6.9576,-0.6766 -1.0342,-1.5203 -1.8082,-1.3779 -1.4103,-2.3205 1.1283,-1.9669 4.513,-16.3907 5.9234,-25.7568 1.4103,-9.3661 0.7559,-18.4512 0.7559,-23.5089 0,-5.0577 3.4284,-8.4617 5.1674,-26.0377 1.6608,-16.7878 0.68,-14.7588 -3.9331,-24.5879 -1.3028,-2.7769 4.4311,-17.648 4.4311,-17.648 0,0 3.4043,-5.2368 4.4935,-2.7506 1.7232,3.9337 2.1015,3.3156 6.4145,2.7161 2.1422,-0.2982 5.7827,-0.2997 5.7827,-3.7936 0,-3.6753 8.9494,-6.7608 8.9494,-6.7608"
   id="Fill-228"
   fill="#fadab9"
   stroke-width="1" />
            <path
   d="m 64.7826,255.4597 c 0.1542,-0.1873 3.6668,0.1588 4.7951,-1.5271 1.1282,-1.6859 1.0681,-3.3718 2.2264,-4.121 1.1583,-0.7493 1.7014,-5.9898 1.7014,-5.9898 0,0 -2.6935,0.3431 -4.3054,0.7447 -1.6119,0.4017 -2.5341,4.4845 -2.9102,5.7958 -0.3761,1.3112 -1.5073,5.0974 -1.5073,5.0974"
   id="Fill-230"
   class="mascot-fill"
   stroke-width="1" />
            <path
   d="m 73.6147,242.181 c 0,0 -3.7232,-0.4698 -4.9771,0.1544 -1.2539,0.6241 -0.0572,-1.6709 0.507,-4.2312 0.5641,-2.5604 1.062,-5.0884 2.6597,-5.6504 1.5976,-0.562 2.7935,0.5627 2.7935,0.5627 0,0 -0.8627,8.1028 -0.9831,9.1645"
   id="Fill-232"
   class="mascot-fill"
   stroke-width="1" />
            <path
   d="m 74.4044,228.8943 c 0,0 -1.2629,0.4376 -1.7594,-0.6242 -0.4972,-1.0617 -0.3806,-3.4347 0,-6.6814 0.3806,-3.2466 0.7567,-4.6823 1.7594,-6.1186 1.0026,-1.4364 1.5043,-2.3738 2.006,-1.7489 0.501,0.6249 0.4378,1.5608 0.689,2.0606 0.2512,0.4997 -1.7548,5.1198 -1.9429,6.9309 -0.188,1.811 -0.7521,6.1816 -0.7521,6.1816"
   id="Fill-234"
   class="mascot-fill"
   stroke-width="1" />
            <path
   d="m 79.685,212.41 c 0,0 -7.0268,0.218 -7.7572,-2.0299 -0.7296,-2.2478 -1.053,-4.3915 -0.5521,-6.1396 0.5025,-1.7481 0.9598,-1.572 2.2137,-2.2584 1.2539,-0.6863 6.1422,-2.6847 6.5183,-2.872 0.3761,-0.1873 0.2513,-0.2503 0.3137,2.1227 0.0624,2.373 1.6871,5.6317 1.123,7.3176 -0.5642,1.6859 -0.7943,3.2976 -1.8594,3.8596"
   id="Fill-236"
   class="mascot-fill"
   stroke-width="1" />
            <path
   d="m 72.4145,199.4606 c 0,0 6.1264,-1.1629 7.1298,-2.349 1.0034,-1.1861 2.0061,-0.8122 1.442,-2.0605 -0.5649,-1.2483 -1.3795,-3.996 -2.0693,-5.1199 -0.689,-1.1239 -0.2497,-1.4986 -1.1907,-1.3113 -0.9402,0.1874 -2.3866,0.0682 -2.9402,0.6092 -0.5529,0.5402 -0.8996,5.3095 -1.4006,6.3083 -0.8988,1.79 -0.5964,2.0702 -0.971,3.9232"
   id="Fill-238"
   class="mascot-fill"
   stroke-width="1" />
            <path
   d="m 82.0355,192.7251 c -0.1256,-0.1873 -4.4348,-7.2276 -3.9955,-8.4137 0.4385,-1.1861 1.5668,-1.3735 2.9455,-0.9988 1.3787,0.3746 3.1035,0.78 3.1035,0.78 0,0 -0.9688,3.0608 -1.0312,4.4815 -0.0625,1.4199 -1.0223,4.151 -1.0223,4.151"
   id="Fill-240"
   class="mascot-fill"
   stroke-width="1" />
            <path
   d="m 77.1185,178.8793 c 0,0 2.489,3.3104 4.5574,3.0601 2.0685,-0.2502 3.0847,-0.3821 3.0847,-0.3821 l 0.7981,-2.8218 c 0,0 -1.4202,-5.538 -4.4695,-6.8493 -3.0493,-1.3112 -2.1091,-0.3124 -2.5483,1.7481 -0.4378,2.0606 -1.4224,5.245 -1.4224,5.245"
   id="Fill-242"
   class="mascot-fill"
   stroke-width="1" />
            <path
   d="m 83.44,171.824 c -0.009,-0.005 -4.1467,-2.2478 -4.3972,-3.1222 -0.2512,-0.8745 -0.4393,-1.6237 0,-3.3718 0.4378,-1.7481 1.6029,-6.7429 1.6796,-8.3044 0.0745,-1.5615 0.2625,-0.9373 1.5788,-1.9361 1.3163,-0.9988 4.1377,-2.6855 4.4514,-3.3718 0.3129,-0.6864 0.1248,-1.4364 0.7522,0.9366 0.6258,2.373 2.8199,2.1856 1.754,4.0589 -1.0651,1.8732 -3.5096,7.8053 -3.5728,9.7407 -0.0617,1.9354 -0.9425,6.1127 -2.246,5.3701"
   id="Fill-244"
   class="mascot-fill"
   stroke-width="1" />
            <path
   d="m 96.9549,143.7477 c -0.188,0.0622 -6.6296,2.3498 -8.0084,2.9747 -1.3787,0.6249 -2.7582,1.9361 -1.3163,3.2474 1.4419,1.3112 2.8207,2.1857 2.9463,3.3718 0.1256,1.1861 -0.7529,2.7469 -0.1256,2.872 0.6273,0.1251 1.9699,1.2049 2.9718,-2.1047 1.0034,-3.3096 3.5322,-10.3612 3.5322,-10.3612"
   id="Fill-246"
   class="mascot-fill"
   stroke-width="1" />
            <path
   d="m 73.2357,155.9295 c -0.3054,0.0667 3.5789,-3.434 4.51,-3.996 0.9305,-0.5619 2.1844,-0.8122 1.8707,-2.2478 -0.3137,-1.4357 -2.5702,-0.562 -3.3848,-2.8099 -0.8146,-2.2478 -0.1692,-2.3093 -0.8364,-2.5595 -0.6679,-0.2503 -2.6424,6.3127 -2.6424,7.7491 0,3.6018 -0.607,4.1024 0.4829,3.8641"
   id="Fill-248"
   class="mascot-fill"
   stroke-width="1" />
            <path
   d="m 82.2398,142.6011 c 0.006,0.2503 -0.0444,3.6843 1.2004,3.8716 1.2441,0.1873 2.1212,0.4998 4.1272,-0.7493 2.0061,-1.249 1.8331,-1.1232 3.8,-1.7481 1.9669,-0.6249 2.844,-1.1246 3.5337,-1.3742 0.6897,-0.2495 2.2121,0.6871 3.1005,-2.2636 0.4453,-1.4783 -1.7218,-1.4828 -3.9783,-0.7335 -2.2565,0.7493 -2.5589,3.2474 -4.4762,2.5603 -1.9173,-0.6871 -0.3505,-1.9976 -3.6097,-1.7481 -3.2591,0.2495 -3.7172,1.3705 -3.6976,2.1849"
   id="Fill-250"
   class="mascot-fill"
   stroke-width="1" />
            <path
   d="m 75.8595,140.9481 c 0,0 -2.9523,8.3494 -3.5457,13.939 -0.3693,3.4767 4.8079,6.9939 4.8049,12.2397 -0.0046,7.095 -0.2129,10.3221 -0.7718,13.6565 -2.9146,17.4209 -5.1674,20.98 -5.1674,26.0377 0,5.0577 0.6544,14.1428 -0.7559,23.5089 -1.4104,9.3661 -4.7951,23.7899 -5.9234,25.7568 -0.3979,0.9426 0.3761,0.8002 1.4103,2.3205 1.0343,1.5196 6.9576,0.6766 6.9576,0.6766 0.1369,-1.028 -0.8462,-1.6386 0.5642,-4.121 0.9537,-1.6784 -1.2547,-2.9897 0.9876,-20.5582 1.4103,-11.052 1.6645,-12.0546 3.5254,-17.2809 1.1049,-3.1013 3.6668,-6.6499 3.6668,-9.3661 0,-2.2501 -1.4103,-7.3055 2.1625,-22.3849 3.5729,-15.0794 18.7104,-57.4142 18.7104,-57.4142"
   id="Stroke-252"
   stroke="#533d37"
   stroke-width="0.5625"
   fill="none" />
          </g>
          <g
   id="Group">
            <path
   d="m 52.166,259.2126 c 0,0 1.6293,2.5139 1.6293,4.1998 h 9.6842 l -1.4103,-3.3718 c 0,0 -2.155,-0.9741 -4.2461,-1.8829 -0.4422,-0.0847 -4.6228,0.3057 -5.6571,1.0549"
   id="Fill-254"
   fill="#624b59"
   stroke-width="1" />
            <path
   d="m 25.6527,148.223 c 14.2078,31.1876 7.7398,57.4943 8.0219,59.2739 0.2821,1.7795 -0.094,0.9366 2.7266,4.3084 2.8207,3.3718 6.2055,11.9886 6.2055,11.9886 6.2723,16.7653 8.5424,35.7785 8.5424,35.7785 2.243,-1.0303 8.0994,-1.3113 7.3472,-1.7796 -0.7521,-0.4683 -1.4103,-2.3415 -1.4103,-2.3415 0,0 -12.0348,-42.0538 -12.975,-46.0812 -0.9402,-4.0274 0.5641,-8.8978 0.5641,-8.8978 0,0 6.1415,-13.6917 7.2698,-21.6529 1.1283,-7.9612 -0.9109,-24.6283 -0.9109,-24.6283 0,0 -1.815,8.0046 -8.4574,-1.635 -1.1508,-1.6694 -6.2641,6.6305 -8.1446,5.4076 -1.8804,-1.2228 -8.7793,-9.7407 -8.7793,-9.7407"
   id="Fill-256"
   fill="#fadab9"
   stroke-width="1" />
            <path
   d="m 49.0134,246.889 c 0.0466,0.2203 2.9658,-1.2094 3.1523,-2.5206 0.1881,-1.3113 0.8049,-3.3419 0.8049,-3.3419 l -1.4081,-4.952 c 0,0 -2.2806,1.4881 -2.9696,2.4247 -0.6897,0.9366 -0.8996,2.3775 -0.8996,2.3775 0,0 1.132,5.1386 1.3201,6.0123"
   id="Fill-258"
   class="mascot-fill"
   stroke-width="1" />
            <path
   d="m 45.345,232.0349 c 0.0181,0.197 2.1024,-0.0308 2.6755,-0.3425 0.5724,-0.3117 1.6375,-2.3325 1.6375,-2.3325 0,0 -1.0658,-2.6622 -1.9745,-4.0986 -0.9086,-1.4364 -2.0368,-2.373 -3.3532,-2.4352 -1.3163,-0.0622 -1.6134,1.2656 -1.6134,1.2656 0,0 2.5018,6.6319 2.6281,7.9432"
   id="Fill-260"
   class="mascot-fill"
   stroke-width="1" />
            <path
   d="m 40.5456,219.0292 c 0.188,0 2.4047,-0.8235 2.531,-1.5106 0.1256,-0.6871 2.1317,-2.0605 2.2565,-2.2479 0.1249,-0.1873 -0.8281,-4.3706 -0.8281,-4.3706 0,0 -1.8045,-0.6256 -3.4337,0.1866 -1.6299,0.8123 -2.7988,3.5074 -2.7988,3.5074 z"
   id="Fill-262"
   class="mascot-fill"
   stroke-width="1" />
            <path
   d="m 35.6358,210.9004 c 0,0 1.4239,0 1.8,-0.8744 0.3761,-0.8744 2.507,-4.5579 3.5728,-4.683 1.0658,-0.1251 2.8161,0.1896 2.8161,0.1896 0,0 0.2723,-3.8731 0.8507,-5.06 0.5777,-1.1869 -1.1538,-4.1833 -2.8492,-3.9337 -1.6946,0.2495 -2.7605,0.8114 -4.2648,2.4351 -1.5044,1.6237 -2.5529,2.2929 -2.5529,2.2929 0,0 -1.2704,5.481 -1.3336,6.2303 -0.0632,0.7493 1.2952,3.0781 1.9609,3.4032"
   id="Fill-264"
   class="mascot-fill"
   stroke-width="1" />
            <path
   d="m 46.3359,195.2898 c 0,0 -4.701,-0.3739 -5.3276,-1.4356 -0.6266,-1.0618 0.0624,-3.6221 0,-6.1195 -0.0624,-2.4974 -0.5017,-4.9955 0.5641,-4.9955 1.0659,0 3.3291,0.562 3.3291,0.562 0,0 1.7481,0.6241 1.7481,-0.562 0,-1.1861 0.9402,-6.2445 2.1941,-8.2421 1.2539,-1.9976 1.9993,-0.5568 1.9993,-0.5568 0,0 -1.6864,15.4796 -4.5071,21.3495"
   id="Fill-266"
   class="mascot-fill"
   stroke-width="1" />
            <path
   d="m 35.6358,195.9139 c 0,0 3.1163,-1.4348 3.1163,-2.6217 0,-1.1869 -0.8771,-2.9357 -0.501,-6.2446 0.3761,-3.3088 2.1934,-6.8058 0.501,-6.4311 -1.6924,0.3746 -3.1163,0.7493 -3.1163,0.7493 0,0 0.9252,12.2643 0,14.5481"
   id="Fill-268"
   class="mascot-fill"
   stroke-width="1" />
            <path
   d="m 35.1452,178.4887 c 0,0 4.5469,0.8789 6.0512,1.1913 1.5044,0.3125 2.7349,1.2483 2.9658,0.2495 0.231,-0.9988 1.2336,-6.5555 2.0482,-8.5538 0.8154,-1.9984 1.5044,-2.8099 0.9402,-3.5591 -0.5641,-0.7493 -0.9537,0.6234 -1.6051,-1.5616 -0.6514,-2.1849 -1.0275,-2.3108 -2.2806,-2.2478 -1.2531,0.0629 -6.5183,3.6842 -6.5183,3.6842 0,0 -0.0632,0.3125 -1.0666,-0.1873 -1.0019,-0.4998 -1.199,-0.0629 -1.1945,1.7481 0.0045,1.811 -0.5167,2.9349 -0.5167,2.9349 z"
   id="Fill-270"
   class="mascot-fill"
   stroke-width="1" />
            <path
   d="m 31.042,157.1076 3.4434,1.4671 c 0,0 -1.062,0.562 -0.874,2.2479 0.1881,1.6858 2.3739,2.4351 0.874,3.9337 l -1.4998,1.4986 c 0,0 -2.947,-7.8668 -1.9436,-9.1473"
   id="Fill-272"
   class="mascot-fill"
   stroke-width="1" />
            <path
   d="m 37.5603,165.5678 c -0.1211,-0.1424 -2.2565,-1.9669 -1.8804,-3.8866 0.3761,-1.9204 1.399,-2.1692 2.1422,-3.7307 0.7416,-1.5615 1.0884,-2.872 2.9207,-3.5591 1.833,-0.6871 5.5939,4.5579 5.5939,4.5579 0,0 0.5641,1.4364 0,2.373 -0.5641,0.9366 -3.6842,0.7493 -5.4149,2.0606 -1.7308,1.3112 -2.9004,2.7266 -3.3615,2.1849"
   id="Fill-274"
   class="mascot-fill"
   stroke-width="1" />
            <path
   d="m 49.219,162.196 c 0,0 -2.5062,0.227 -2.3814,1.799 0.1249,1.5728 1.5044,1.6979 1.4412,2.8219 -0.0617,1.1239 -0.5641,4.7452 -0.5641,4.7452 0,0 0.9402,2.1227 1.5043,0 0.5642,-2.1227 1.129,-3.4962 1.129,-3.4962 0,0 0.938,-6.7301 -1.129,-5.8699"
   id="Fill-276"
   class="mascot-fill"
   stroke-width="1" />
            <path
   d="m 50.8431,152.5563 c 0,0 2.2302,17.848 1.102,25.8092 -1.1283,7.9612 -7.5902,23.3605 -7.5902,23.3605 0,0 -1.184,3.6168 -0.2437,7.6443 0.9402,4.0274 12.975,46.0812 12.975,46.0812 0,0 0.6581,1.8732 1.4103,2.3415 0.7522,0.4683 -5.1043,0.7493 -7.3472,1.7795 0,0 -2.2701,-19.0131 -8.5425,-35.7785 0,0 -3.3848,-8.6168 -6.2054,-11.9886 -2.8207,-3.3718 -2.4446,-2.5288 -2.7266,-4.3084 -0.2821,-1.7795 6.7078,-29.1315 -9.2909,-61.0579"
   id="Stroke-278"
   stroke="#533d37"
   stroke-width="0.5625"
   fill="none" />
          </g>
        </g>
      </g>
    </g>
  </g>
</svg>
