<?xml version="1.0" encoding="UTF-8" standalone="no"?>
<svg
   width="120"
   height="79.625725"
   viewBox="8.6595001 11.9824 120 79.625725"
   version="1.1"
   xml:space="preserve"
   id="svg39"
   sodipodi:docname="hedgehog.svg"
   inkscape:version="1.2.2 (b0a8486541, 2022-12-01)"
   xmlns:inkscape="http://www.inkscape.org/namespaces/inkscape"
   xmlns:sodipodi="http://sodipodi.sourceforge.net/DTD/sodipodi-0.dtd"
   xmlns="http://www.w3.org/2000/svg"
   xmlns:svg="http://www.w3.org/2000/svg"><sodipodi:namedview
   id="namedview41"
   pagecolor="#ffffff"
   bordercolor="#000000"
   borderopacity="0.25"
   inkscape:showpageshadow="2"
   inkscape:pageopacity="0.0"
   inkscape:pagecheckerboard="0"
   inkscape:deskcolor="#d1d1d1"
   showgrid="false"
   inkscape:zoom="2.8852938"
   inkscape:cx="60.998988"
   inkscape:cy="40.723756"
   inkscape:window-width="1870"
   inkscape:window-height="1011"
   inkscape:window-x="0"
   inkscape:window-y="0"
   inkscape:window-maximized="1"
   inkscape:current-layer="svg39" />
  <defs
   id="defs2" />
  <g
   id="g37"
   transform="matrix(0.98553886,0,0,0.98553886,-0.36754307,-0.31949033)">
    <title
   id="title4">hedgehog-c</title>
    <desc
   id="desc6">Created with Sketch.</desc>
    <g
   id="forest"
   stroke="none"
   fill-rule="evenodd">
      <g
   id="hedgehog-c"
   fill-rule="nonzero">
        <g
   id="face">
          <path
   d="m 94.081,65.8627 c 2.3125,2.7334 5.821,5.6275 12.2,7.6373 3.8275,1.2059 11.7216,2.6529 7.6549,4.5824 -4.0666,1.9294 -5.183,1.2862 -8.1333,0.8843 -1.7542,-0.2412 -9.0902,-2.8942 -15.549,-5.5471 -1.834,-0.7235 -3.5085,0.7235 -6.4588,-2.0098 -5.183,-4.8235 7.9738,-8.2804 10.2862,-5.5471 z"
   id="Shape"
   class="mascot-fill"
   stroke-width="1" />
          <path
   d="m 86.4261,67.551 c 1.3556,3.2961 3.8275,7.1549 9.3295,11.0137 3.2692,2.3314 10.366,6.1098 5.9006,6.6726 -4.4654,0.5627 -6.2196,0.4019 -8.9307,-0.8844 -1.5948,-0.7235 -6.5386,-2.1705 -11.8013,-6.6725 -1.7543,-1.4471 -4.7046,-5.6275 -6.7778,-9.6471 z"
   id="path9"
   class="mascot-fill"
   stroke-width="1" />
          <path
   d="m 53.5739,75.0275 c 2.1529,4.2607 -1.4353,7.4764 1.4352,9.647 3.1896,2.4118 9.0902,7.8784 4.5451,7.6373 -4.4653,-0.2412 -8.8509,-1.9294 -11.2431,-3.6177 -1.4353,-1.0451 -4.1464,-4.2608 -5.1033,-5.8686 -0.8771,-1.5275 -0.2392,-9.4863 -1.5947,-10.7726 0,-0.0804 9.8078,-1.2862 11.9608,2.9746 z"
   id="path11"
   class="mascot-fill"
   stroke-width="1" />
          <path
   d="m 43.6065,74.3039 c 3.1098,6.5118 -1.5947,5.7079 -0.0797,9.7275 1.4353,3.7784 6.9373,9.0843 2.5516,8.2 -4.3856,-0.9647 -5.5817,-3.6981 -7.7346,-5.7883 -1.2758,-1.2862 -1.9935,-1.447 -2.7111,-3.296 -0.6379,-1.6079 -3.1896,-12.3 -4.3059,-13.8275 0.1595,0.0804 9.1699,-1.5274 12.2797,4.9843 z"
   id="path13"
   class="mascot-fill"
   stroke-width="1" />
        </g>
        <path
   d="m 112.81961,65.541177 c 0.47843,-0.643138 0.87712,-1.205883 1.27582,-1.84902 -0.23922,-0.08039 -0.47844,-0.241177 -0.71765,-0.321569 -1.0366,0.241177 -3.58824,-1.366666 -6.37909,-3.296078 2.31242,-3.939216 3.42876,-8.119608 2.87059,-12.380392 C 108.03529,32.098039 85.867974,21.888235 60.271895,24.943137 34.675817,27.998039 15.458823,43.111765 17.292811,58.707843 c 1.833986,15.596079 24.001307,25.805883 49.597385,22.75098 2.23268,-0.241176 4.46536,-0.643137 6.618301,-1.045098 -0.797386,2.009804 1.275817,4.662746 3.588235,8.360785 0.239216,-0.08039 0.55817,-0.241177 0.797386,-0.321569 -1.355556,-6.35098 -1.355556,-6.511765 2.232679,-1.12549 0.159478,-0.08039 0.318955,-0.160784 0.478432,-0.160784 -2.23268,-6.190196 -1.435294,-6.592157 3.030065,-1.286275 0.239216,-0.08039 0.478431,-0.241176 0.717647,-0.321568 -2.073202,-4.984314 -1.275817,-5.386275 2.870588,-1.286275 0.239216,-0.160784 0.55817,-0.241176 0.797386,-0.401961 -2.392157,-4.341176 -1.67451,-4.743137 2.870588,-1.366666 0.478432,-0.241177 0.956863,-0.482353 1.435294,-0.72353 -1.833986,-3.778431 -0.637908,-4.421569 3.986929,-2.25098 0.478431,-0.321569 1.036601,-0.562745 1.515032,-0.884314 -1.754248,-1.84902 -1.355555,-2.090196 1.275817,-0.803921 0.55817,-0.401961 1.116345,-0.72353 1.674505,-1.125491 -0.797381,-1.205882 -0.31895,-1.527451 1.59478,-1.12549 1.0366,-0.723529 1.99346,-1.447059 2.87058,-2.25098 -0.55817,-1.045098 0,-1.527451 1.83399,-1.527451 1.0366,-0.964706 1.99346,-1.84902 2.95033,-2.813726 -2.95033,-2.331372 -2.15294,-3.37647 2.79085,-3.456862 z"
   id="belly"
   class="mascot-fill"
   stroke-width="1" />
        <g
   id="body">
          <path
   d="m 117.2052,54.5275 c 0,-0.3216 0.0798,-0.7236 0.0798,-1.0451 -7.9739,-1.9295 -7.017,-2.4118 0.4784,-3.8589 0,-0.4019 -0.0797,-0.8039 -0.0797,-1.2059 -5.183,-0.4823 -8.0536,-0.8843 -0.319,-2.5725 0,-0.1608 -0.0797,-0.402 -0.0797,-0.5627 -9.4889,-0.3216 -9.4889,-1.4471 -1.1164,-4.2608 -0.1594,-0.402 -0.2392,-0.7236 -0.3987,-1.1255 -7.7346,0.0804 -8.6117,-1.5275 -2.4719,-4.9843 -0.3189,-0.4824 -0.5581,-0.9647 -0.8771,-1.4471 -7.8941,1.0451 -8.3725,0.9647 -2.4719,-3.2961 -0.1595,-0.2411 -0.3987,-0.4823 -0.6379,-0.7235 -7.9738,2.7333 -8.7712,2.1706 -2.1529,-2.251 -0.0798,-0.0804 -0.2392,-0.2412 -0.3987,-0.3216 -6.4588,2.8138 -7.6549,1.3667 -3.4288,-2.8941 -0.3189,-0.2411 -0.6379,-0.4823 -0.9568,-0.7235 -5.502,3.1353 -6.2994,3.1353 -1.7543,-1.2059 -0.0797,-0.0804 -0.2392,-0.1608 -0.3189,-0.2412 -5.6615,3.8589 -6.6981,2.7334 -3.1099,-1.9294 -0.3986,-0.2411 -0.7973,-0.4823 -1.2758,-0.6431 -6.0601,3.7784 -9.4889,3.3765 -4.9438,-2.251 -0.2392,-0.0804 -0.3987,-0.1608 -0.6379,-0.2412 -4.4653,3.6981 -6.2993,4.1804 -4.4653,-1.5274 -0.3987,-0.1608 -0.8772,-0.2412 -1.2758,-0.402 -3.8275,4.9843 -4.4654,4.3412 -2.8706,-0.7235 -0.2392,-0.0804 -0.5582,-0.0804 -0.7974,-0.1608 -3.668,5.8686 -4.3059,5.949 -2.6314,-0.4823 -0.1595,0 -0.3987,-0.0804 -0.5582,-0.0804 -4.4653,6.6725 -5.9804,5.7078 -6.5385,-0.7236 -0.319,0 -0.6379,0 -0.9569,-0.0804 -1.834,6.5922 -2.3124,6.753 -1.9137,-0.0803 -0.0797,0 -0.2392,0 -0.319,0 -2.3921,7.6372 -3.7477,7.2352 -5.0235,0.0803 -0.1595,0 -0.3987,0 -0.5582,0 -1.196,7.7177 -2.1529,8.2 -4.3058,0.402 -0.1595,0 -0.2393,0 -0.3987,0.0804 -1.1961,7.2353 -1.9138,6.6725 -5.6615,1.0451 -0.4784,0.0804 -1.0366,0.2412 -1.515,0.402 0.2392,6.1902 0.5582,5.949 -3.5085,1.0451 -0.5582,0.1607 -1.0366,0.3215 -1.5948,0.5627 1.0366,4.4216 -0.3189,5.1451 -3.9072,1.5275 -0.3987,0.1607 -0.7974,0.3215 -1.196,0.4823 2.3124,5.6275 1.7542,6.1902 -3.1896,1.5275 -0.1595,0.0803 -0.2392,0.1607 -0.3987,0.1607 4.1464,6.351 3.5883,6.6726 -2.0732,1.1255 -0.0797,0.0804 -0.1595,0.0804 -0.2392,0.1608 4.3856,5.8686 3.8275,6.1902 -1.9935,1.2059 -0.1594,0.0804 -0.2392,0.1608 -0.3987,0.2412 3.8275,4.7431 3.1896,5.1451 -2.3921,1.5274 -0.319,0.1608 -0.5582,0.402 -0.8771,0.6432 3.349,4.0196 2.5516,4.7431 -2.8706,2.1705 -0.2392,0.2412 -0.5582,0.402 -0.7974,0.6432 4.864,4.5823 3.9869,5.3863 -3.1896,2.8941 -0.1594,0.1608 -0.3986,0.402 -0.5581,0.5627 5.7412,4.502 4.864,5.4667 -3.2693,3.5373 -0.2392,0.2412 -0.3987,0.4824 -0.6379,0.8039 5.4222,3.3765 4.6248,4.4216 -2.7909,3.8588 -0.2392,0.402 -0.4784,0.804 -0.7176,1.2059 6.5386,3.2157 6.0601,4.5824 -2.4719,4.9843 -0.1595,0.3216 -0.2392,0.5628 -0.319,0.8844 7.5752,2.4117 7.2563,2.6529 -1.196,3.7784 -0.0798,0.3216 -0.1595,0.7235 -0.2393,1.0451 6.0602,0.5627 5.9804,1.0451 -0.3986,2.1706 -0.0798,0.4823 -0.0798,0.9647 -0.1595,1.447 5.1032,0.8843 5.1032,2.9745 0.0797,5.3059 0.0798,0.7235 0.2392,1.3667 0.3987,2.0902 3.9869,0.0804 4.2262,0.8039 0.7177,2.4922 0.2392,0.6431 0.3986,1.2862 0.7176,1.849 3.8275,-0.2412 4.1464,0.4823 1.0366,2.3314 0.2392,0.5627 0.5582,1.0451 0.8771,1.5274 4.4654,-0.8039 5.0236,0 1.5948,2.4922 0.3987,0.5627 0.7974,1.1255 1.2758,1.6882 5.4222,-1.2059 6.2196,-0.2412 2.5517,2.9745 0.3189,0.3216 0.6379,0.6432 0.9568,0.9647 5.9007,-2.4921 6.6183,-1.7686 2.4719,2.251 0.319,0.2412 0.5582,0.4824 0.8771,0.7235 6.2994,-3.3764 7.1765,-2.6529 3.1098,2.3314 0.319,0.2412 0.6379,0.402 0.8772,0.6431 6.5385,-4.1 7.7346,-3.4568 4.2261,2.5726 0.319,0.1608 0.6379,0.3216 0.9569,0.4823 5.5817,-4.5823 6.5385,-3.8588 3.8274,1.7687 0.2392,0.0804 0.5582,0.2411 0.7974,0.3215 4.7843,-5.3058 5.9804,-4.5823 3.2693,1.2059 0.2392,0.0804 0.4784,0.1608 0.7176,0.2412 5.3425,-6.351 5.183,-6.6726 3.5085,0.9647 0.2392,0.0804 0.3987,0.0804 0.6379,0.1608 4.7046,-7.2353 5.7412,-7.0745 4.2262,0.8039 0.0797,0 0.1595,0 0.2392,0 3.9869,-8.2804 4.7046,-7.3157 4.7046,0.402 0.1594,0 0.3987,0 0.5581,0 2.8706,-7.5569 4.9438,-8.602 5.9804,-0.2412 0.0798,0 0.2392,0 0.319,0 1.6745,-7.3157 2.8706,-7.2353 5.0235,-0.8843 0.3987,-0.0804 0.7177,-0.1608 1.1164,-0.2412 0,0 -0.8772,-4.4216 0.7176,-5.0647 1.5948,-0.6431 2.6314,3.1353 3.668,3.698 0.2392,-0.0804 0.4784,-0.1607 0.7176,-0.2411 -0.2392,-0.8844 -1.0366,-2.8942 -1.1961,-3.6981 0.1595,-1.6078 1.834,-0.9647 4.3059,0.8843 0.319,-0.0804 1.1164,-0.2411 1.3556,-0.4019 -3.349,-4.2608 -3.9869,-6.4314 1.6745,-3.2961 0.3987,-0.2412 0.7176,-0.402 1.1163,-0.6431 -3.1895,-4.4216 -1.9137,-5.2255 4.6249,-2.9746 0.3987,-0.2411 0.7176,-0.4823 1.1163,-0.7235 -3.7477,-2.7333 -3.2693,-3.0549 1.834,-1.1255 0.3987,-0.2411 0.7176,-0.4823 1.1163,-0.7235 -3.5085,-2.6529 -2.4719,-3.2961 3.1896,-2.1706 0.5582,-0.4019 1.0366,-0.8039 1.515,-1.2059 -4.4653,-3.2157 -0.3987,-3.8588 1.7543,-2.251 l 0.7973,-0.5627 c -4.0666,-2.3314 -1.196,-3.2157 2.5517,-2.0902 3.7477,1.1255 4.7843,-1.849 5.1032,-1.849 0.4785,-0.6431 0.8772,-1.2059 1.2759,-1.849 -4.4654,-2.0902 -0.3987,-1.8491 5.1032,-2.251 0.1595,-0.402 0.319,-0.8039 0.4785,-1.2059 -6.0602,-0.9647 -1.2759,-4.1 5.1032,-3.6176 0.0798,-0.1608 0.0798,-0.3216 0.1595,-0.4824 -7.4157,-1.6882 -6.0601,-3.0549 2.3124,-3.5372 z"
   id="path17"
   stroke-width="1"
   fill="#64879c" />
          <path
   d="m 96.1542,70.6059 c 0,0.0804 0.319,-0.4824 0,0 z"
   id="path19"
   stroke-width="1"
   fill="#77a8c7" />
        </g>
        <g
   id="face_1_">
          <path
   d="m 121.9895,52.1157 c -3.9869,-0.9647 -6.6183,-3.6981 -9.7281,-6.0294 -0.4784,-0.3216 -1.2758,-0.9647 -1.9137,-1.3667 0,0 0.2392,-0.3216 -1.0366,1.2059 -2.6314,3.2157 -14.034,5.1451 -15.6287,8.2 -0.2393,0.4823 -0.3987,1.0451 -0.5582,1.6078 0.3189,0.0804 0.7176,0.1608 0.9568,0.1608 0.8772,0 1.9138,-0.4823 2.6314,-0.1608 -0.0797,0.1608 0.1595,1.1255 0.1595,1.1255 0,0 -4.5451,0.8843 -3.5882,2.7334 0.4784,0.9647 2.4719,0.7235 3.2692,0.8843 -0.1594,0.0804 0,0.7235 0,0.7235 -1.0366,0.6431 -3.5085,1.2059 -3.5085,2.5725 0,1.3667 4.3059,1.0451 4.3059,1.0451 0,0 0.0798,0.804 0.3987,0.804 -0.7974,0.4823 -3.2693,0.3215 -3.2693,1.3666 0,1.0451 2.6314,1.5275 2.6314,1.5275 0,0 1.834,7.3961 3.2693,8.2804 0,0 21.6889,-9.8883 29.264,-21.0628 l 1.2759,-2.6529 c -2.6314,-3.9392 -4.0667,0.2412 -8.9308,-0.9647 z"
   id="path22"
   class="mascot-fill"
   stroke-width="1" />
          <path
   d="m 126.7739,54.6882 c 0,0 2.4719,1.2863 3.5085,0.402 1.1163,-0.8843 0.3986,-3.5373 0.3986,-3.5373 -0.8771,-1.1254 -2.1529,-0.8843 -3.1895,0 -1.1163,0.8844 -1.5948,2.0098 -0.7176,3.1353 z"
   id="path24"
   fill="#65746f"
   stroke-width="1" />
          <path
   d="M 98.3869,52.6784 C 95.6758,50.1059 89.217,45.2824 85.6288,53 c -3.0301,6.5922 11.8013,3.7784 12.7581,-0.3216 z"
   id="path26"
   class="mascot-fill"
   stroke-width="1" />
          <g
   id="Group">
            <path
   id="Oval"
   transform="rotate(-29.492588,143.43084,-157.9751)"
   style="fill:#3e5360"
   d="M 9.5061765,9.3214788 A 1.4352622,1.4470266 0 0 1 8.0709143,10.768505 1.4352622,1.4470266 0 0 1 6.6356521,9.3214788 1.4352622,1.4470266 0 0 1 8.0709143,7.8744522 1.4352622,1.4470266 0 0 1 9.5061765,9.3214788 Z" />
            <g
   opacity="0.6"
   id="g31">
              <path
   d="m 104.8458,44.9608 c -2.0733,0.1608 -4.1465,1.2863 -4.8641,3.3765 -0.2392,0.8039 0.9569,1.1254 1.2758,0.3215 0.4784,-1.5274 2.153,-2.3313 3.668,-2.4117 0.7176,0 0.7176,-1.2863 -0.0797,-1.2863 z"
   stroke-width="1"
   fill="#c6a87b"
   id="path29" />
            </g>
          </g>
        </g>
      </g>
    </g>
  </g>
</svg>
