<?xml version="1.0" encoding="UTF-8" standalone="no"?>
<svg
   version="1.1"
   width="86.722183"
   height="150"
   viewBox="0.075621963 -0.13699999 86.722183 150"
   id="svg83"
   sodipodi:docname="owl.svg"
   inkscape:version="1.2.2 (b0a8486541, 2022-12-01)"
   xmlns:inkscape="http://www.inkscape.org/namespaces/inkscape"
   xmlns:sodipodi="http://sodipodi.sourceforge.net/DTD/sodipodi-0.dtd"
   xmlns="http://www.w3.org/2000/svg"
   xmlns:svg="http://www.w3.org/2000/svg">
  <defs
     id="defs87" />
  <sodipodi:namedview
     id="namedview85"
     pagecolor="#ffffff"
     bordercolor="#000000"
     borderopacity="0.25"
     inkscape:showpageshadow="2"
     inkscape:pageopacity="0.0"
     inkscape:pagecheckerboard="0"
     inkscape:deskcolor="#d1d1d1"
     showgrid="false"
     inkscape:zoom="2.7883127"
     inkscape:cx="24.028869"
     inkscape:cy="42.14018"
     inkscape:window-width="1870"
     inkscape:window-height="1011"
     inkscape:window-x="0"
     inkscape:window-y="0"
     inkscape:window-maximized="1"
     inkscape:current-layer="svg83" />
  <!-- Exported by Scratch - http://scratch.mit.edu/ -->
  <g
     id="ID0.616702429484576"
     transform="matrix(1.78442,0,0,1.78442,-0.52421353,-0.47795512)">
    <g
       id="Page-1">
      <g
         id="owl-a-[animals,bird,robert-hunter]">
        <g
           id="Group-441">
          <g
             id="Group-11">
            <path
               id="Fill-309"
               fill="#c7b4b0"
               stroke="none"
               stroke-width="1"
               d="m 1.192,82.385 c 0,0 34.805,4.702 43.274,-18.007 8.363,-22.421 -2.835,-31.239 -2.835,-31.239 0,0 -26.362,-6.339 -30.489,-1.483 -4.128,4.856 -9.95,50.729 -9.95,50.729" />
            <path
               id="Stroke-313"
               fill="none"
               stroke="#362f52"
               stroke-width="0.5"
               d="m 1.784,82.386 c 0,0 35.961,5.204 43.622,-20.698 6.699,-22.645 -5.104,-29.595 -5.104,-29.595 0,0 -15.312,-5.118 -31.513,-1.531 -0.577,0.7 -7.589,4.331 -7.005,51.824 z" />
            <path
               id="Fill-315"
               fill="#362f52"
               stroke="none"
               stroke-width="1"
               d="m 39.681,64.556 c 0,0 -0.446,1.306 -1.494,3.075 -0.246,0.45 -0.567,0.906 -0.883,1.401 -0.353,0.47 -0.692,0.99 -1.104,1.481 -0.201,0.25 -0.405,0.504 -0.612,0.762 -0.222,0.243 -0.448,0.489 -0.675,0.738 -0.439,0.512 -0.959,0.962 -1.448,1.44 -0.492,0.476 -1.039,0.893 -1.547,1.337 -0.534,0.413 -1.083,0.79 -1.602,1.171 -0.538,0.354 -1.074,0.672 -1.572,0.991 -0.247,0.164 -0.498,0.306 -0.748,0.428 -0.247,0.129 -0.486,0.253 -0.715,0.373 -0.463,0.231 -0.871,0.48 -1.263,0.634 -0.387,0.169 -0.724,0.315 -1.001,0.437 -0.554,0.247 -0.871,0.388 -0.871,0.388 0,0 0.327,-0.117 0.898,-0.322 0.286,-0.105 0.632,-0.232 1.029,-0.378 0.406,-0.13 0.828,-0.355 1.301,-0.574 0.236,-0.112 0.481,-0.228 0.735,-0.35 0.258,-0.115 0.516,-0.248 0.771,-0.404 0.514,-0.303 1.072,-0.602 1.617,-0.958 0.53,-0.38 1.092,-0.755 1.637,-1.168 0.521,-0.442 1.081,-0.859 1.585,-1.337 0.491,-0.491 1.012,-0.954 1.451,-1.478 0.227,-0.255 0.453,-0.507 0.676,-0.757 0.206,-0.263 0.409,-0.523 0.609,-0.779 0.418,-0.499 0.737,-1.043 1.077,-1.53 0.3,-0.512 0.606,-0.983 0.838,-1.447 0.119,-0.229 0.234,-0.449 0.342,-0.658 0.097,-0.215 0.189,-0.418 0.275,-0.61 0.174,-0.382 0.299,-0.726 0.408,-1.006 0.205,-0.566 0.286,-0.9 0.286,-0.9" />
          </g>
          <g
             id="Group-10">
            <path
               id="Fill-317"
               fill="#e09d73"
               stroke="none"
               stroke-width="1"
               d="m 21.361,81.082 c 0,0 -0.111,1.039 -0.111,2.92 h 13.182 c 0,0 -2.452,-3.018 -6.591,-4.232 0,0 -2.108,0.995 -6.236,1.498" />
            <path
               id="Stroke-319"
               fill="none"
               stroke="#362f52"
               stroke-width="0.5"
               d="m 21.641,81.563 c 0,0 -0.391,0.558 -0.391,2.439 h 13.182 c 0,0 -2.31,-2.868 -6.472,-4.268 0,0 -3.354,1.206 -6.154,1.793" />
          </g>
          <g
             id="Group-9">
            <path
               id="Fill-321"
               fill="#e09d73"
               stroke="none"
               stroke-width="1"
               d="m 16.09,83.981 h 13.182 c 0,0 -2.595,-2.603 -5.68,-3.785 0,0 -2.863,1.05 -7.146,1.05 0,0 -0.356,0.854 -0.356,2.735" />
            <path
               id="Stroke-323"
               fill="none"
               stroke="#362f52"
               stroke-width="0.5"
               d="m 16.09,83.981 h 13.182 c 0,0 -2.595,-2.603 -5.68,-3.785 0,0 -2.863,1.05 -7.146,1.05 0,0 -0.356,0.854 -0.356,2.735 z" />
          </g>
          <g
             id="Group-8">
            <path
               id="Fill-325"
               class="mascot-fill"
               stroke="none"
               stroke-width="1"
               d="m 40.755,8.926 c 0,0 -5.037,-2.066 -11.542,-2.332 -7.208,-0.294 -17.187,3.113 -18.474,5.112 -1.288,1.998 -2.651,5.142 -2.651,9.155 0,4.014 1.037,6.117 1.037,7.64 0,1.523 -1.979,0.42 2.714,3.538 3.326,2.208 12.816,5.96 24.068,5.959 2.972,-10e-4 4.814,-0.21 5.939,-0.511 0,0 0.188,-2.472 0.264,-3 0.073,-0.502 -0.24,-0.723 0.089,-1.101 0.888,-1.019 5.445,-6.411 5.445,-12.723 0,-6.312 -2.75,-10.031 -6.889,-11.737" />
            <path
               id="Stroke-327"
               fill="none"
               stroke="#362f52"
               stroke-width="0.5"
               d="M 42.298,33.231 C 43.941,31.71 47.814,25.749 47.647,21.506 47.469,16.997 46.485,12.78 43.416,10.471 40.346,8.162 34.887,6.587 28.496,6.587 c -9.335,0 -15.872,3.019 -17.745,5.119 -1.873,2.1 -2.672,6.255 -2.672,10.281 0,4.025 1.908,5.95 0.665,7.306 -1.242,1.356 11.159,8.706 26.672,8.706 3.368,0 6.504,-0.095 6.434,-0.648 -0.095,-0.741 0.448,-4.12 0.448,-4.12 z" />
          </g>
          <g
             id="Group-6">
            <path
               id="Fill-329"
               fill="#4b3a42"
               stroke="none"
               stroke-width="1"
               d="m 11.186,0.867 c 0,0 6.213,10.483 16.794,10.631 z" />
            <path
               id="Stroke-331"
               fill="none"
               stroke="#362f52"
               stroke-width="0.5265"
               d="M 31.256,13.431 C 31.394,13.456 10.751,0.437 10.751,0.437 c 0,0 5.814,10.369 20.505,12.994 z" />
          </g>
          <g
             id="Group-7">
            <path
               id="Fill-333"
               fill="#4b3a42"
               stroke="none"
               stroke-width="1"
               d="M 39.315,11.423 48.448,0.792 c 0,0 -3.379,10.484 -9.133,10.631" />
            <path
               id="Stroke-335"
               fill="none"
               stroke="#362f52"
               stroke-width="0.5265"
               d="M 37.533,13.356 C 37.457,13.381 48.684,0.363 48.684,0.363 c 0,0 -3.162,10.368 -11.151,12.993" />
          </g>
          <g
             id="Group-5">
            <path
               id="Fill-337"
               fill="#c4afad"
               stroke="none"
               stroke-width="1"
               d="m 35.731,20.632 c 0,-5.612 2.667,-10.161 5.958,-10.161 3.291,0 5.958,4.549 5.958,10.161 0,5.611 -2.667,10.161 -5.958,10.161 -3.291,0 -5.958,-4.55 -5.958,-10.161" />
            <path
               id="Fill-339"
               fill="#fccf87"
               stroke="none"
               stroke-width="1"
               d="m 39.104,20.861 c 0,-2.38 1.132,-4.309 2.527,-4.309 1.396,0 2.527,1.929 2.527,4.309 0,2.381 -1.131,4.31 -2.527,4.31 -1.395,0 -2.527,-1.929 -2.527,-4.31" />
            <path
               id="Fill-341"
               fill="#362f52"
               stroke="none"
               stroke-width="1"
               d="m 43.19,20.971 c 0,-1.498 -0.712,-2.713 -1.591,-2.713 -0.878,0 -1.591,1.215 -1.591,2.713 0,1.498 0.713,2.713 1.591,2.713 0.879,0 1.591,-1.215 1.591,-2.713" />
            <path
               id="Stroke-343"
               fill="none"
               stroke="#605579"
               stroke-width="0.5"
               d="m 39.104,20.774 c 0,-2.38 1.132,-4.309 2.527,-4.309 1.396,0 2.527,1.929 2.527,4.309 0,2.38 -1.131,4.309 -2.527,4.309 -1.395,0 -2.527,-1.929 -2.527,-4.309 z" />
            <path
               id="Stroke-345"
               fill="none"
               stroke="#605579"
               stroke-width="0.5265"
               d="m 35.695,20.663 c 0,-5.618 2.67,-10.172 5.964,-10.172 3.295,0 5.965,4.554 5.965,10.172 0,5.617 -2.67,10.172 -5.965,10.172 -3.294,0 -5.964,-4.555 -5.964,-10.172 z" />
            <path
               id="Fill-347"
               fill="#605579"
               stroke="none"
               stroke-width="1"
               d="m 42.298,15.83 c 0,0 0.078,-0.261 0.163,-0.656 0.083,-0.396 0.182,-0.926 0.251,-1.459 0.072,-0.533 0.116,-1.07 0.137,-1.474 0.021,-0.404 0.014,-0.676 0.014,-0.676 0,0 -0.078,0.261 -0.163,0.657 -0.084,0.395 -0.182,0.925 -0.252,1.459 -0.071,0.532 -0.114,1.069 -0.136,1.473 -0.021,0.404 -0.014,0.676 -0.014,0.676" />
            <path
               id="Fill-349"
               fill="#605579"
               stroke="none"
               stroke-width="1"
               d="m 40.523,30.125 c 0,0 0.073,-0.263 0.151,-0.662 0.076,-0.399 0.166,-0.933 0.226,-1.47 0.062,-0.536 0.095,-1.076 0.11,-1.481 0.013,-0.406 0.001,-0.679 0.001,-0.679 0,0 -0.073,0.263 -0.15,0.662 -0.078,0.399 -0.166,0.933 -0.226,1.469 -0.062,0.537 -0.095,1.076 -0.11,1.482 -0.014,0.406 -0.002,0.679 -0.002,0.679" />
            <path
               id="Fill-351"
               fill="#605579"
               stroke="none"
               stroke-width="1"
               d="m 45.045,28.312 c 0,0 -0.063,-0.229 -0.187,-0.559 -0.124,-0.33 -0.302,-0.764 -0.507,-1.186 -0.203,-0.422 -0.432,-0.832 -0.613,-1.135 -0.181,-0.303 -0.323,-0.496 -0.323,-0.496 0,0 0.064,0.229 0.188,0.559 0.124,0.33 0.302,0.764 0.508,1.185 0.202,0.423 0.431,0.833 0.613,1.136 0.181,0.303 0.321,0.496 0.321,0.496" />
            <path
               id="Fill-353"
               fill="#605579"
               stroke="none"
               stroke-width="1"
               d="m 46.48,25.373 c 0,0 -0.118,-0.149 -0.316,-0.347 -0.197,-0.199 -0.47,-0.452 -0.761,-0.683 -0.289,-0.233 -0.597,-0.444 -0.835,-0.594 -0.238,-0.149 -0.41,-0.232 -0.41,-0.232 0,0 0.118,0.149 0.316,0.347 0.197,0.199 0.47,0.452 0.761,0.683 0.29,0.233 0.598,0.443 0.835,0.593 0.238,0.149 0.41,0.233 0.41,0.233" />
            <path
               id="Fill-355"
               fill="#605579"
               stroke="none"
               stroke-width="1"
               d="m 47.226,21.952 c 0,0 -0.151,-0.069 -0.385,-0.142 -0.234,-0.072 -0.548,-0.155 -0.867,-0.209 -0.318,-0.058 -0.642,-0.086 -0.887,-0.097 -0.245,-0.011 -0.411,0.003 -0.411,0.003 0,0 0.152,0.069 0.385,0.142 0.234,0.073 0.548,0.155 0.867,0.21 0.318,0.057 0.642,0.085 0.887,0.096 0.245,0.011 0.411,-0.003 0.411,-0.003" />
            <path
               id="Fill-357"
               fill="#605579"
               stroke="none"
               stroke-width="1"
               d="m 47.043,17.877 c 0,0 -0.173,0.038 -0.418,0.123 -0.245,0.085 -0.565,0.211 -0.873,0.364 -0.309,0.15 -0.604,0.326 -0.82,0.468 -0.217,0.141 -0.352,0.255 -0.352,0.255 0,0 0.173,-0.038 0.418,-0.124 0.245,-0.085 0.566,-0.211 0.873,-0.364 0.308,-0.15 0.604,-0.327 0.821,-0.468 0.217,-0.142 0.351,-0.254 0.351,-0.254" />
            <path
               id="Fill-359"
               fill="#605579"
               stroke="none"
               stroke-width="1"
               d="m 45.54,13.965 c 0,0 -0.146,0.182 -0.336,0.47 -0.19,0.289 -0.431,0.679 -0.646,1.083 -0.217,0.404 -0.408,0.82 -0.542,1.138 -0.134,0.317 -0.204,0.539 -0.204,0.539 0,0 0.146,-0.182 0.336,-0.47 0.19,-0.288 0.431,-0.679 0.646,-1.084 0.217,-0.403 0.408,-0.82 0.542,-1.137 0.134,-0.318 0.204,-0.539 0.204,-0.539" />
            <path
               id="Fill-361"
               fill="#605579"
               stroke="none"
               stroke-width="1"
               d="m 40.035,11.885 c 0,0 0.008,0.267 0.05,0.663 0.043,0.396 0.113,0.921 0.214,1.441 0.096,0.521 0.222,1.035 0.327,1.419 0.106,0.385 0.197,0.637 0.197,0.637 0,0 -0.007,-0.267 -0.049,-0.663 -0.043,-0.396 -0.114,-0.921 -0.214,-1.441 -0.097,-0.521 -0.224,-1.035 -0.328,-1.42 -0.105,-0.384 -0.197,-0.636 -0.197,-0.636" />
            <path
               id="Fill-363"
               fill="#605579"
               stroke="none"
               stroke-width="1"
               d="m 37.745,14.252 c 0,0 0.094,0.191 0.258,0.46 0.166,0.267 0.398,0.616 0.654,0.947 0.253,0.333 0.53,0.648 0.746,0.878 0.217,0.23 0.378,0.371 0.378,0.371 0,0 -0.093,-0.192 -0.258,-0.46 -0.165,-0.268 -0.398,-0.616 -0.654,-0.947 -0.253,-0.333 -0.53,-0.648 -0.747,-0.878 -0.216,-0.23 -0.377,-0.371 -0.377,-0.371" />
            <path
               id="Fill-365"
               fill="#605579"
               stroke="none"
               stroke-width="1"
               d="m 36.541,17.728 c 0,0 0.127,0.13 0.336,0.298 0.208,0.167 0.495,0.379 0.796,0.566 0.3,0.19 0.616,0.355 0.859,0.47 0.242,0.115 0.416,0.174 0.416,0.174 0,0 -0.128,-0.131 -0.337,-0.299 -0.208,-0.168 -0.494,-0.379 -0.795,-0.566 -0.3,-0.19 -0.617,-0.354 -0.859,-0.469 -0.243,-0.115 -0.416,-0.174 -0.416,-0.174" />
            <path
               id="Fill-367"
               fill="#605579"
               stroke="none"
               stroke-width="1"
               d="m 36.346,21.843 c 0,0 0.16,0.042 0.4,0.074 0.24,0.032 0.561,0.061 0.881,0.06 0.321,0.002 0.641,-0.025 0.882,-0.055 0.24,-0.031 0.4,-0.073 0.4,-0.073 0,0 -0.16,-0.043 -0.4,-0.075 -0.24,-0.032 -0.56,-0.06 -0.882,-0.059 -0.32,-0.003 -0.641,0.025 -0.881,0.055 -0.24,0.031 -0.4,0.073 -0.4,0.073" />
            <path
               id="Fill-369"
               fill="#605579"
               stroke="none"
               stroke-width="1"
               d="m 36.994,25.831 c 0,0 0.17,-0.094 0.406,-0.259 0.233,-0.164 0.537,-0.393 0.821,-0.645 0.286,-0.249 0.553,-0.52 0.745,-0.731 0.193,-0.212 0.307,-0.368 0.307,-0.368 0,0 -0.171,0.093 -0.406,0.258 -0.235,0.164 -0.539,0.394 -0.822,0.645 -0.286,0.25 -0.552,0.521 -0.746,0.732 -0.192,0.211 -0.305,0.368 -0.305,0.368" />
            <path
               id="Fill-371"
               fill="#605579"
               stroke="none"
               stroke-width="1"
               d="m 42.77,30.141 c 0,0 0.019,-0.274 0.015,-0.682 -0.004,-0.408 -0.023,-0.951 -0.072,-1.492 -0.046,-0.54 -0.121,-1.078 -0.189,-1.481 -0.068,-0.402 -0.134,-0.669 -0.134,-0.669 0,0 -0.019,0.274 -0.015,0.682 0.003,0.408 0.023,0.951 0.073,1.491 0.046,0.541 0.122,1.079 0.189,1.481 0.067,0.403 0.133,0.67 0.133,0.67" />
            <path
               id="Fill-373"
               fill="#605579"
               stroke="none"
               stroke-width="1"
               d="m 38.466,28.609 c 0,0 0.13,-0.21 0.297,-0.536 0.165,-0.328 0.372,-0.768 0.552,-1.218 0.183,-0.451 0.339,-0.912 0.445,-1.261 0.106,-0.35 0.157,-0.591 0.157,-0.591 0,0 -0.131,0.21 -0.296,0.536 -0.167,0.327 -0.373,0.767 -0.553,1.218 -0.183,0.451 -0.337,0.912 -0.444,1.261 -0.106,0.35 -0.158,0.591 -0.158,0.591" />
            <path
               id="Fill-419"
               fill="#ffffff"
               stroke="none"
               stroke-width="1"
               d="m 42.859,20.218 c -0.037,-0.303 -0.191,-0.534 -0.345,-0.516 -0.154,0.017 -0.249,0.278 -0.212,0.582 0.036,0.303 0.19,0.534 0.344,0.516 0.154,-0.018 0.249,-0.279 0.213,-0.582" />
          </g>
          <g
             id="Group-4">
            <path
               id="Fill-375"
               fill="#e89b60"
               stroke="none"
               stroke-width="1"
               d="m 35.054,22.884 c 0,0 3.262,3.132 4.177,5.569 0.15,0.108 -7.633,0 -7.633,0 l 1.491,-4.77 c 0,0 0.233,1.831 1.965,-0.799" />
            <path
               id="Stroke-377"
               fill="none"
               stroke="#615d7a"
               stroke-width="0.5"
               d="m 35.054,22.884 c 0,0 3.262,3.132 4.177,5.569 0.15,0.108 -7.633,0 -7.633,0 l 1.491,-4.77 c 0,0 0.233,1.831 1.965,-0.799 z" />
          </g>
          <g
             id="Group-3">
            <path
               id="Fill-379"
               fill="#c4afad"
               stroke="none"
               stroke-width="1"
               d="m 13.916,20.773 c 0,-5.612 4.615,-10.161 10.308,-10.161 5.693,0 10.308,4.549 10.308,10.161 0,5.611 -4.615,10.161 -10.308,10.161 -5.693,0 -10.308,-4.55 -10.308,-10.161" />
            <path
               id="Fill-381"
               fill="#fccf87"
               stroke="none"
               stroke-width="1"
               d="m 19.752,21.002 c 0,-2.38 1.957,-4.309 4.372,-4.309 2.415,0 4.372,1.929 4.372,4.309 0,2.381 -1.957,4.31 -4.372,4.31 -2.415,0 -4.372,-1.929 -4.372,-4.31" />
            <path
               id="Fill-383"
               fill="#362f52"
               stroke="none"
               stroke-width="1"
               d="m 27.742,21.112 c 0,-1.498 -1.232,-2.713 -2.752,-2.713 -1.52,0 -2.752,1.215 -2.752,2.713 0,1.498 1.232,2.713 2.752,2.713 1.52,0 2.752,-1.215 2.752,-2.713" />
            <path
               id="Stroke-385"
               fill="none"
               stroke="#605579"
               stroke-width="0.5"
               d="m 19.752,20.915 c 0,-2.38 1.957,-4.309 4.372,-4.309 2.415,0 4.372,1.929 4.372,4.309 0,2.38 -1.957,4.309 -4.372,4.309 -2.415,0 -4.372,-1.929 -4.372,-4.309 z" />
            <path
               id="Stroke-387"
               fill="none"
               stroke="#605579"
               stroke-width="0.5265"
               d="m 13.854,20.804 c 0,-5.618 4.62,-10.172 10.319,-10.172 5.7,0 10.319,4.554 10.319,10.172 0,5.617 -4.619,10.172 -10.319,10.172 -5.699,0 -10.319,-4.555 -10.319,-10.172 z" />
            <path
               id="Fill-389"
               fill="#605579"
               stroke="none"
               stroke-width="1"
               d="m 25.278,15.971 c 0,0 0.102,-0.257 0.225,-0.65 0.122,-0.393 0.272,-0.92 0.393,-1.453 0.124,-0.533 0.218,-1.073 0.279,-1.48 0.06,-0.407 0.079,-0.682 0.079,-0.682 0,0 -0.103,0.257 -0.226,0.65 -0.122,0.393 -0.271,0.92 -0.392,1.453 -0.124,0.533 -0.217,1.073 -0.279,1.48 -0.059,0.407 -0.079,0.682 -0.079,0.682" />
            <path
               id="Fill-391"
               fill="#605579"
               stroke="none"
               stroke-width="1"
               d="m 22.207,30.266 c 0,0 0.094,-0.26 0.205,-0.657 0.11,-0.396 0.244,-0.927 0.348,-1.464 0.107,-0.536 0.185,-1.078 0.234,-1.487 0.047,-0.408 0.058,-0.684 0.058,-0.684 0,0 -0.095,0.26 -0.206,0.656 -0.111,0.397 -0.243,0.928 -0.348,1.465 -0.107,0.536 -0.184,1.078 -0.233,1.486 -0.047,0.409 -0.058,0.685 -0.058,0.685" />
            <path
               id="Fill-393"
               fill="#605579"
               stroke="none"
               stroke-width="1"
               d="m 30.031,28.453 c 0,0 -0.144,-0.238 -0.383,-0.574 -0.24,-0.336 -0.571,-0.776 -0.924,-1.197 -0.351,-0.424 -0.725,-0.828 -1.014,-1.124 -0.29,-0.297 -0.499,-0.481 -0.499,-0.481 0,0 0.143,0.237 0.383,0.575 0.24,0.336 0.571,0.775 0.924,1.196 0.351,0.423 0.726,0.827 1.014,1.124 0.289,0.297 0.499,0.481 0.499,0.481" />
            <path
               id="Fill-395"
               fill="#605579"
               stroke="none"
               stroke-width="1"
               d="m 32.513,25.514 c 0,0 -0.233,-0.154 -0.596,-0.357 -0.363,-0.202 -0.853,-0.459 -1.356,-0.69 -0.501,-0.233 -1.015,-0.441 -1.406,-0.586 -0.39,-0.146 -0.659,-0.223 -0.659,-0.223 0,0 0.233,0.154 0.596,0.357 0.363,0.202 0.853,0.459 1.356,0.69 0.501,0.233 1.016,0.44 1.405,0.586 0.391,0.145 0.66,0.223 0.66,0.223" />
            <path
               id="Fill-397"
               fill="#605579"
               stroke="none"
               stroke-width="1"
               d="m 33.804,22.093 c 0,0 -0.271,-0.069 -0.681,-0.142 -0.411,-0.073 -0.96,-0.157 -1.511,-0.211 -0.552,-0.057 -1.106,-0.085 -1.524,-0.096 -0.416,-0.01 -0.696,0.004 -0.696,0.004 0,0 0.271,0.07 0.681,0.143 0.411,0.073 0.96,0.156 1.511,0.21 0.552,0.057 1.106,0.085 1.523,0.096 0.417,0.01 0.697,-0.004 0.697,-0.004" />
            <path
               id="Fill-399"
               fill="#605579"
               stroke="none"
               stroke-width="1"
               d="m 33.488,18.018 c 0,0 -0.278,0.035 -0.687,0.118 -0.409,0.084 -0.949,0.208 -1.481,0.36 -0.533,0.151 -1.059,0.328 -1.449,0.472 -0.391,0.143 -0.646,0.26 -0.646,0.26 0,0 0.279,-0.035 0.687,-0.118 0.409,-0.084 0.949,-0.209 1.481,-0.361 0.533,-0.15 1.059,-0.328 1.449,-0.472 0.39,-0.143 0.646,-0.259 0.646,-0.259" />
            <path
               id="Fill-401"
               fill="#605579"
               stroke="none"
               stroke-width="1"
               d="m 30.886,14.106 c 0,0 -0.218,0.174 -0.522,0.455 -0.303,0.282 -0.698,0.667 -1.071,1.072 -0.374,0.402 -0.727,0.824 -0.984,1.148 -0.257,0.324 -0.412,0.555 -0.412,0.555 0,0 0.219,-0.174 0.522,-0.455 0.304,-0.281 0.699,-0.667 1.071,-1.071 0.375,-0.403 0.727,-0.826 0.985,-1.15 0.256,-0.324 0.411,-0.554 0.411,-0.554" />
            <path
               id="Fill-403"
               fill="#605579"
               stroke="none"
               stroke-width="1"
               d="m 21.363,12.026 c 0,0 0.045,0.273 0.142,0.672 0.098,0.4 0.241,0.928 0.413,1.448 0.168,0.521 0.366,1.032 0.523,1.413 0.159,0.38 0.285,0.627 0.285,0.627 0,0 -0.044,-0.273 -0.142,-0.673 -0.098,-0.399 -0.241,-0.928 -0.413,-1.447 -0.169,-0.521 -0.367,-1.032 -0.524,-1.413 -0.158,-0.38 -0.284,-0.627 -0.284,-0.627" />
            <path
               id="Fill-405"
               fill="#605579"
               stroke="none"
               stroke-width="1"
               d="m 17.399,14.393 c 0,0 0.194,0.199 0.505,0.474 0.312,0.273 0.735,0.627 1.176,0.958 0.44,0.333 0.897,0.644 1.247,0.867 0.35,0.224 0.596,0.357 0.596,0.357 0,0 -0.194,-0.2 -0.505,-0.474 -0.311,-0.274 -0.735,-0.628 -1.176,-0.958 -0.44,-0.333 -0.898,-0.643 -1.247,-0.867 -0.35,-0.224 -0.596,-0.357 -0.596,-0.357" />
            <path
               id="Fill-407"
               fill="#605579"
               stroke="none"
               stroke-width="1"
               d="m 15.317,17.869 c 0,0 0.245,0.133 0.625,0.304 0.379,0.171 0.89,0.386 1.411,0.573 0.52,0.19 1.05,0.352 1.451,0.464 0.402,0.112 0.677,0.167 0.677,0.167 0,0 -0.246,-0.134 -0.624,-0.305 -0.38,-0.171 -0.891,-0.385 -1.412,-0.573 -0.52,-0.189 -1.051,-0.351 -1.452,-0.464 -0.401,-0.112 -0.676,-0.166 -0.676,-0.166" />
            <path
               id="Fill-409"
               fill="#605579"
               stroke="none"
               stroke-width="1"
               d="m 14.979,21.984 c 0,0 0.277,0.042 0.693,0.074 0.416,0.032 0.97,0.061 1.525,0.06 0.554,0.002 1.109,-0.024 1.524,-0.055 0.417,-0.031 0.693,-0.073 0.693,-0.073 0,0 -0.276,-0.043 -0.692,-0.075 -0.416,-0.032 -0.971,-0.06 -1.525,-0.059 -0.555,-0.003 -1.109,0.025 -1.525,0.055 -0.416,0.031 -0.693,0.073 -0.693,0.073" />
            <path
               id="Fill-411"
               fill="#605579"
               stroke="none"
               stroke-width="1"
               d="m 16.1,25.972 c 0,0 0.266,-0.088 0.651,-0.248 0.384,-0.16 0.89,-0.385 1.382,-0.637 0.493,-0.249 0.974,-0.524 1.329,-0.74 0.355,-0.215 0.581,-0.378 0.581,-0.378 0,0 -0.266,0.088 -0.65,0.247 -0.384,0.16 -0.89,0.386 -1.382,0.637 -0.494,0.25 -0.973,0.525 -1.329,0.74 -0.355,0.216 -0.582,0.379 -0.582,0.379" />
            <path
               id="Fill-413"
               fill="#605579"
               stroke="none"
               stroke-width="1"
               d="m 26.095,30.282 c 0,0 0.001,-0.277 -0.029,-0.687 -0.031,-0.409 -0.085,-0.954 -0.169,-1.495 -0.08,-0.54 -0.19,-1.077 -0.283,-1.478 -0.094,-0.4 -0.177,-0.664 -0.177,-0.664 0,0 -0.001,0.276 0.028,0.687 0.03,0.41 0.086,0.954 0.169,1.494 0.081,0.541 0.191,1.077 0.284,1.478 0.094,0.401 0.177,0.665 0.177,0.665" />
            <path
               id="Fill-415"
               fill="#605579"
               stroke="none"
               stroke-width="1"
               d="m 18.648,28.75 c 0,0 0.192,-0.202 0.454,-0.522 0.261,-0.321 0.598,-0.755 0.911,-1.207 0.314,-0.45 0.605,-0.916 0.814,-1.272 0.209,-0.356 0.33,-0.605 0.33,-0.605 0,0 -0.191,0.202 -0.454,0.522 -0.261,0.32 -0.597,0.755 -0.91,1.207 -0.314,0.45 -0.605,0.916 -0.814,1.272 -0.209,0.355 -0.331,0.605 -0.331,0.605" />
            <path
               id="Fill-417"
               fill="#ffffff"
               stroke="none"
               stroke-width="1"
               d="m 26.888,20.251 c 0,-0.306 -0.251,-0.553 -0.561,-0.553 -0.31,0 -0.561,0.247 -0.561,0.553 0,0.305 0.251,0.553 0.561,0.553 0.31,0 0.561,-0.248 0.561,-0.553" />
          </g>
          <g
             id="Group-2">
            <path
               id="Fill-311"
               class="mascot-fill"
               stroke="none"
               stroke-width="1"
               d="m 46.769,55.784 c 0,0 -6.778,-13.781 -4.311,-21.815 0,0 7.431,7.728 4.311,21.815" />
            <path
               id="Fill-421"
               fill="#615d7a"
               stroke="none"
               stroke-width="1"
               d="m 34.758,26.053 c 0,0 0.883,-0.378 0.832,-1.656 0,0 -0.903,0.417 -0.832,1.656" />
            <path
               id="Stroke-423"
               fill="none"
               stroke="#362f52"
               stroke-width="0.5"
               d="m 46.769,56.05 c 0,0 -6.761,-14.102 -4.443,-22.223" />
          </g>
          <g
             id="Group">
            <path
               id="Fill-425"
               class="mascot-fill"
               stroke="none"
               stroke-width="1"
               d="m 0.8,82.931 c 0,0 26.54,-14.041 27.007,-32.561 C 28.263,32.301 13.325,28.75 8.733,29.042 c 0,0 -7.384,8.279 -7.916,18.484 C 0.284,57.731 0.8,82.931 0.8,82.931" />
            <path
               id="Fill-427"
               class="mascot-fill"
               stroke="none"
               stroke-width="1"
               d="m 0.877,82.931 c 0,0 8.969,-5.382 12.148,-8.438 0,0 1.882,-13.083 -5.284,-18.842 C 3.987,52.634 0.576,52.564 0.576,52.564 Z" />
            <path
               id="Stroke-429"
               fill="none"
               stroke="#362f52"
               stroke-width="0.5"
               d="m 0.8,82.931 c 0,0 26.942,-14.11 26.942,-33.207 0,-19.096 -16.822,-20.974 -18.953,-20.651 0,0 -7.323,7.395 -7.989,19.142 -0.48,8.473 0,29.072 0,34.716 z" />
            <path
               id="Stroke-431"
               fill="none"
               stroke="#362f52"
               stroke-width="0.5"
               d="M 12.898,74.663 C 13.275,73.984 16.023,55.084 0.651,52.421" />
            <path
               id="Fill-433"
               fill="#362f52"
               stroke="none"
               stroke-width="1"
               d="m 1.777,52.813 c 0,0 0.019,0.23 0.054,0.632 0.041,0.401 0.064,0.976 0.109,1.662 0.042,0.687 0.061,1.489 0.066,2.345 0.016,0.429 -0.013,0.871 -0.007,1.321 -0.012,0.449 -0.03,0.905 -0.055,1.36 -0.037,0.454 -0.049,0.911 -0.106,1.356 -0.06,0.444 -0.077,0.887 -0.157,1.307 -0.075,0.419 -0.11,0.834 -0.2,1.215 -0.084,0.382 -0.136,0.752 -0.233,1.081 -0.095,0.328 -0.171,0.634 -0.239,0.906 -0.074,0.269 -0.165,0.496 -0.226,0.687 -0.125,0.385 -0.196,0.605 -0.196,0.605 0,0 0.106,-0.206 0.292,-0.566 0.086,-0.183 0.207,-0.4 0.317,-0.661 C 1.3,65.8 1.419,65.503 1.536,65.174 1.661,64.847 1.744,64.479 1.86,64.096 1.983,63.713 2.056,63.298 2.143,62.871 2.238,62.444 2.288,61.996 2.35,61.543 2.412,61.089 2.432,60.625 2.475,60.162 2.517,59.235 2.526,58.306 2.474,57.439 2.434,56.57 2.326,55.766 2.237,55.078 2.038,53.704 1.777,52.813 1.777,52.813" />
            <path
               id="Fill-435"
               fill="#362f52"
               stroke="none"
               stroke-width="1"
               d="m 4.773,53.689 c 0,0 0.03,0.335 0.06,0.921 0.042,0.585 0.053,1.422 0.067,2.425 -0.003,0.501 0.007,1.043 -0.022,1.617 -0.011,0.574 -0.051,1.177 -0.091,1.801 -0.022,0.625 -0.117,1.265 -0.168,1.918 -0.078,0.651 -0.17,1.311 -0.274,1.967 -0.134,0.651 -0.219,1.314 -0.387,1.947 -0.172,0.631 -0.282,1.269 -0.493,1.857 -0.197,0.591 -0.342,1.18 -0.572,1.705 -0.105,0.266 -0.206,0.526 -0.305,0.777 -0.092,0.253 -0.194,0.493 -0.314,0.713 -0.227,0.445 -0.426,0.86 -0.602,1.229 -0.194,0.359 -0.395,0.654 -0.545,0.907 -0.303,0.506 -0.476,0.795 -0.476,0.795 0,0 0.205,-0.268 0.563,-0.738 0.172,-0.24 0.402,-0.521 0.629,-0.865 0.211,-0.353 0.45,-0.754 0.7,-1.197 C 2.677,71.25 2.793,71.013 2.901,70.761 3.015,70.512 3.133,70.254 3.254,69.989 3.517,69.466 3.701,68.88 3.913,68.28 4.14,67.685 4.284,67.044 4.458,66.4 4.635,65.756 4.73,65.086 4.87,64.423 4.969,63.755 5.057,63.084 5.13,62.423 5.179,61.761 5.247,61.109 5.255,60.476 5.283,59.844 5.284,59.233 5.266,58.654 5.262,58.075 5.224,57.528 5.199,57.024 5.064,55.007 4.773,53.689 4.773,53.689" />
            <path
               id="Fill-437"
               fill="#362f52"
               stroke="none"
               stroke-width="1"
               d="m 8.478,56.263 c 0,0 -0.003,0.408 -0.041,1.12 -0.026,0.712 -0.113,1.727 -0.231,2.94 -0.066,0.607 -0.132,1.263 -0.24,1.954 -0.087,0.692 -0.226,1.416 -0.347,2.166 -0.117,0.752 -0.305,1.517 -0.459,2.3 -0.202,0.772 -0.381,1.564 -0.618,2.339 -0.243,0.773 -0.432,1.564 -0.727,2.307 -0.273,0.75 -0.524,1.495 -0.852,2.183 -0.309,0.694 -0.581,1.378 -0.921,1.989 -0.33,0.614 -0.594,1.225 -0.942,1.728 -0.326,0.515 -0.617,0.994 -0.875,1.42 -0.284,0.407 -0.553,0.748 -0.764,1.037 -0.424,0.579 -0.667,0.91 -0.667,0.91 0,0 0.272,-0.308 0.748,-0.846 0.232,-0.274 0.529,-0.598 0.844,-0.988 0.292,-0.407 0.621,-0.868 0.97,-1.378 0.374,-0.496 0.668,-1.097 1.03,-1.706 0.372,-0.605 0.686,-1.281 1.001,-1.985 0.343,-0.694 0.609,-1.445 0.897,-2.201 0.309,-0.75 0.515,-1.547 0.771,-2.327 0.228,-0.79 0.396,-1.593 0.59,-2.377 0.144,-0.794 0.322,-1.57 0.429,-2.331 C 8.194,63.759 8.291,63.023 8.35,62.321 8.427,61.622 8.465,60.958 8.504,60.346 8.574,59.121 8.557,58.098 8.54,57.384 8.522,56.669 8.478,56.263 8.478,56.263" />
            <path
               id="Fill-439"
               fill="#362f52"
               stroke="none"
               stroke-width="1"
               d="m 11.901,61.688 c 0,0 -0.02,0.383 -0.102,1.046 -0.08,0.663 -0.228,1.606 -0.477,2.721 -0.107,0.561 -0.278,1.156 -0.443,1.788 -0.188,0.626 -0.391,1.285 -0.621,1.958 -0.245,0.669 -0.48,1.368 -0.795,2.047 -0.152,0.342 -0.293,0.692 -0.456,1.034 -0.172,0.336 -0.346,0.674 -0.52,1.012 -0.315,0.693 -0.731,1.332 -1.101,1.983 -0.179,0.329 -0.387,0.638 -0.6,0.937 -0.209,0.303 -0.415,0.602 -0.617,0.896 -0.192,0.302 -0.416,0.573 -0.631,0.842 -0.213,0.271 -0.421,0.536 -0.623,0.793 -0.39,0.531 -0.828,0.973 -1.217,1.395 -0.401,0.411 -0.73,0.829 -1.077,1.141 -0.342,0.32 -0.641,0.599 -0.887,0.829 -0.488,0.466 -0.767,0.731 -0.767,0.731 0,0 0.303,-0.237 0.835,-0.654 0.265,-0.211 0.586,-0.469 0.954,-0.763 0.377,-0.287 0.738,-0.679 1.158,-1.079 0.414,-0.408 0.879,-0.836 1.298,-1.353 0.218,-0.252 0.442,-0.511 0.67,-0.775 0.236,-0.26 0.458,-0.539 0.661,-0.84 0.211,-0.296 0.425,-0.596 0.642,-0.901 0.221,-0.302 0.437,-0.612 0.625,-0.943 0.387,-0.656 0.821,-1.3 1.151,-2.001 0.172,-0.347 0.343,-0.694 0.513,-1.039 0.161,-0.35 0.298,-0.708 0.447,-1.058 0.309,-0.696 0.537,-1.408 0.775,-2.091 0.232,-0.685 0.396,-1.366 0.558,-2.007 0.136,-0.648 0.28,-1.256 0.362,-1.828 0.106,-0.567 0.157,-1.093 0.204,-1.559 0.042,-0.466 0.067,-0.873 0.081,-1.208 0.026,-0.671 0,-1.054 0,-1.054" />
          </g>
        </g>
      </g>
    </g>
  </g>
</svg>
