<?xml version="1.0" encoding="UTF-8" standalone="no"?>
<svg
   version="1.1"
   width="120"
   height="125.16246"
   viewBox="0 0 120 125.16246"
   id="svg68"
   sodipodi:docname="pony.svg"
   inkscape:version="1.2.2 (b0a8486541, 2022-12-01)"
   xmlns:inkscape="http://www.inkscape.org/namespaces/inkscape"
   xmlns:sodipodi="http://sodipodi.sourceforge.net/DTD/sodipodi-0.dtd"
   xmlns="http://www.w3.org/2000/svg"
   xmlns:svg="http://www.w3.org/2000/svg">
  <defs
     id="defs72" />
  <sodipodi:namedview
     id="namedview70"
     pagecolor="#ffffff"
     bordercolor="#000000"
     borderopacity="0.25"
     inkscape:showpageshadow="2"
     inkscape:pageopacity="0.0"
     inkscape:pagecheckerboard="0"
     inkscape:deskcolor="#d1d1d1"
     showgrid="false"
     inkscape:zoom="1.5292244"
     inkscape:cx="73.893668"
     inkscape:cy="77.490263"
     inkscape:window-width="1870"
     inkscape:window-height="1011"
     inkscape:window-x="0"
     inkscape:window-y="0"
     inkscape:window-maximized="1"
     inkscape:current-layer="svg68" />
  <g
     transform="matrix(0.81101904,0,0,0.81101904,-134.87133,-83.331558)"
     id="g66">
    <g
       data-paper-data="{&quot;isPaintingLayer&quot;:true}"
       fill-rule="nonzero"
       stroke-linecap="butt"
       stroke-linejoin="miter"
       stroke-miterlimit="10"
       stroke-dasharray="none"
       stroke-dashoffset="0"
       style="mix-blend-mode:normal"
       id="g64">
      <g
         stroke="none"
         stroke-width="0.85738"
         id="g14">
        <path
           d="m 287.9889,162.726 c -4.0039,7.0184 -2.6947,14.4707 -2.0834,21.8664 -1.004,5.2095 -2.5404,9.8847 -3.8513,14.7855 0.4638,7.598 5.0988,11.4579 8.1202,16.7642 -1.3778,8.9922 -3.066,17.8772 -8.0173,25.6132 l 1.5621,5.9365 c -7.7352,5.4469 -14.187,1.3135 -17.5967,-1.2509 l -3.5401,-44.8767 c -7.8099,1.0657 -15.6188,0.7785 -23.4287,-0.313 -5.3569,8.4666 -10.3716,17.1655 -11.223,25.2883 -1.1035,10.5346 2.9322,19.8028 3.1011,23.234 -1.8888,3.0463 -4.8767,2.7942 -7.7044,3.0197 l -1.5604,2.6021 c -5.1374,2.2283 -10.2748,1.3418 -15.4113,-0.7296 -5.5729,-11.1605 -0.0892,-53.5122 9.2674,-49.7698 -5.2549,-12.5656 -5.5147,-25.8061 4.4772,-37.0694 -3.5221,-1.5776 -9.4963,-2.675 -10.7241,17.4939 l -1.1463,-2.1881 c -1.3281,7.8973 -0.998,16.2361 -4.9968,23.5315 l -1.25,-1.8759 c -2.5224,2.8233 -7.4935,18.1489 -25.8224,9.3728 l 3.0188,-0.4158 c -11.6903,-5.0799 -11.6389,-11.3748 -12.2862,-17.595 3.1243,4.484 15.4979,13.0183 24.6778,4.2688 l -4.9985,0.1038 c 4.635,-1.1103 10.2097,-9.1534 12.8238,-27.5586 l -2.8285,0.0703 c 9.0496,-14.7177 18.4739,-15.4611 28.1125,-8.2274 4.5466,-1.8099 9.0924,-1.6625 13.64,-1.5621 6.2434,2.152 12.4345,5.2017 19.056,0.9379 l -0.6251,-2.3946 -1.665,2.0825 c -0.8153,-8.7117 0.1252,-17.4227 3.7476,-26.1345 l -3.5401,2.0826 c 2.0131,-5.3809 3.9688,-10.7986 7.6024,-15.0984 0.09,-6.8941 -0.7905,-12.8306 7.0802,-21.6573 2.8104,1.5596 4.7207,4.5553 6.1439,8.3303 l 8.8507,-5.4143 -1.0409,2.7067 c 5.9794,-1.533 9.8161,-5.5746 24.8853,3.4364 l -3.2288,-0.1038 c 7.7566,7.4438 7.496,15.1961 8.3294,22.9074 l -6.6627,-2.2918 c 0.4424,6.1808 0.9843,12.3359 -0.7305,19.0552 7.5492,10.6546 -13.2121,11.3662 -18.5339,11.037 z"
           class="mascot-fill"
           id="path2" />
        <path
           d="m 291.4767,141.5376 c 0.1407,4.19 -0.1526,7.3632 -4.4763,8.1725 -6.3506,1.1892 -11.1219,-4.5072 -10.7249,-10.6203 0.2298,-3.5495 5.0971,-6.9301 8.6423,-6.4028 3.6319,0.5393 6.3729,3.3163 6.5589,8.8506 z"
           fill="#ffffff"
           id="path4" />
        <path
           d="m 307.8843,155.9364 c -2.6107,5.8447 -8.8901,7.4857 -17.1809,6.8204 -4.7207,-1.1969 -17.325,1.004 -15.0461,-8.7992 1.5159,-6.5169 17.4124,-7.6504 25.0937,-0.0523 z"
           fill="#ffffff"
           id="path6" />
        <path
           d="m 265.7589,200.5765 c -9.7166,1.4618 -19.639,2.1228 -30.4548,-0.6782 2.3372,-3.2889 4.3632,-6.6584 5.0499,-10.3605 4.3529,-0.6199 11.3337,-1.5724 19.4187,1.0417 5.0577,2.182 5.1889,6.2142 5.9862,9.997 z"
           fill="#ffffff"
           id="path8" />
        <path
           d="m 198.5227,209.6321 c -3.8376,3.931 -8.9724,10.5491 -22.2377,4.4909 l 2.7264,-0.2212 c -6.9233,-3.3901 -12.6771,-7.7978 -12.2227,-17.595 3.8402,5.3397 17.3919,11.932 24.4446,4.1239 l -4.3177,0.3104 5.3483,-4.3615 h 1.7679 l -0.1663,1.6753 2.7418,-1.7481 -2.134,7.0673 5.8165,-2.5773 z"
           fill="#ffffff"
           id="path10" />
        <path
           d="m 307.075,149.555 c -3.6396,1.3375 -4.4832,-3.2298 -4.3341,-9.6189 0.3721,-4.7053 3.0343,-6.1431 4.7242,-5.9082 0.7485,5.1751 0.5804,10.3511 -0.3901,15.5271 z"
           fill="#ffffff"
           id="path12" />
      </g>
      <path
         d="m 284.2105,132.38 c 1.641,0.0626 3.4072,0.547 4.8124,1.9368 1.4053,1.3907 2.417,3.6636 2.651,7.2294 0.2161,2.9751 -0.2212,5.0131 -1.0854,6.3789 -0.8642,1.3649 -2.152,2.0182 -3.4827,2.23 -1.3297,0.2126 -2.7153,0.007 -3.8839,-0.3224 -1.1677,-0.3292 -3.3626,-1.4926 -4.5801,-3.1662 2.8448,3.0917 9.3823,4.8296 11.4168,0.9259 0.7657,-1.2089 1.2089,-3.1148 0.998,-6.0059 -0.228,-3.4655 -1.2046,-5.5712 -2.4752,-6.8281 -1.2698,-1.2569 -2.8645,-1.6933 -4.4018,-1.7508 -1.713,-0.0651 -3.4123,0.6765 -4.8038,1.8099 -1.3916,1.1335 -2.4581,2.6519 -2.9143,4.0794 l -0.5967,-0.186 c 0.5024,-1.5724 1.6402,-3.1757 3.1217,-4.3821 1.4798,-1.208 3.3172,-2.0208 5.224,-1.9488 z"
         fill="#000000"
         stroke="none"
         stroke-width="0.85738"
         id="path16" />
      <path
         d="m 286.5974,145.7885 c 0.0163,-0.619 0.5213,-1.1137 1.142,-1.1137 0.6294,0 1.1404,0.5118 1.1404,1.142 0,0.6302 -0.511,1.1412 -1.1404,1.1412 -0.6301,0 -1.142,-0.511 -1.142,-1.1412"
         fill="#000000"
         stroke="none"
         stroke-width="0.85738"
         id="path18" />
      <path
         d="m 304.4334,145.1806 c 0.0154,-0.6181 0.5213,-1.1128 1.1394,-1.1128 0.6311,0 1.1421,0.5118 1.1421,1.1411 0,0.6311 -0.511,1.142 -1.1421,1.142 -0.6293,0 -1.1394,-0.5109 -1.1394,-1.142"
         fill="#000000"
         stroke="none"
         stroke-width="0.85738"
         id="path20" />
      <path
         d="m 306.2673,133.6909 c 0.529,-0.0385 1.0477,0.0704 1.5073,0.3036 l -0.2829,0.5573 c -0.7288,-0.3687 -1.6059,-0.3593 -2.3964,0.234 -0.7871,0.5925 -1.5073,1.8091 -1.7516,3.9234 0,0.007 0.002,0.0137 0,0.0197 -0.3413,2.9914 -0.7768,5.7813 0.2675,8.7401 0.7167,1.9196 1.4884,2.7547 3.835,1.8262 -0.9457,0.6301 -1.8013,1.0305 -2.5181,0.6344 -0.715,-0.3952 -1.2338,-1.1634 -1.6916,-2.1125 l -0.0111,-0.0189 -0.0112,-0.0103 c -1.1995,-3.1603 -0.7991,-6.1645 -0.499,-9.107 l 0.0112,-0.0103 v -0.0103 c 0.2529,-2.2369 1.0099,-3.6404 1.9848,-4.3726 0.4878,-0.3653 1.028,-0.5573 1.5561,-0.5968 z"
         fill="#000000"
         stroke="none"
         stroke-width="0.85738"
         id="path22" />
      <path
         d="m 303.7381,157.5191 c -1.8785,-0.2692 -4.9368,-1.2518 -4.8948,-2.9416 0.0875,-1.4644 1.9608,-1.8365 4.8159,-1.6402 2.3543,-0.0506 4.839,-0.1912 4.6332,1.5098 -1.0382,2.6193 -2.8979,2.9288 -4.5543,3.072 z"
         fill="#000000"
         stroke="none"
         stroke-width="0.85738"
         id="path24" />
      <path
         d="m 293.7677,160.904 c -2.6476,-0.6996 -2.3158,-2.8267 -2.2387,-4.1128 0,0 7.5501,1.6659 8.0697,1.7696 -1.293,2.0166 -3.15,2.9623 -5.831,2.3432 z"
         fill="none"
         stroke="#000000"
         stroke-width="0.42869"
         id="path26" />
      <path
         d="m 276.4633,138.8909 c -2.2678,1.0632 -3.6962,-0.2563 -4.1712,-1.2132 1.1532,1.0143 2.5396,1.3333 3.8531,0.7031 z"
         fill="#000000"
         stroke="none"
         stroke-width="0.85738"
         id="path28" />
      <path
         d="m 276.5884,137.6975 c -1.6513,-0.0643 -3.0136,-0.806 -3.8273,-1.7568 1.1883,0.6593 2.6759,1.1883 4.1394,1.0923 z"
         fill="#000000"
         stroke="none"
         stroke-width="0.85738"
         id="path30" />
      <path
         d="m 277.3686,136.3308 c -1.2903,-0.3541 -2.6132,-0.6559 -3.0719,-2.7076 0.7562,1.0554 2.0217,1.9634 3.462,2.1083 z"
         fill="#000000"
         stroke="none"
         stroke-width="0.85738"
         id="path32" />
      <path
         d="m 307.6546,134.6812 c 2.0276,0.4107 2.4332,-0.0566 3.865,-0.8471 -0.7836,1.5056 -1.8982,1.5699 -3.6807,1.6762 z"
         fill="#000000"
         stroke="none"
         stroke-width="0.85738"
         id="path34" />
      <path
         d="m 306.9181,133.7432 c 1.5338,0.2152 2.9485,-0.3986 3.9405,-1.7301 -0.7434,2.1005 -2.0269,2.3886 -3.4433,2.4289 z"
         fill="#000000"
         stroke="none"
         stroke-width="0.85738"
         id="path36" />
      <g
         id="g62">
        <path
           d="m 287.7695,162.4413 0.7527,0.5659 c -3.0094,4.0519 -3.4543,9.6857 -2.4083,17.5101 0.6773,5.0543 -0.2187,8.7204 -1.2707,11.6012 -1.052,2.8808 -2.2171,4.9848 -2.2206,6.8967 -0.005,4.28 1.8588,7.8759 3.7665,10.8295 0.9542,1.4764 1.9145,2.7848 2.651,3.9516 0.7373,1.1652 1.286,2.1769 1.2912,3.1698 0.048,7.6272 -2.3749,15.2218 -5.3998,20.9422 -1.5124,2.8602 -3.1697,5.2566 -4.773,6.9542 -1.6041,1.701 -3.1397,2.7513 -4.5578,2.7684 -2.8807,0.0386 -5.0036,-2.0088 -6.3403,-4.3811 -1.3357,-2.3724 -1.9565,-5.0817 -1.839,-6.7896 0.0669,-0.9688 0.6379,-2.2155 1.4266,-3.7073 0.7914,-1.4901 1.8151,-3.1894 2.8285,-4.8527 1.0126,-1.6616 2.0217,-3.2864 2.7582,-4.6264 0.3704,-0.6696 0.6679,-1.2689 0.8711,-1.7508 0.2049,-0.4818 0.2984,-0.8659 0.2949,-0.998 0,0 -0.078,-0.2512 -0.3035,-0.5667 -0.2238,-0.3155 -0.5718,-0.7219 -0.9885,-1.1737 -0.8317,-0.9046 -1.9643,-2.0183 -3.15,-3.2478 -2.3698,-2.4581 -4.9454,-5.3114 -5.693,-7.9624 -0.4604,-1.6359 -0.066,-3.1646 -0.0686,-5.1743 0.1621,-3.3677 -0.9645,-6.859 -1.9239,-9.2219 2.2043,3.8033 2.8627,7.0973 2.8627,9.2219 0.002,2.122 -0.3481,3.5821 0.0292,4.9179 0.6379,2.2601 3.1191,5.1254 5.4683,7.5612 1.1746,1.2201 2.3107,2.3372 3.1689,3.2683 0.4295,0.4656 0.7896,0.8883 1.0554,1.2629 0.2675,0.3739 0.469,0.6765 0.481,1.0855 0.0111,0.4235 -0.138,0.8548 -0.3618,1.3898 -0.2238,0.535 -0.541,1.1532 -0.9191,1.8399 -0.7554,1.371 -1.7662,3.0051 -2.7779,4.665 -1.0117,1.6599 -2.0268,3.348 -2.7993,4.803 -0.7708,1.4558 -1.2784,2.7265 -1.3204,3.3369 -0.0952,1.3932 0.4793,4.0554 1.7216,6.2614 1.2423,2.206 3.0797,3.9345 5.5078,3.9028 0.9191,-0.012 2.3595,-0.8591 3.883,-2.4753 1.5245,-1.6153 3.156,-3.9499 4.6367,-6.7484 2.9614,-5.5995 5.3303,-13.0698 5.2832,-20.4946 -0.003,-0.6199 -0.4339,-1.5562 -1.1455,-2.6793 -0.7099,-1.1249 -1.6684,-2.4367 -2.6407,-3.944 -1.9437,-3.0102 -3.9285,-6.7921 -3.9225,-11.3465 0.003,-2.2703 1.2561,-4.406 2.2798,-7.2088 1.0228,-2.8036 1.8665,-6.2631 1.2132,-11.1527 -1.0598,-7.917 -0.6362,-13.8552 2.5927,-18.2038 z"
           fill="#000000"
           stroke="none"
           stroke-width="0.85738"
           id="path38" />
        <path
           d="m 282.0542,242.0691 c 1.6059,3.4193 2.4264,5.795 0.469,6.8282 -7.2929,2.8739 -16.2216,-0.7108 -16.3845,-2.6236 l -3.8744,-44.4815"
           fill="none"
           stroke="#000000"
           stroke-width="1.28606"
           id="path40" />
        <path
           d="m 266.1113,200.5036 c -7.1839,2.9811 -29.5246,1.3752 -30.7755,-1.0314"
           fill="none"
           stroke="#000000"
           stroke-width="1.28606"
           id="path42" />
        <path
           d="m 222.7676,252.7015 c 1.6993,0.0651 3.3875,0.1629 5.2282,-0.295 1.263,-0.5804 4.4378,-1.4747 2.7248,-6.4809 -7.7678,-20.1826 0.4098,-30.3588 8.4666,-45.1331"
           fill="none"
           stroke="#000000"
           stroke-width="1.28606"
           id="path44" />
        <path
           d="m 234.4956,162.6274 c 1.4747,0.0488 3.0154,0.2212 4.6255,0.529 h 0.0103 c 3.7442,0.7622 12.0984,5.0396 18.1078,0.529 l 0.5581,0.7424 c -6.5632,4.9282 -15.5399,0.3233 -18.8416,-0.3515 -0.004,0 -0.007,0 -0.0112,0 -12.5348,-2.3852 -20.4501,3.4947 -24.2208,12.1019 -3.7725,8.6072 -3.2718,19.9691 1.3109,28.2899 l 0.4493,0.8308 -0.9294,-0.1363 c -1.5296,-0.2161 -2.7393,0.0977 -3.7468,0.9885 -1.0074,0.89 -1.8176,2.411 -2.3577,4.6264 -3.1269,12.4826 -7.2577,25.9751 -4.118,40.7922 9e-4,0.003 0,0.007 0,0.009 0.2109,0.9234 0.4235,1.6265 0.7245,2.1538 0.3009,0.5281 0.673,0.8994 1.3195,1.214 1.2886,0.6268 3.7021,0.9431 8.091,1.1926 0.0129,0 0.0266,0 0.0386,0 1.4473,-0.0214 3.4038,-0.0917 4.8142,-0.6936 0.709,-0.3044 1.268,-0.7279 1.6144,-1.3315 0.3455,-0.6044 0.4973,-1.4189 0.2932,-2.5824 v -0.012 c -0.8556,-5.6167 -6.0676,-15.0992 -2.5918,-28.0259 1.9762,-7.3494 7.953,-14.9646 16.1898,-25.3457 v -0.0103 l 0.0103,-0.009 c 3.4878,-3.3532 4.7687,-10.1445 5.2917,-14.5368 -0.3361,5.3714 -0.8016,10.8972 -4.5681,15.1421 -0.006,0.008 -0.0129,0.0137 -0.0197,0.0197 -8.224,10.3674 -14.0995,17.9431 -15.9935,24.9839 -3.3823,12.5837 1.695,21.629 2.6124,27.6341 0,0.003 0,0.008 0,0.0103 0.2298,1.3177 0.0592,2.38 -0.4106,3.198 -0.4707,0.8222 -1.2158,1.3743 -2.0543,1.7327 -1.677,0.7151 -3.7459,0.7408 -5.2034,0.7639 h -0.018 -0.0198 c -4.4412,-0.2537 -6.9035,-0.523 -8.482,-1.2912 -0.7887,-0.3841 -1.3392,-0.9234 -1.7216,-1.5938 -0.3824,-0.6714 -0.6139,-1.4601 -0.8325,-2.4161 v -0.0103 c -3.2023,-15.0975 1.0109,-28.7624 4.1274,-41.2123 0.5676,-2.3286 1.4396,-4.0245 2.6519,-5.0962 1.016,-0.8977 2.278,-1.2921 3.6781,-1.2621 -4.388,-8.5309 -4.8081,-19.7299 -1.0083,-28.398 3.4167,-7.8004 10.3194,-13.5088 20.6302,-13.1692 z"
           fill="#000000"
           stroke="none"
           stroke-width="0.85738"
           id="path46" />
        <path
           d="m 270.2773,102.75 v 0.009 c 0.4518,0.01 0.8436,0.2341 1.262,0.5668 0.4262,0.3386 0.872,0.8093 1.3393,1.3898 0.9388,1.1608 1.9514,2.7676 2.8465,4.6366 1.4181,3.5762 4.1342,8.8096 1.3812,15.1207 0.661,-6.9173 -0.1312,-10.0527 -2.2326,-14.71 -0.8668,-1.8107 -1.8408,-3.3755 -2.7196,-4.4609 -0.4373,-0.5427 -0.8574,-0.9671 -1.2021,-1.2423 -0.3455,-0.2752 -0.6284,-0.3721 -0.7047,-0.3721 h -0.0103 -0.0103 c -0.1423,-0.006 -0.6062,0.1929 -1.1454,0.7245 -0.5376,0.5307 -1.1558,1.346 -1.78,2.386 -1.2483,2.0817 -2.5104,5.0637 -3.2683,8.5403 -1.5167,6.9542 -1.0563,15.8615 5.2832,23.7219 l 0.7648,0.9491 -1.2038,-0.1955 -2.6313,-0.4107 c 1.1429,7.2054 4.4498,12.8692 7.8441,18.5579 l 0.4219,0.7031 h -0.8223 c -1.3255,0.005 -2.7256,-0.7014 -4.2354,-1.9274 -1.1909,-0.9671 -2.4804,-2.3578 -3.8445,-3.9619 0.8548,3.6918 3.3387,7.2122 4.1592,10.9949 l 0.264,1.1841 -0.9868,-0.6954 c -1.0683,-0.757 -2.2317,-1.346 -3.4629,-2.8267 -0.3078,4.845 0.9139,9.3659 2.6107,13.832 l 0.4407,1.1635 -1.1061,-0.5882 c -6.6969,-3.5427 -9.5031,-9.1079 -10.9263,-13.3528 -0.2461,0.4493 -0.3841,1.0786 -0.4107,1.8305 -0.1123,1.7114 -0.1689,2.5876 0.009,4.5784 -2.3047,-4.8339 -2.0878,-13.4591 -1.4267,-18.5964 0.6584,-4.6556 1.7705,-8.7333 2.867,-11.4254 l -2.1906,1.7327 -1.2329,0.968 0.4887,-1.4867 c 2.0114,-6.0736 4.1789,-11.776 7.7867,-15.75 -0.2589,-3.2563 0.0137,-6.3865 0.6251,-9.1953 0.7819,-3.5787 2.0688,-6.6515 3.3763,-8.8335 0.6533,-1.0906 1.3161,-1.96 1.9368,-2.5722 0.6139,-0.6061 1.1858,-1.0005 1.8296,-0.9782 0.006,0.002 0.0112,-0.009 0.0189,-0.009 z m -7.6298,22.8705 c -2.8353,3.4183 -4.7713,8.1253 -6.5246,13.255 0.8891,-0.5436 2.7865,-1.9737 3.9525,-3.036 -2.5233,4.4112 -3.7485,10.2782 -4.3735,14.5891 -0.5727,4.0511 -0.739,8.4606 -0.2349,12.5108 0.1715,-0.7039 0.4501,-1.34 1.0374,-1.7413 l 0.5179,-0.3618 0.1963,0.607 c 1.2278,3.9577 3.6927,9.2965 9.6643,12.9129 -1.6161,-4.5097 -2.7418,-9.1739 -2.152,-14.2324 l 0.1569,-1.2818 0.7039,1.076 c 1.0383,1.587 1.966,2.2267 2.9237,2.8465 -1.1498,-3.6129 -3.7407,-7.3031 -4.0974,-11.5042 l -0.1269,-1.5356 0.968,1.2029 c 1.767,2.2035 3.3712,3.9294 4.7944,5.0868 1.016,0.824 1.9308,1.3341 2.729,1.5656 -3.3249,-5.5901 -6.5632,-11.3294 -7.5817,-18.6839 l -0.0772,-0.6259 0.6165,0.0977 2.1803,0.3421 c -3.1543,-4.2491 -4.7302,-8.7495 -5.2729,-13.0895 z"
           fill="#000000"
           stroke="none"
           stroke-width="0.85738"
           id="path48" />
        <path
           d="m 285.8421,104.98 -0.4107,1.0469 -0.8025,2.0834 c 3.6241,-1.767 8.127,-2.182 12.4619,-1.5458 4.791,0.7039 9.3694,2.6681 12.3068,5.5858 0.5839,0.601 0.8737,1.0022 1.0666,1.3349 -1.3067,-0.8239 -2.7882,-1.2904 -4.0897,-1.2072 6.1928,6.4732 7.845,14.6405 7.8758,22.5876 l 0.0103,0.6558 -0.6259,-0.2152 c -6.2545,-1.9316 -14.6679,-4.7241 -17.0789,-6.955 l 5.1949,5.2043 0.8505,0.8411 -1.1943,-0.0386 c -5.3346,-0.1921 -10.3614,-3.1166 -15.1824,-8.1588 v 2.2695 1.028 l -0.7828,-0.6756 c -2.9202,-2.5344 -6.0059,-5.3381 -8.0208,-9.2443 l 0.8326,-0.4304 c 1.7481,3.3901 4.382,5.9382 7.033,8.2763 v -2.3861 -1.214 l 0.8119,0.9002 c 4.569,5.0328 9.2185,7.9633 14.0576,8.5592 -3.1303,-3.0934 -6.5778,-6.5504 -9.3266,-9.6318 7.0048,6.2237 12.7552,7.1823 22.4641,10.5603 -0.1192,-7.8947 -1.8622,-15.7997 -8.2274,-21.9805 l -0.6764,-0.6559 0.9294,-0.1466 c 0.5958,-0.0926 1.1403,-0.0815 1.6624,-0.0292 -2.6956,-1.9548 -6.2691,-3.3514 -10.027,-3.9027 -4.6255,-0.6791 -9.4431,-0.1149 -12.9712,2.0054 l -1.1738,0.7047 0.499,-1.2817 0.812,-2.104 c -2.6948,1.3297 -5.2,3.1028 -7.6204,5.1065 l -0.607,-0.7236 c 2.7753,-2.2952 5.6792,-4.3606 8.9124,-5.771 z"
           fill="#000000"
           stroke="none"
           stroke-width="0.85738"
           id="path50" />
        <path
           d="m 307.1573,132.5455 c 1.8193,9.0316 0.7588,14.9861 -0.6996,19.4178"
           fill="none"
           stroke="#000000"
           stroke-width="1.28606"
           id="path52" />
        <path
           d="m 305.4948,150.7801 c 1.3058,0.938 2.1503,1.8485 2.6227,2.7591 0.4724,0.9097 0.5616,1.8185 0.3721,2.6407 -0.3806,1.6453 -1.7499,2.9305 -3.0128,3.9439 l -0.0197,0.0103 -0.009,0.0103 c -3.9474,2.6724 -8.7401,3.2083 -13.3519,3.1397 -5.6896,-0.084 -9.9902,-0.9268 -15.2716,-2.7685 4.5287,1.2278 11.8198,1.7602 15.2793,1.8288 4.5166,0.0669 9.0873,-0.4647 12.7852,-2.9536 0.003,-0.004 0.007,-0.007 0.0103,-0.0112 0.006,-0.004 0.012,-0.006 0.0197,-0.009 1.2003,-0.9671 2.3629,-2.1555 2.6493,-3.3944 0.1457,-0.625 0.096,-1.2732 -0.283,-2.0054 -0.9611,-1.9016 -1.5793,-2.5044 -3.4046,-4.178 z"
           fill="#000000"
           stroke="none"
           stroke-width="0.85738"
           id="path54" />
        <path
           d="m 213.6691,159.7611 c 0.5487,0.0121 1.0974,0.0472 1.6316,0.1064 4.2903,0.4827 8.1331,2.3912 9.9567,4.7044 l -0.7434,0.5779 c -1.5724,-1.996 -5.2479,-3.8942 -9.3222,-4.3529 -4.0657,-0.4579 -8.4931,0.4647 -11.7589,3.8933 -0.006,0.006 -0.0129,0.0137 -0.018,0.0189 -2.098,2.5969 -3.8462,5.3483 -5.6844,7.8749 0.7082,-0.0951 1.4164,-0.1903 2.1246,-0.2837 -1.6942,6.3848 -2.6082,13.279 -4.6264,18.9385 -1.6033,4.3923 -3.7965,7.6727 -7.3271,9.2442 0.7399,0.1621 1.4061,0.1235 2.0842,-0.1577 2.4436,-1.0649 3.8908,-2.7333 5.4298,-4.8425 -1.0854,3.2778 -4.8939,7.1059 -7.3083,8.2968 -1.8408,0.8265 -3.5606,0.7374 -5.3886,0.6945 -0.003,0 -0.007,0 -0.0103,0 -6.618,-0.1037 -11.9192,-2.6956 -15.4361,-7.4137 -0.1106,5.4332 1.6333,9.1482 4.1462,11.7006 3.7493,3.3978 7.2011,4.5509 11.8121,5.5275 -2.0226,0.1826 -3.625,0.204 -5.4521,0.144 5.0911,2.8637 10.7369,2.4795 14.74,0.2452 3.9705,-2.2163 6.9996,-6.6652 8.9879,-10.5637 l 0.4321,-0.8522 0.4115,0.8625 0.9097,1.8871 c 2.7428,-4.8382 3.8728,-11.9964 3.667,-16.0124 0,-0.005 0.002,-0.008 0,-0.0111 0,-0.003 0.002,-0.009 0,-0.0111 -0.3515,-4.1883 0.3721,-5.9682 0.7434,-7.3383 l 0.234,-0.8488 0.5779,0.673 c 0.3035,0.3584 0.5761,0.7537 0.8025,1.1943 0.4287,-1.5552 0.3952,-3.4037 0.6062,-5.5952 0.2683,-2.7633 1.0194,-6.0188 3.895,-9.6746 0.003,-0.005 0.005,-0.012 0.0103,-0.018 1.0228,-1.425 2.4598,-1.8562 3.7073,-1.8005 1.2509,0.0566 2.3295,0.5427 2.9056,0.92 l -0.5092,0.7828 c -0.4176,-0.2736 -1.4113,-0.7168 -2.4367,-0.764 -1.0246,-0.0471 -2.0714,0.2444 -2.9134,1.4284 l -0.0103,0.0103 -0.0111,0.0103 c -2.7685,3.5135 -3.4484,6.5203 -3.7064,9.1962 -0.2598,2.675 -0.0386,5.0474 -1.1352,7.1308 l -0.6645,1.2629 -0.2152,-1.4181 c -0.0686,-0.4673 -0.2469,-0.8642 -0.4698,-1.2423 -0.3652,1.2655 -0.7476,2.7401 -0.4707,6.0256 v 0.0103 0.0111 c 0.2332,4.455 -0.9851,12.2493 -4.2337,17.355 l -0.4596,0.7134 -0.3626,-0.764 -0.9106,-1.8973 c -2.0277,3.7853 -4.9427,7.9435 -8.921,10.1633 -4.7121,2.6287 -11.4956,2.8765 -17.2452,-1.2141 l -1.2706,-0.9096 1.5535,0.0583 1.2424,0.0385 c -2.2841,-0.8573 -4.599,-2.116 -6.5161,-4.0588 -2.8988,-2.9416 -4.8467,-7.3631 -4.3735,-13.7728 l 0.1089,-1.4096 0.7631,1.1952 c 3.324,5.2017 8.5926,8.001 15.4859,8.1082 1.8476,0.042 3.3729,0.114 4.9985,-0.6164 0.7528,-0.3378 1.5441,-0.8754 2.3964,-1.6625 -1.2021,0.427 -2.4496,0.3052 -3.7948,-0.3035 l -1.1343,-0.5179 1.1943,-0.3618 c 3.932,-1.1977 6.2229,-4.382 7.9625,-9.1464 1.683,-4.6084 2.8019,-10.6838 4.2954,-17.5205 -0.9928,0.1269 -1.9839,0.2624 -2.9742,0.4013 2.5824,-3.2649 4.8382,-6.9628 7.0433,-9.7141 l 0.0103,-0.0103 0.0103,-0.018 c 3.0591,-3.2357 7.0982,-4.3906 10.9341,-4.3075 z"
           fill="#000000"
           stroke="none"
           stroke-width="0.85738"
           id="path56" />
        <path
           d="m 281.2431,180.8028 c 1.7533,3.3952 4.28,9.2614 1.7131,16.2284 l -0.8806,-0.3223 c 2.669,-4.2295 0.3636,-12.9618 -0.8325,-15.9061 z"
           fill="#000000"
           stroke="none"
           stroke-width="0.85738"
           id="path58" />
        <path
           d="m 268.614,113.8444 c -1.8039,3.6627 -1.2484,7.8862 -0.0369,11.9278 -2.0945,-3.9267 -2.9373,-8.001 0.0369,-11.9278 z"
           fill="#000000"
           stroke="none"
           stroke-width="0.85738"
           id="path60" />
      </g>
    </g>
  </g>
</svg>
