<?xml version="1.0" encoding="UTF-8" standalone="no"?>
<svg
   width="120"
   height="108.40216"
   viewBox="11.874046 12.1316 120 108.40216"
   version="1.1"
   xml:space="preserve"
   id="svg94"
   sodipodi:docname="rabbit.svg"
   inkscape:version="1.2.2 (b0a8486541, 2022-12-01)"
   xmlns:inkscape="http://www.inkscape.org/namespaces/inkscape"
   xmlns:sodipodi="http://sodipodi.sourceforge.net/DTD/sodipodi-0.dtd"
   xmlns="http://www.w3.org/2000/svg"
   xmlns:svg="http://www.w3.org/2000/svg"><sodipodi:namedview
   id="namedview96"
   pagecolor="#ffffff"
   bordercolor="#000000"
   borderopacity="0.25"
   inkscape:showpageshadow="2"
   inkscape:pageopacity="0.0"
   inkscape:pagecheckerboard="0"
   inkscape:deskcolor="#d1d1d1"
   showgrid="false"
   inkscape:zoom="9.4825712"
   inkscape:cx="67.808613"
   inkscape:cy="74.188739"
   inkscape:window-width="1870"
   inkscape:window-height="1011"
   inkscape:window-x="0"
   inkscape:window-y="0"
   inkscape:window-maximized="1"
   inkscape:current-layer="svg94" />
  <defs
   id="defs2">
    
    
    
  </defs>
  <g
   id="forest"
   stroke="none"
   fill-rule="evenodd"
   transform="matrix(0.91173218,0,0,0.91173218,-3.580385,0.61496418)">
      <g
   id="rabbit-d"
   fill-rule="nonzero">
        <g
   id="Rabbit4">
          <g
   id="tail">
            <path
   id="Oval"
   transform="rotate(-38.805658,90.491075,23.313751)"
   style="fill:#666666"
   d="M 27.488828,16.303877 A 11.266793,11.278542 0 0 1 16.222034,27.582418 11.266793,11.278542 0 0 1 4.9552412,16.303877 11.266793,11.278542 0 0 1 16.222034,5.0253353 11.266793,11.278542 0 0 1 27.488828,16.303877 Z" />
            <path
   d="m 24.1678,68.391 c 0.5408,0.1804 1.0815,0.4511 1.6223,0.6316 0.3606,0.0902 0.7211,-0.1805 0.8112,-0.4512 0.0901,-0.3609 -0.0901,-0.7218 -0.4506,-0.812 -0.5408,-0.1805 -1.0816,-0.4511 -1.6224,-0.6316 -0.3605,-0.0902 -0.7211,0.1805 -0.8112,0.4511 -0.1803,0.4512 0.0901,0.7219 0.4507,0.8121 z"
   id="Shape"
   class="mascot-fill"
   stroke-width="1" />
            <path
   d="m 22.6355,71.7293 c 0.6309,0.0902 1.1717,0.0902 1.8027,0.0902 0.8111,0 0.8111,-1.2631 0,-1.3533 -0.631,0 -1.1718,-0.0903 -1.8027,-0.0903 -0.3605,0 -0.6309,0.3609 -0.6309,0.6316 0,0.4511 0.2704,0.7218 0.6309,0.7218 z"
   id="path10"
   class="mascot-fill"
   stroke-width="1" />
            <path
   d="m 25.1592,62.8872 c 0.5408,0.812 1.2619,1.7143 2.073,2.2557 0.2704,0.1804 0.7211,0.0902 0.9014,-0.2707 0.1802,-0.3609 0.0901,-0.7218 -0.2704,-0.9023 0.0901,0.0903 -0.0902,-0.0902 -0.0902,-0.0902 -0.0901,-0.0902 -0.1802,-0.1805 -0.2704,-0.2707 -0.1802,-0.1804 -0.3605,-0.3609 -0.5408,-0.5413 -0.2704,-0.2707 -0.5407,-0.6316 -0.721,-0.9023 -0.3605,-0.7218 -1.5322,0 -1.0816,0.7218 z"
   id="path12"
   class="mascot-fill"
   stroke-width="1" />
            <path
   d="m 28.9447,61.2632 c 0.3606,0.6315 0.7211,1.2631 1.1717,1.8947 0.4507,0.7218 1.6224,0.0902 1.1718,-0.6316 -0.3606,-0.6316 -0.8112,-1.2631 -1.1718,-1.8947 -0.4506,-0.7218 -1.6223,-0.0902 -1.1717,0.6316 z"
   id="path14"
   class="mascot-fill"
   stroke-width="1" />
            <path
   d="m 33.1809,59.8195 c -0.0901,0.8121 0.0902,1.6241 0.4507,2.3459 0.1802,0.3609 0.6309,0.3609 0.9013,0.2707 0.3605,-0.1805 0.3605,-0.5414 0.2704,-0.9023 -0.2704,-0.5413 -0.3605,-1.1729 -0.2704,-1.7143 0.0901,-0.812 -1.2618,-0.812 -1.352,0 z"
   id="path16"
   class="mascot-fill"
   stroke-width="1" />
            <path
   d="m 36.1553,62.9774 c 0,0.6316 0,1.2632 0.0901,1.8948 0.0901,0.3609 0.4507,0.5413 0.8112,0.4511 0.3605,-0.0902 0.5408,-0.4511 0.4506,-0.812 -0.0901,-0.5414 -0.0901,-0.9925 -0.0901,-1.5339 0.0901,-0.812 -1.2618,-0.812 -1.2618,0 z"
   id="path18"
   class="mascot-fill"
   stroke-width="1" />
            <path
   d="m 19.6612,62.5263 c 0.6309,0.6316 1.352,1.0827 1.9829,1.7143 0.6309,0.5414 1.5322,-0.3609 0.9013,-0.9023 -0.6309,-0.6315 -1.352,-1.0827 -1.9829,-1.7142 -0.5408,-0.6316 -1.5322,0.2706 -0.9013,0.9022 z"
   id="path20"
   class="mascot-fill"
   stroke-width="1" />
            <path
   d="m 21.6441,58.3759 c 0.4506,0.6316 0.9013,1.3534 1.2618,1.985 0.4507,0.7218 1.5323,0.0902 1.1717,-0.6316 -0.4506,-0.7218 -0.9013,-1.3534 -1.2618,-1.9849 -0.5408,-0.7218 -1.6224,-0.0903 -1.1717,0.6315 z"
   id="path22"
   class="mascot-fill"
   stroke-width="1" />
            <path
   d="m 25.7,56.4812 c 0.4507,0.9925 0.9013,2.0752 1.4421,2.9774 0.4507,0.7219 1.6224,0.0903 1.1717,-0.6315 -0.6309,-0.9023 -0.9914,-1.985 -1.4421,-2.9775 -0.3605,-0.7218 -1.5322,-0.0902 -1.1717,0.6316 z"
   id="path24"
   class="mascot-fill"
   stroke-width="1" />
            <path
   d="m 30.1164,55.5789 c 0.0902,0.2707 0.1803,0.4512 0.2704,0.7219 0.1803,0.3609 0.631,0.3609 0.9014,0.2706 0.3605,-0.1804 0.3605,-0.5413 0.2704,-0.9022 -0.0902,-0.2707 -0.1803,-0.4512 -0.2704,-0.7218 -0.1803,-0.3609 -0.631,-0.3609 -0.9014,-0.2707 -0.3605,0.1804 -0.3605,0.6316 -0.2704,0.9022 z"
   id="path26"
   class="mascot-fill"
   stroke-width="1" />
            <path
   d="m 18.0388,67.7594 c 0.6309,0.2707 1.352,0.4511 1.9829,0.7218 0.3605,0.0902 0.7211,-0.1804 0.8112,-0.4511 0.0901,-0.3609 -0.0901,-0.7218 -0.4507,-0.8121 -0.6309,-0.2706 -1.3519,-0.4511 -1.9829,-0.7218 -0.3605,-0.0902 -0.721,0.1805 -0.8111,0.4512 -0.1803,0.4511 0.0901,0.7218 0.4506,0.812 z"
   id="path28"
   class="mascot-fill"
   stroke-width="1" />
            <path
   d="m 28.3138,69.6541 c 0.6309,0.2707 1.1717,0.6316 1.7125,0.9023 0.7211,0.3609 1.4421,-0.7218 0.6309,-1.1729 -0.721,-0.3609 -1.3519,-0.7218 -2.073,-0.9925 -0.3605,-0.0902 -0.721,0.1804 -0.8112,0.4511 0,0.3609 0.2704,0.6316 0.5408,0.812 z"
   id="path30"
   class="mascot-fill"
   stroke-width="1" />
            <path
   d="m 27.3224,73.2632 c 0.3605,0.0902 0.721,0.1804 1.0815,0.1804 0.8112,0 0.8112,-1.3534 0,-1.3534 -0.2703,0 -0.4506,0 -0.721,-0.0902 -0.3605,-0.0902 -0.7211,0.0902 -0.8112,0.4511 -0.0901,0.3609 0.1803,0.6316 0.4507,0.8121 z"
   id="path32"
   class="mascot-fill"
   stroke-width="1" />
            <path
   d="m 30.0263,65.8647 c 0.1803,0.812 0.5408,1.624 0.9013,2.3458 0.3606,0.7218 1.5323,0.0903 1.1717,-0.6316 -0.2704,-0.6315 -0.6309,-1.3533 -0.8111,-2.0751 -0.1803,-0.7218 -1.4421,-0.4512 -1.2619,0.3609 z"
   id="path34"
   class="mascot-fill"
   stroke-width="1" />
            <path
   d="m 33.3612,65.6842 c 0.0901,0.3609 0.0901,0.6316 0.1802,0.9925 0.0902,0.3609 0.4507,0.5413 0.8112,0.4511 0.3606,-0.0902 0.5408,-0.4511 0.4507,-0.812 -0.0901,-0.3609 -0.0901,-0.6316 -0.1803,-0.9925 -0.0901,-0.3609 -0.4506,-0.5413 -0.8112,-0.4511 -0.3605,0.0902 -0.5407,0.4511 -0.4506,0.812 z"
   id="path36"
   class="mascot-fill"
   stroke-width="1" />
          </g>
          <g
   id="body">
            <path
   d="M 82.7533,68.2105 C 75.8132,64.6015 53.1,54.9474 39.4,60.7218 27.4125,65.594 16.1461,80.8421 23.627,103.1278 c 6.1289,18.406 43.173,14.8872 55.7914,14.797 7.2105,-0.0902 18.0263,-0.9925 23.3441,4.6015 1.6224,1.7143 7.7513,5.3233 11.4467,5.8647 3.6954,0.5413 30.7349,-8.8421 29.3829,-32.1203 -1.2618,-20.8421 -21.6316,-24 -34.971,-22.376 -13.3395,1.5339 -25.8678,-5.6842 -25.8678,-5.6842 z"
   id="path39"
   stroke-width="1"
   class="mascot-fill" />
          </g>
          <g
   id="paw_back">
            <path
   d="m 26.7816,122.1654 c -4.4165,-5.594 2.8842,-5.6842 3.0645,-10.4662 0.1802,-4.7819 -17.125,-4.2406 -10.5454,-26.6165 3.6052,-12.3609 17.3052,-13.985 24.6059,-12.7218 9.8243,1.7143 24.1552,11.3684 27.4901,20.391 2.6138,7.218 4.5967,16.8722 -1.5322,21.3834 -5.8586,4.2406 -11.3566,3.1579 -16.9448,5.2331 3.6954,2.6166 11.0862,0.3609 15.6829,0.9925 1.4421,0.1805 4.1461,-0.2707 6.2191,0.3609 2.4336,0.7218 4.0559,2.8872 5.3178,4.3308 3.1546,3.6993 -3.6954,3.2482 -6.129,3.2482 13.6099,5.7744 -20.0993,2.3458 -24.2454,0.812 -0.0901,-0.0902 -21.1809,-4.6015 -22.9835,-6.9474 z"
   id="path42"
   class="mascot-fill"
   stroke-width="1" />
            <g
   id="Group">
              <path
   d="m 43.9066,72.2707 c 9.8243,1.7143 24.1552,11.3684 27.4901,20.391 0.5408,1.5338 1.0816,3.2481 1.5322,4.9624 -0.0901,-0.5414 -0.0901,-1.173 -0.1802,-1.8046 C 71.3066,80.391 51.2072,70.5564 39.8507,70.8271 c -4.3264,0.0902 -7.7514,1.2631 -10.5454,3.0676 5.0473,-2.0752 10.7256,-2.2556 14.6013,-1.624 z"
   id="path44"
   stroke-width="1"
   fill="#666666" />
              <path
   d="m 71.9375,127.8496 c 1.8928,0.4512 3.3349,0.9925 4.5066,2.6166 0.5408,0.6315 1.6223,0 1.1717,-0.6316 -0.6309,-0.9023 -1.352,-1.7143 -2.3434,-2.2557 -0.9013,-0.5413 -1.9829,-0.7218 -2.9744,-0.9924 -0.8112,-0.1805 -1.1717,1.0827 -0.3605,1.2631 z"
   id="path46"
   stroke-width="1"
   fill="#666666" />
            </g>
          </g>
          <g
   id="paw_front">
            <path
   d="m 92.3072,102.4962 c -8.3822,4.0602 -13.5197,12.2707 -4.7769,19.579 -6.4895,-7.0376 -2.0731,-14.797 4.7769,-19.579 z"
   id="path50"
   fill="#666666"
   stroke-width="1" />
            <path
   d="m 103.7539,129.8346 c -3.9657,-0.7218 -7.7513,-1.8045 -11.2664,-3.8797 -21.0908,-12.9023 4.5066,-30.5865 15.773,-28.0602 8.8329,1.985 6.2191,9.203 9.1934,13.8948 2.4336,3.8797 11.1764,3.5188 11.1764,3.5188 0,0 15.5927,3.8797 16.8546,4.8722 6.219,4.6917 1.6223,9.2932 -1.5323,7.1278 2.9744,3.0676 -1.5322,2.0752 -3.3348,0.7218 0,0 -10.0948,-3.2481 -11.7171,-2.797 -4.5066,1.1729 -16.4941,6.1353 -25.1468,4.6015 z"
   id="path52"
   class="mascot-fill"
   stroke-width="1" />
            <path
   d="m 145.3947,127.1278 c -0.9914,-1.8947 -2.9743,-3.3383 -5.1375,-3.609 -0.8111,-0.0902 -1.1717,1.1729 -0.3605,1.2632 1.8026,0.2706 3.5151,1.3533 4.3263,2.9774 0.4507,0.7218 1.5323,0.0902 1.1717,-0.6316 z"
   id="path54"
   fill="#666666"
   stroke-width="1" />
          </g>
          <g
   id="head_x2B_ears">
            <g
   id="ears">
              <path
   d="M 130.6132,77.1429 C 133.3171,66.4962 119.8875,45.1128 113.3079,36 106.0974,26.0752 87.0796,12.6316 87.0796,12.6316 c -5.2276,2.9774 10.9961,28.7819 15.8632,36.9925 7.1204,12.1804 14.3309,26.8872 24.696,36.9924 z"
   id="path57"
   fill="#666666"
   stroke-width="1" />
              <path
   d="M 120.7888,77.5038 C 106.2776,79.8496 87.35,65.2331 75.9934,55.8496 68.2421,49.4436 59.4092,35.6391 55.7138,26.797 c -3.2447,-7.7594 27.4,6.3158 35.4217,12.6316 13.7,10.7368 29.0224,21.2932 36.0527,36.4511 z"
   id="path59"
   class="mascot-fill"
   stroke-width="1" />
            </g>
            <g
   id="head">
              <path
   d="m 141.7895,100.9624 c -6.3092,5.2331 -16.5842,4.5113 -24.8763,2.9774 -16.7645,-3.0676 -24.8764,-32.2105 -4.3264,-42.0451 18.9277,-9.1127 35.5119,15.7895 34.5204,29.5038 -0.721,9.7444 -5.3177,9.5639 -5.3177,9.5639 z"
   id="path62"
   fill="#666666"
   stroke-width="1" />
              <path
   d="m 115.2007,103.0376 c -13.1593,-8.6617 -21.2711,-30.3158 -2.2533,-41.2331 18.8375,-10.9173 34.8809,14.1654 34.7006,29.6842 0,0 -0.8112,10.2857 -9.1934,13.5339 -9.8243,3.7894 -16.7645,2.2556 -23.2539,-1.985 z"
   id="path64"
   class="mascot-fill"
   stroke-width="1" />
              <g
   id="face">
                <g
   id="g80">
                  <g
   id="g72">
                    <path
   d="m 139.2658,91.4887 c 0.9013,0.2707 2.073,0.5414 2.9743,0.0902 0.8112,-0.4511 0.8112,-1.1729 0.9915,-1.9849 0.1802,-0.9023 -1.0816,-1.2632 -1.352,-0.3609 -0.0901,0.3609 0,0.9022 -0.3605,1.1729 -0.5408,0.2707 -1.4421,0 -1.8928,-0.1804 -0.8112,-0.3609 -1.1717,0.9022 -0.3605,1.2631 z"
   stroke-width="1"
   fill="#3c4f45"
   id="path66" />
                    <path
   d="m 140.9783,91.218 c 0.5408,1.4437 0.9013,2.9775 0.9013,4.5113 0,0.9023 1.352,0.9023 1.352,0 0,-1.624 -0.3605,-3.3383 -0.9915,-4.8722 -0.1802,-0.812 -1.5322,-0.4511 -1.2618,0.3609 z"
   stroke-width="1"
   fill="#3c4f45"
   id="path68" />
                    <path
   d="m 139.1757,96.9925 c 1.9829,1.2631 6.219,-0.3609 6.3092,-2.8872 0,-0.9023 -1.352,-0.9023 -1.352,0 0,1.4436 -3.1546,2.3458 -4.2362,1.624 -0.721,-0.3609 -1.4421,0.8121 -0.721,1.2632 z"
   stroke-width="1"
   fill="#3c4f45"
   id="path70" />
                  </g>
                  <path
   d="m 128.45,90.406 c -1.7125,0.3609 -3.425,1.0827 -4.8671,2.0752 -0.6309,0.4511 0,1.5338 0.6309,1.0827 1.352,-0.9925 2.9744,-1.6241 4.5967,-1.985 0.8112,-0.0902 0.4507,-1.2631 -0.3605,-1.1729 z"
   id="path74"
   fill="#666666"
   stroke-width="1" />
                  <path
   d="m 126.9178,94.6466 c -1.1717,0.7218 -2.3435,1.3534 -3.425,2.2557 -0.631,0.5413 0.2704,1.4436 0.9013,0.9022 0.9914,-0.812 2.073,-1.4436 3.1546,-2.0752 0.721,-0.4511 0.0901,-1.5338 -0.6309,-1.0827 z"
   id="path76"
   fill="#666666"
   stroke-width="1" />
                  <path
   d="m 130.7033,95.0075 c -0.9013,1.173 -1.8026,2.3459 -2.6138,3.5188 -0.4507,0.6316 0.6309,1.2632 1.0816,0.6316 0.8111,-1.1729 1.7125,-2.3459 2.6138,-3.5188 0.4506,-0.6316 -0.631,-1.2632 -1.0816,-0.6316 z"
   id="path78"
   fill="#666666"
   stroke-width="1" />
                </g>
                <path
   d="m 116.6428,85.0827 c 2.073,1.2632 4.5967,1.7143 6.3092,-0.3609 0.5408,-0.6316 -0.3606,-1.6241 -0.9915,-0.9925 -1.3519,1.5339 -3.1546,1.0827 -4.6868,0.1805 -0.6309,-0.4512 -1.352,0.7218 -0.6309,1.1729 z"
   id="path82"
   fill="#3c4f45"
   stroke-width="1" />
                <path
   d="m 113.6684,79.5789 c 1.352,-0.4511 2.8842,-0.2706 4.3263,-0.2706 0.8112,0 0.8112,-1.2632 0,-1.2632 -1.5322,0 -3.1546,-0.1804 -4.5967,0.2707 -0.9013,0.3609 -0.5408,1.5338 0.2704,1.2631 z"
   id="path84"
   fill="#666666"
   stroke-width="1" />
              </g>
            </g>
          </g>
        </g>
      </g>
    </g>
</svg>
